<svg width="54" height="13" viewBox="0 0 54 13" fill="none" xmlns="http://www.w3.org/2000/svg">
<path d="M0.710766 12.1171L4.68877 0.309065H6.38077L10.3588 12.1171H8.77477L6.72277 5.51107C6.51877 4.85107 6.31477 4.19707 6.11077 3.54907C5.91877 2.88907 5.73277 2.21707 5.55277 1.53307H5.48077C5.28877 2.21707 5.09677 2.88907 4.90477 3.54907C4.71277 4.19707 4.51477 4.85107 4.31077 5.51107L2.24077 12.1171H0.710766ZM2.79877 8.51707V7.31107H8.21677V8.51707H2.79877ZM12.7097 12.1171V0.309065H16.0577C16.8617 0.309065 17.5637 0.405065 18.1637 0.597065C18.7757 0.789065 19.2497 1.09506 19.5857 1.51506C19.9337 1.93506 20.1077 2.49307 20.1077 3.18907C20.1077 3.77706 19.9397 4.31107 19.6037 4.79107C19.2677 5.25907 18.7457 5.58306 18.0377 5.76307V5.83507C18.9017 5.96707 19.5737 6.26706 20.0537 6.73506C20.5337 7.20307 20.7737 7.84507 20.7737 8.66107C20.7737 9.42907 20.5877 10.0711 20.2157 10.5871C19.8437 11.1031 19.3217 11.4871 18.6497 11.7391C17.9897 11.9911 17.2157 12.1171 16.3277 12.1171H12.7097ZM14.2037 5.27706H15.8057C16.8137 5.27706 17.5337 5.11507 17.9657 4.79107C18.4097 4.46707 18.6317 3.97507 18.6317 3.31507C18.6317 2.67906 18.3977 2.22906 17.9297 1.96507C17.4737 1.70107 16.7897 1.56906 15.8777 1.56906H14.2037V5.27706ZM14.2037 10.8571H16.1117C17.1197 10.8571 17.8997 10.6831 18.4517 10.3351C19.0157 9.97507 19.2977 9.39307 19.2977 8.58907C19.2977 7.85707 19.0217 7.33507 18.4697 7.02307C17.9297 6.69907 17.1437 6.53707 16.1117 6.53707H14.2037V10.8571ZM27.1207 12.3331C26.2327 12.3331 25.4467 12.0871 24.7627 11.5951C24.0787 11.1031 23.5447 10.4011 23.1607 9.48907C22.7767 8.56507 22.5847 7.45507 22.5847 6.15906C22.5847 4.88707 22.7767 3.80107 23.1607 2.90106C23.5447 1.98907 24.0787 1.29307 24.7627 0.813065C25.4467 0.333065 26.2327 0.0930647 27.1207 0.0930647C28.0087 0.0930647 28.7947 0.333065 29.4787 0.813065C30.1627 1.29307 30.6967 1.98907 31.0807 2.90106C31.4647 3.80107 31.6567 4.88707 31.6567 6.15906C31.6567 7.45507 31.4647 8.56507 31.0807 9.48907C30.6967 10.4011 30.1627 11.1031 29.4787 11.5951C28.7947 12.0871 28.0087 12.3331 27.1207 12.3331ZM27.1207 11.0191C27.7207 11.0191 28.2427 10.8271 28.6867 10.4431C29.1427 10.0471 29.4907 9.48907 29.7307 8.76907C29.9827 8.03707 30.1087 7.16707 30.1087 6.15906C30.1087 5.16306 29.9827 4.31106 29.7307 3.60307C29.4907 2.89507 29.1427 2.35507 28.6867 1.98307C28.2427 1.59906 27.7207 1.40706 27.1207 1.40706C26.5207 1.40706 25.9927 1.59906 25.5367 1.98307C25.0927 2.35507 24.7447 2.89507 24.4927 3.60307C24.2527 4.31106 24.1327 5.16306 24.1327 6.15906C24.1327 7.16707 24.2527 8.03707 24.4927 8.76907C24.7447 9.48907 25.0927 10.0471 25.5367 10.4431C25.9927 10.8271 26.5207 11.0191 27.1207 11.0191ZM37.9317 12.3331C37.3557 12.3331 36.8217 12.2491 36.3297 12.0811C35.8497 11.9011 35.4297 11.6311 35.0697 11.2711C34.7097 10.8991 34.4277 10.4131 34.2237 9.81307C34.0317 9.21307 33.9357 8.49307 33.9357 7.65307V0.309065H35.4477V7.68907C35.4477 8.50507 35.5557 9.15907 35.7717 9.65107C35.9877 10.1311 36.2817 10.4791 36.6537 10.6951C37.0377 10.9111 37.4637 11.0191 37.9317 11.0191C38.4117 11.0191 38.8377 10.9111 39.2097 10.6951C39.5937 10.4791 39.8937 10.1311 40.1097 9.65107C40.3257 9.15907 40.4337 8.50507 40.4337 7.68907V0.309065H41.8917V7.65307C41.8917 8.49307 41.7897 9.21307 41.5857 9.81307C41.3937 10.4131 41.1177 10.8991 40.7577 11.2711C40.4097 11.6311 39.9957 11.9011 39.5157 12.0811C39.0357 12.2491 38.5077 12.3331 37.9317 12.3331ZM47.9506 12.1171V1.56906H44.0626V0.309065H53.3506V1.56906H49.4626V12.1171H47.9506Z" fill="white" fill-opacity="0.5"/>
</svg>
