<svg width="74" height="30" viewBox="0 0 74 30" fill="none" xmlns="http://www.w3.org/2000/svg">
<path d="M0.831437 24L9.80744 8.16H10.5274L12.7354 24H12.0154L10.7674 14.496C10.6554 13.6 10.5434 12.672 10.4314 11.712C10.3194 10.752 10.1994 9.832 10.0714 8.952H9.95144C9.42344 9.896 8.91944 10.808 8.43944 11.688C7.97544 12.552 7.48744 13.456 6.97544 14.4L1.59944 24H0.831437ZM4.62344 18.288L4.81544 17.664H11.5354L11.5114 18.288H4.62344ZM16.7101 24L19.8781 8.16H23.6221C24.6621 8.16 25.5181 8.296 26.1901 8.568C26.8621 8.84 27.3581 9.232 27.6781 9.744C28.0141 10.256 28.1821 10.864 28.1821 11.568C28.1821 12.368 27.9821 13.056 27.5821 13.632C27.1981 14.192 26.7261 14.632 26.1661 14.952C25.6061 15.272 25.0781 15.472 24.5821 15.552V15.648C25.0941 15.76 25.5821 15.96 26.0461 16.248C26.5101 16.52 26.8861 16.888 27.1741 17.352C27.4621 17.816 27.6061 18.384 27.6061 19.056C27.6061 20.176 27.3421 21.104 26.8141 21.84C26.2861 22.56 25.5421 23.104 24.5821 23.472C23.6381 23.824 22.5341 24 21.2701 24H16.7101ZM19.1581 15.264H21.9901C23.8141 15.264 25.1821 14.92 26.0941 14.232C27.0061 13.544 27.4621 12.672 27.4621 11.616C27.4621 10.72 27.1501 10.024 26.5261 9.528C25.9021 9.032 24.8061 8.784 23.2381 8.784H20.4541L19.1581 15.264ZM17.5261 23.376H20.8381C22.0381 23.376 23.0941 23.24 24.0061 22.968C24.9181 22.68 25.6221 22.224 26.1181 21.6C26.6301 20.976 26.8861 20.152 26.8861 19.128C26.8861 18.2 26.4941 17.432 25.7101 16.824C24.9421 16.2 23.8461 15.888 22.4221 15.888H19.0621L17.5261 23.376ZM35.9487 24.288C34.8927 24.288 33.9967 24.032 33.2607 23.52C32.5247 22.992 31.9647 22.272 31.5807 21.36C31.1967 20.432 31.0047 19.376 31.0047 18.192C31.0047 17.248 31.1087 16.296 31.3167 15.336C31.5247 14.36 31.8287 13.432 32.2287 12.552C32.6287 11.656 33.1167 10.856 33.6927 10.152C34.2847 9.448 34.9647 8.896 35.7327 8.496C36.5007 8.08 37.3567 7.872 38.3007 7.872C39.3567 7.872 40.2527 8.136 40.9887 8.664C41.7247 9.176 42.2847 9.896 42.6687 10.824C43.0527 11.736 43.2447 12.784 43.2447 13.968C43.2447 14.912 43.1407 15.872 42.9327 16.848C42.7247 17.808 42.4207 18.736 42.0207 19.632C41.6207 20.512 41.1247 21.304 40.5327 22.008C39.9567 22.712 39.2847 23.272 38.5167 23.688C37.7487 24.088 36.8927 24.288 35.9487 24.288ZM35.9967 23.664C36.8447 23.664 37.6127 23.472 38.3007 23.088C38.9887 22.688 39.5967 22.16 40.1247 21.504C40.6527 20.832 41.0927 20.08 41.4447 19.248C41.7967 18.416 42.0607 17.552 42.2367 16.656C42.4287 15.76 42.5247 14.896 42.5247 14.064C42.5247 12.976 42.3647 12.016 42.0447 11.184C41.7407 10.336 41.2687 9.68 40.6287 9.216C40.0047 8.736 39.2127 8.496 38.2527 8.496C37.4047 8.496 36.6367 8.696 35.9487 9.096C35.2607 9.48 34.6527 10.008 34.1247 10.68C33.5967 11.336 33.1567 12.08 32.8047 12.912C32.4527 13.744 32.1807 14.608 31.9887 15.504C31.8127 16.4 31.7247 17.264 31.7247 18.096C31.7247 19.184 31.8767 20.152 32.1807 21C32.5007 21.832 32.9727 22.488 33.5967 22.968C34.2367 23.432 35.0367 23.664 35.9967 23.664ZM50.4353 24.288C49.0433 24.288 47.9473 23.888 47.1473 23.088C46.3633 22.272 45.9713 21.136 45.9713 19.68C45.9713 19.36 45.9873 19.048 46.0193 18.744C46.0513 18.44 46.0993 18.096 46.1633 17.712L48.0833 8.16H48.8033L46.9313 17.52C46.8353 17.904 46.7713 18.256 46.7393 18.576C46.7073 18.896 46.6913 19.2 46.6913 19.488C46.6913 20.8 47.0113 21.824 47.6513 22.56C48.3073 23.296 49.2673 23.664 50.5313 23.664C51.2193 23.664 51.8753 23.488 52.4993 23.136C53.1393 22.784 53.7073 22.216 54.2033 21.432C54.6993 20.632 55.0753 19.584 55.3313 18.288L57.3473 8.16H58.0673L56.0033 18.48C55.7153 19.92 55.2833 21.064 54.7073 21.912C54.1473 22.76 53.4913 23.368 52.7393 23.736C52.0033 24.104 51.2353 24.288 50.4353 24.288ZM63.9139 24L66.9379 8.832H61.3219L61.4659 8.16H73.4179L73.2739 8.832H67.6579L64.6339 24H63.9139Z" fill="white"/>
</svg>
