<svg width="1109" height="210" viewBox="0 0 1109 210" fill="none" xmlns="http://www.w3.org/2000/svg">
<path d="M2 39L2.24 37.96H9.04L13.92 13.64H7.04L7.28 12.6H22.32L22.08 13.64H15.12L10.24 37.96H17.2L16.96 39H2ZM33.8644 22.28L33.5444 21.28C35.251 20.6667 36.6244 19.8 37.6644 18.68C38.7044 17.5333 39.291 16.12 39.4244 14.44L38.7844 11.92L40.4644 14.28C40.0644 14.7067 39.691 15.0267 39.3444 15.24C38.9977 15.4267 38.5844 15.52 38.1044 15.52C37.5977 15.52 37.1977 15.3467 36.9044 15C36.611 14.6267 36.4644 14.1867 36.4644 13.68C36.4644 12.9333 36.731 12.3067 37.2644 11.8C37.7977 11.2667 38.3977 11 39.0644 11C39.6244 11 40.1177 11.2 40.5444 11.6C40.9977 12 41.2244 12.6933 41.2244 13.68C41.2244 14.9067 40.931 16.08 40.3444 17.2C39.7844 18.32 38.9577 19.32 37.8644 20.2C36.771 21.08 35.4377 21.7733 33.8644 22.28ZM48.6088 39L52.4488 19.88H53.4088L53.0088 22.6H53.0888C54.0221 21.48 54.9288 20.6667 55.8088 20.16C56.6888 19.6533 57.5688 19.4 58.4488 19.4C59.3821 19.4 60.1021 19.6667 60.6088 20.2C61.1421 20.7067 61.4088 21.5867 61.4088 22.84L60.9288 23.4C62.1288 21.88 63.2488 20.84 64.2888 20.28C65.3288 19.6933 66.2621 19.4 67.0888 19.4C68.0221 19.4 68.7421 19.6533 69.2488 20.16C69.7821 20.6667 70.0488 21.5067 70.0488 22.68C70.0488 23 70.0221 23.3333 69.9688 23.68C69.9421 24.0267 69.8754 24.4667 69.7688 25L67.0088 39H65.8888L68.6888 24.92C68.7688 24.52 68.8221 24.16 68.8488 23.84C68.9021 23.4933 68.9288 23.1867 68.9288 22.92C68.9288 22.04 68.7554 21.4133 68.4088 21.04C68.0621 20.64 67.5554 20.44 66.8888 20.44C65.9021 20.44 64.9554 20.7867 64.0488 21.48C63.1421 22.1467 62.2088 23.16 61.2488 24.52L58.3688 39H57.2488L60.0488 24.92C60.1288 24.52 60.1821 24.16 60.2088 23.84C60.2621 23.4933 60.2888 23.1867 60.2888 22.92C60.2888 22.04 60.1154 21.4133 59.7688 21.04C59.4221 20.64 58.9021 20.44 58.2088 20.44C57.2221 20.44 56.2888 20.7867 55.4088 21.48C54.5554 22.1467 53.6221 23.16 52.6088 24.52L49.7288 39H48.6088Z" fill="white"/>
<path d="M111.66 39.42C110.377 39.42 109.117 39.1167 107.88 38.51C106.643 37.9033 105.628 36.935 104.835 35.605L106.655 33.82C107.308 34.8467 108.067 35.6167 108.93 36.13C109.817 36.62 110.703 36.865 111.59 36.865C113.223 36.865 114.425 36.4333 115.195 35.57C115.965 34.6833 116.35 33.295 116.35 31.405V18.455H106.725V16.005H119.255V31.65C119.255 33.0733 119.022 34.38 118.555 35.57C118.088 36.7367 117.295 37.67 116.175 38.37C115.078 39.07 113.573 39.42 111.66 39.42ZM133.486 39.42C131.993 39.42 130.605 39.07 129.321 38.37C128.061 37.67 127.035 36.655 126.241 35.325C125.471 33.995 125.086 32.3967 125.086 30.53C125.086 28.6167 125.471 26.995 126.241 25.665C127.035 24.335 128.061 23.32 129.321 22.62C130.605 21.92 131.993 21.57 133.486 21.57C134.98 21.57 136.356 21.92 137.616 22.62C138.9 23.32 139.926 24.335 140.696 25.665C141.49 26.995 141.886 28.6167 141.886 30.53C141.886 32.3967 141.49 33.995 140.696 35.325C139.926 36.655 138.9 37.67 137.616 38.37C136.356 39.07 134.98 39.42 133.486 39.42ZM133.486 37.04C134.583 37.04 135.54 36.7717 136.356 36.235C137.173 35.675 137.803 34.905 138.246 33.925C138.69 32.945 138.911 31.8133 138.911 30.53C138.911 29.2233 138.69 28.08 138.246 27.1C137.803 26.0967 137.173 25.3267 136.356 24.79C135.54 24.23 134.583 23.95 133.486 23.95C132.39 23.95 131.433 24.23 130.616 24.79C129.823 25.3267 129.193 26.0967 128.726 27.1C128.283 28.08 128.061 29.2233 128.061 30.53C128.061 31.8133 128.283 32.945 128.726 33.925C129.193 34.905 129.823 35.675 130.616 36.235C131.433 36.7717 132.39 37.04 133.486 37.04ZM152.583 39.42C151.533 39.42 150.564 39.2333 149.678 38.86C148.791 38.4633 148.091 37.9033 147.578 37.18C147.064 36.4567 146.808 35.5933 146.808 34.59C146.808 32.6767 147.764 31.23 149.678 30.25C151.591 29.2467 154.741 28.57 159.128 28.22C159.104 27.45 158.941 26.7383 158.638 26.085C158.358 25.4317 157.891 24.9183 157.238 24.545C156.584 24.1483 155.709 23.95 154.613 23.95C153.889 23.95 153.166 24.055 152.443 24.265C151.743 24.4517 151.066 24.7083 150.413 25.035C149.783 25.3383 149.199 25.6533 148.663 25.98L147.543 24.02C148.103 23.6467 148.779 23.2733 149.573 22.9C150.389 22.5033 151.264 22.1883 152.198 21.955C153.131 21.6983 154.099 21.57 155.103 21.57C156.666 21.57 157.949 21.8617 158.953 22.445C159.979 23.0283 160.738 23.845 161.228 24.895C161.741 25.9217 161.998 27.1467 161.998 28.57V39H159.653L159.408 36.69H159.303C158.369 37.4367 157.319 38.0783 156.153 38.615C154.986 39.1517 153.796 39.42 152.583 39.42ZM153.353 37.11C154.333 37.11 155.301 36.8883 156.258 36.445C157.214 36.0017 158.171 35.3833 159.128 34.59V30.11C156.701 30.32 154.788 30.6117 153.388 30.985C152.011 31.3583 151.031 31.8367 150.448 32.42C149.888 32.98 149.608 33.6333 149.608 34.38C149.608 35.01 149.783 35.535 150.133 35.955C150.483 36.3517 150.938 36.6433 151.498 36.83C152.081 37.0167 152.699 37.11 153.353 37.11ZM157.693 18.805C157.086 18.805 156.549 18.665 156.083 18.385C155.639 18.0817 155.231 17.7317 154.858 17.335C154.484 16.9383 154.123 16.6 153.773 16.32C153.446 16.0167 153.084 15.865 152.688 15.865C152.174 15.865 151.789 16.1217 151.533 16.635C151.276 17.125 151.113 17.79 151.043 18.63L149.118 18.525C149.141 17.5917 149.281 16.775 149.538 16.075C149.794 15.3517 150.168 14.7917 150.658 14.395C151.171 13.975 151.836 13.765 152.653 13.765C153.283 13.765 153.819 13.9167 154.263 14.22C154.706 14.5 155.114 14.8383 155.488 15.235C155.861 15.6317 156.211 15.9817 156.538 16.285C156.888 16.565 157.273 16.705 157.693 16.705C158.206 16.705 158.591 16.4483 158.848 15.935C159.104 15.4217 159.256 14.7567 159.303 13.94L161.228 14.08C161.204 14.9667 161.064 15.7717 160.808 16.495C160.551 17.195 160.166 17.755 159.653 18.175C159.163 18.595 158.509 18.805 157.693 18.805ZM175.459 39.42C173.966 39.42 172.577 39.07 171.294 38.37C170.034 37.67 169.007 36.655 168.214 35.325C167.444 33.995 167.059 32.3967 167.059 30.53C167.059 28.6167 167.444 26.995 168.214 25.665C169.007 24.335 170.034 23.32 171.294 22.62C172.577 21.92 173.966 21.57 175.459 21.57C176.952 21.57 178.329 21.92 179.589 22.62C180.872 23.32 181.899 24.335 182.669 25.665C183.462 26.995 183.859 28.6167 183.859 30.53C183.859 32.3967 183.462 33.995 182.669 35.325C181.899 36.655 180.872 37.67 179.589 38.37C178.329 39.07 176.952 39.42 175.459 39.42ZM175.459 37.04C176.556 37.04 177.512 36.7717 178.329 36.235C179.146 35.675 179.776 34.905 180.219 33.925C180.662 32.945 180.884 31.8133 180.884 30.53C180.884 29.2233 180.662 28.08 180.219 27.1C179.776 26.0967 179.146 25.3267 178.329 24.79C177.512 24.23 176.556 23.95 175.459 23.95C174.362 23.95 173.406 24.23 172.589 24.79C171.796 25.3267 171.166 26.0967 170.699 27.1C170.256 28.08 170.034 29.2233 170.034 30.53C170.034 31.8133 170.256 32.945 170.699 33.925C171.166 34.905 171.796 35.675 172.589 36.235C173.406 36.7717 174.362 37.04 175.459 37.04ZM210.502 39V16.04H217.432C219.135 16.04 220.617 16.2617 221.877 16.705C223.16 17.125 224.152 17.825 224.852 18.805C225.575 19.785 225.937 21.115 225.937 22.795C225.937 24.405 225.575 25.735 224.852 26.785C224.152 27.8117 223.16 28.5933 221.877 29.13C220.593 29.6433 219.112 29.9 217.432 29.9H213.407V39H210.502ZM213.407 27.52H217.082C219.088 27.52 220.57 27.135 221.527 26.365C222.507 25.595 222.997 24.405 222.997 22.795C222.997 21.1383 222.507 19.995 221.527 19.365C220.547 18.7117 219.065 18.385 217.082 18.385H213.407V27.52ZM236.528 39.42C235.478 39.42 234.51 39.2333 233.623 38.86C232.736 38.4633 232.036 37.9033 231.523 37.18C231.01 36.4567 230.753 35.5933 230.753 34.59C230.753 32.6767 231.71 31.23 233.623 30.25C235.536 29.2467 238.686 28.57 243.073 28.22C243.05 27.45 242.886 26.7383 242.583 26.085C242.303 25.4317 241.836 24.9183 241.183 24.545C240.53 24.1483 239.655 23.95 238.558 23.95C237.835 23.95 237.111 24.055 236.388 24.265C235.688 24.4517 235.011 24.7083 234.358 25.035C233.728 25.3383 233.145 25.6533 232.608 25.98L231.488 24.02C232.048 23.6467 232.725 23.2733 233.518 22.9C234.335 22.5033 235.21 22.1883 236.143 21.955C237.076 21.6983 238.045 21.57 239.048 21.57C240.611 21.57 241.895 21.8617 242.898 22.445C243.925 23.0283 244.683 23.845 245.173 24.895C245.686 25.9217 245.943 27.1467 245.943 28.57V39H243.598L243.353 36.69H243.248C242.315 37.4367 241.265 38.0783 240.098 38.615C238.931 39.1517 237.741 39.42 236.528 39.42ZM237.298 37.11C238.278 37.11 239.246 36.8883 240.203 36.445C241.16 36.0017 242.116 35.3833 243.073 34.59V30.11C240.646 30.32 238.733 30.6117 237.333 30.985C235.956 31.3583 234.976 31.8367 234.393 32.42C233.833 32.98 233.553 33.6333 233.553 34.38C233.553 35.01 233.728 35.535 234.078 35.955C234.428 36.3517 234.883 36.6433 235.443 36.83C236.026 37.0167 236.645 37.11 237.298 37.11ZM257.514 39.42C255.484 39.42 253.991 38.8367 253.034 37.67C252.078 36.5033 251.599 34.8 251.599 32.56V21.99H254.504V32.175C254.504 33.785 254.796 34.9867 255.379 35.78C255.986 36.55 257.001 36.935 258.424 36.935C259.404 36.935 260.291 36.69 261.084 36.2C261.901 35.6867 262.776 34.8817 263.709 33.785V21.99H266.579V39H264.234L263.989 36.025H263.849C262.986 37.005 262.041 37.8217 261.014 38.475C259.988 39.105 258.821 39.42 257.514 39.42ZM284.101 39.42C282.304 39.42 280.927 38.9067 279.971 37.88C279.014 36.83 278.536 35.3017 278.536 33.295V16.425H272.726V14.08H281.406V33.505C281.406 34.7417 281.709 35.64 282.316 36.2C282.922 36.76 283.727 37.04 284.731 37.04C285.221 37.04 285.722 36.9817 286.236 36.865C286.749 36.725 287.321 36.515 287.951 36.235L288.686 38.405C287.916 38.685 287.192 38.9183 286.516 39.105C285.839 39.315 285.034 39.42 284.101 39.42ZM301.377 39.42C299.884 39.42 298.495 39.07 297.212 38.37C295.952 37.67 294.925 36.655 294.132 35.325C293.362 33.995 292.977 32.3967 292.977 30.53C292.977 28.6167 293.362 26.995 294.132 25.665C294.925 24.335 295.952 23.32 297.212 22.62C298.495 21.92 299.884 21.57 301.377 21.57C302.87 21.57 304.247 21.92 305.507 22.62C306.79 23.32 307.817 24.335 308.587 25.665C309.38 26.995 309.777 28.6167 309.777 30.53C309.777 32.3967 309.38 33.995 308.587 35.325C307.817 36.655 306.79 37.67 305.507 38.37C304.247 39.07 302.87 39.42 301.377 39.42ZM301.377 37.04C302.474 37.04 303.43 36.7717 304.247 36.235C305.064 35.675 305.694 34.905 306.137 33.925C306.58 32.945 306.802 31.8133 306.802 30.53C306.802 29.2233 306.58 28.08 306.137 27.1C305.694 26.0967 305.064 25.3267 304.247 24.79C303.43 24.23 302.474 23.95 301.377 23.95C300.28 23.95 299.324 24.23 298.507 24.79C297.714 25.3267 297.084 26.0967 296.617 27.1C296.174 28.08 295.952 29.2233 295.952 30.53C295.952 31.8133 296.174 32.945 296.617 33.925C297.084 34.905 297.714 35.675 298.507 36.235C299.324 36.7717 300.28 37.04 301.377 37.04ZM333.97 39L341.705 16.04H344.995L352.73 39H349.65L345.66 26.155C345.263 24.8717 344.866 23.6 344.47 22.34C344.096 21.0567 343.735 19.75 343.385 18.42H343.245C342.871 19.75 342.498 21.0567 342.125 22.34C341.751 23.6 341.366 24.8717 340.97 26.155L336.945 39H333.97ZM338.03 32V29.655H348.565V32H338.03ZM356.321 39V37.46L367.976 24.335H357.616V21.99H372.106V23.53L360.416 36.655H372.421V39H356.321ZM386.372 39.42C384.669 39.42 383.117 39.07 381.717 38.37C380.341 37.67 379.244 36.655 378.427 35.325C377.611 33.9717 377.202 32.35 377.202 30.46C377.202 28.6167 377.611 27.03 378.427 25.7C379.244 24.37 380.306 23.355 381.612 22.655C382.942 21.9317 384.366 21.57 385.882 21.57C387.516 21.57 388.904 21.9083 390.047 22.585C391.214 23.2383 392.101 24.16 392.707 25.35C393.337 26.54 393.652 27.94 393.652 29.55C393.652 29.8767 393.641 30.1917 393.617 30.495C393.594 30.7983 393.559 31.0667 393.512 31.3H379.127V29.06H391.797L391.062 29.865C391.062 27.8583 390.596 26.3533 389.662 25.35C388.752 24.3467 387.516 23.845 385.952 23.845C384.902 23.845 383.922 24.1017 383.012 24.615C382.126 25.1283 381.414 25.875 380.877 26.855C380.341 27.835 380.072 29.0367 380.072 30.46C380.072 31.93 380.364 33.155 380.947 34.135C381.531 35.115 382.324 35.8617 383.327 36.375C384.331 36.865 385.462 37.11 386.722 37.11C387.749 37.11 388.671 36.97 389.487 36.69C390.327 36.3867 391.132 35.99 391.902 35.5L392.952 37.39C392.112 37.95 391.144 38.4283 390.047 38.825C388.974 39.2217 387.749 39.42 386.372 39.42ZM404.769 39L397.594 21.99H400.499L404.419 31.65C404.769 32.49 405.095 33.33 405.399 34.17C405.725 35.01 406.04 35.8383 406.344 36.655H406.484C406.787 35.8383 407.09 35.01 407.394 34.17C407.697 33.33 408.012 32.49 408.339 31.65L412.259 21.99H415.024L407.989 39H404.769ZM428.345 39.42C426.642 39.42 425.09 39.07 423.69 38.37C422.313 37.67 421.217 36.655 420.4 35.325C419.583 33.9717 419.175 32.35 419.175 30.46C419.175 28.6167 419.583 27.03 420.4 25.7C421.217 24.37 422.278 23.355 423.585 22.655C424.915 21.9317 426.338 21.57 427.855 21.57C429.488 21.57 430.877 21.9083 432.02 22.585C433.187 23.2383 434.073 24.16 434.68 25.35C435.31 26.54 435.625 27.94 435.625 29.55C435.625 29.8767 435.613 30.1917 435.59 30.495C435.567 30.7983 435.532 31.0667 435.485 31.3H421.1V29.06H433.77L433.035 29.865C433.035 27.8583 432.568 26.3533 431.635 25.35C430.725 24.3467 429.488 23.845 427.925 23.845C426.875 23.845 425.895 24.1017 424.985 24.615C424.098 25.1283 423.387 25.875 422.85 26.855C422.313 27.835 422.045 29.0367 422.045 30.46C422.045 31.93 422.337 33.155 422.92 34.135C423.503 35.115 424.297 35.8617 425.3 36.375C426.303 36.865 427.435 37.11 428.695 37.11C429.722 37.11 430.643 36.97 431.46 36.69C432.3 36.3867 433.105 35.99 433.875 35.5L434.925 37.39C434.085 37.95 433.117 38.4283 432.02 38.825C430.947 39.2217 429.722 39.42 428.345 39.42ZM447.266 39.42C445.05 39.42 443.265 38.65 441.911 37.11C440.558 35.5467 439.881 33.3533 439.881 30.53C439.881 28.6867 440.243 27.1 440.966 25.77C441.713 24.4167 442.67 23.3783 443.836 22.655C445.026 21.9317 446.286 21.57 447.616 21.57C448.62 21.57 449.53 21.7683 450.346 22.165C451.186 22.5383 451.968 23.075 452.691 23.775H452.796L452.656 20.625V14.08H455.526V39H453.146L452.901 36.76H452.796C452.12 37.4833 451.291 38.1133 450.311 38.65C449.355 39.1633 448.34 39.42 447.266 39.42ZM447.861 37.005C448.701 37.005 449.518 36.795 450.311 36.375C451.105 35.9317 451.886 35.29 452.656 34.45V25.98C451.886 25.2567 451.128 24.7433 450.381 24.44C449.658 24.1367 448.923 23.985 448.176 23.985C447.196 23.985 446.298 24.265 445.481 24.825C444.688 25.3617 444.046 26.12 443.556 27.1C443.09 28.0567 442.856 29.1883 442.856 30.495C442.856 32.525 443.3 34.1233 444.186 35.29C445.073 36.4333 446.298 37.005 447.861 37.005ZM469.268 39.42C467.774 39.42 466.386 39.07 465.103 38.37C463.843 37.67 462.816 36.655 462.023 35.325C461.253 33.995 460.868 32.3967 460.868 30.53C460.868 28.6167 461.253 26.995 462.023 25.665C462.816 24.335 463.843 23.32 465.103 22.62C466.386 21.92 467.774 21.57 469.268 21.57C470.761 21.57 472.138 21.92 473.398 22.62C474.681 23.32 475.708 24.335 476.478 25.665C477.271 26.995 477.668 28.6167 477.668 30.53C477.668 32.3967 477.271 33.995 476.478 35.325C475.708 36.655 474.681 37.67 473.398 38.37C472.138 39.07 470.761 39.42 469.268 39.42ZM469.268 37.04C470.364 37.04 471.321 36.7717 472.138 36.235C472.954 35.675 473.584 34.905 474.028 33.925C474.471 32.945 474.693 31.8133 474.693 30.53C474.693 29.2233 474.471 28.08 474.028 27.1C473.584 26.0967 472.954 25.3267 472.138 24.79C471.321 24.23 470.364 23.95 469.268 23.95C468.171 23.95 467.214 24.23 466.398 24.79C465.604 25.3267 464.974 26.0967 464.508 27.1C464.064 28.08 463.843 29.2233 463.843 30.53C463.843 31.8133 464.064 32.945 464.508 33.925C464.974 34.905 465.604 35.675 466.398 36.235C467.214 36.7717 468.171 37.04 469.268 37.04Z" fill="white"/>
<path d="M110.7 88.348C109.463 88.348 108.312 88.058 107.249 87.478C106.205 86.898 105.354 86.057 104.697 84.955C104.059 83.853 103.74 82.5287 103.74 80.982C103.74 79.3967 104.059 78.053 104.697 76.951C105.354 75.849 106.205 75.008 107.249 74.428C108.312 73.848 109.463 73.558 110.7 73.558C111.937 73.558 113.078 73.848 114.122 74.428C115.185 75.008 116.036 75.849 116.674 76.951C117.331 78.053 117.66 79.3967 117.66 80.982C117.66 82.5287 117.331 83.853 116.674 84.955C116.036 86.057 115.185 86.898 114.122 87.478C113.078 88.058 111.937 88.348 110.7 88.348ZM110.7 86.376C111.609 86.376 112.401 86.1537 113.078 85.709C113.755 85.245 114.277 84.607 114.644 83.795C115.011 82.983 115.195 82.0453 115.195 80.982C115.195 79.8993 115.011 78.952 114.644 78.14C114.277 77.3087 113.755 76.6707 113.078 76.226C112.401 75.762 111.609 75.53 110.7 75.53C109.791 75.53 108.999 75.762 108.322 76.226C107.665 76.6707 107.143 77.3087 106.756 78.14C106.389 78.952 106.205 79.8993 106.205 80.982C106.205 82.0453 106.389 82.983 106.756 83.795C107.143 84.607 107.665 85.245 108.322 85.709C108.999 86.1537 109.791 86.376 110.7 86.376ZM122.086 88V73.906H124.058L124.261 76.313H124.377C125.111 75.5203 125.904 74.863 126.755 74.341C127.605 73.819 128.582 73.558 129.684 73.558C131.346 73.558 132.574 74.0413 133.367 75.008C134.159 75.9747 134.556 77.386 134.556 79.242V88H132.178V79.561C132.178 78.227 131.926 77.241 131.424 76.603C130.921 75.9457 130.09 75.617 128.93 75.617C128.098 75.617 127.354 75.8297 126.697 76.255C126.039 76.6803 125.295 77.3183 124.464 78.169V88H122.086ZM161.3 88.348C160.43 88.348 159.628 88.1933 158.893 87.884C158.158 87.5553 157.578 87.0913 157.153 86.492C156.728 85.8927 156.515 85.1773 156.515 84.346C156.515 82.7607 157.308 81.562 158.893 80.75C160.478 79.9187 163.088 79.358 166.723 79.068C166.704 78.43 166.568 77.8403 166.317 77.299C166.085 76.7577 165.698 76.3323 165.157 76.023C164.616 75.6943 163.891 75.53 162.982 75.53C162.383 75.53 161.783 75.617 161.184 75.791C160.604 75.9457 160.043 76.1583 159.502 76.429C158.98 76.6803 158.497 76.9413 158.052 77.212L157.124 75.588C157.588 75.2787 158.149 74.9693 158.806 74.66C159.483 74.3313 160.208 74.0703 160.981 73.877C161.754 73.6643 162.557 73.558 163.388 73.558C164.683 73.558 165.747 73.7997 166.578 74.283C167.429 74.7663 168.057 75.443 168.463 76.313C168.888 77.1637 169.101 78.1787 169.101 79.358V88H167.158L166.955 86.086H166.868C166.095 86.7047 165.225 87.2363 164.258 87.681C163.291 88.1257 162.305 88.348 161.3 88.348ZM161.938 86.434C162.75 86.434 163.552 86.2503 164.345 85.883C165.138 85.5157 165.93 85.0033 166.723 84.346V80.634C164.712 80.808 163.127 81.0497 161.967 81.359C160.826 81.6683 160.014 82.0647 159.531 82.548C159.067 83.012 158.835 83.5533 158.835 84.172C158.835 84.694 158.98 85.129 159.27 85.477C159.56 85.8057 159.937 86.0473 160.401 86.202C160.884 86.3567 161.397 86.434 161.938 86.434ZM174.252 88V73.906H176.224L176.427 76.313H176.543C177.277 75.5203 178.07 74.863 178.921 74.341C179.771 73.819 180.748 73.558 181.85 73.558C183.512 73.558 184.74 74.0413 185.533 75.008C186.325 75.9747 186.722 77.386 186.722 79.242V88H184.344V79.561C184.344 78.227 184.092 77.241 183.59 76.603C183.087 75.9457 182.256 75.617 181.096 75.617C180.264 75.617 179.52 75.8297 178.863 76.255C178.205 76.6803 177.461 77.3183 176.63 78.169V88H174.252ZM215.902 88.348C214.491 88.348 213.205 88.058 212.045 87.478C210.904 86.898 209.996 86.057 209.319 84.955C208.642 83.8337 208.304 82.49 208.304 80.924C208.304 79.3967 208.642 78.082 209.319 76.98C209.996 75.878 210.875 75.037 211.958 74.457C213.06 73.8577 214.239 73.558 215.496 73.558C216.849 73.558 218 73.8383 218.947 74.399C219.914 74.9403 220.648 75.704 221.151 76.69C221.673 77.676 221.934 78.836 221.934 80.17C221.934 80.4407 221.924 80.7017 221.905 80.953C221.886 81.2043 221.857 81.4267 221.818 81.62H209.899V79.764H220.397L219.788 80.431C219.788 78.7683 219.401 77.5213 218.628 76.69C217.874 75.8587 216.849 75.443 215.554 75.443C214.684 75.443 213.872 75.6557 213.118 76.081C212.383 76.5063 211.794 77.125 211.349 77.937C210.904 78.749 210.682 79.7447 210.682 80.924C210.682 82.142 210.924 83.157 211.407 83.969C211.89 84.781 212.548 85.3997 213.379 85.825C214.21 86.231 215.148 86.434 216.192 86.434C217.043 86.434 217.806 86.318 218.483 86.086C219.179 85.8347 219.846 85.506 220.484 85.1L221.354 86.666C220.658 87.13 219.856 87.5263 218.947 87.855C218.058 88.1837 217.043 88.348 215.902 88.348ZM225.577 88L230.942 80.692L225.983 73.906H228.622L230.855 77.009C231.106 77.3763 231.377 77.763 231.667 78.169C231.957 78.575 232.237 78.981 232.508 79.387H232.624C232.875 78.981 233.136 78.575 233.407 78.169C233.697 77.7437 233.967 77.3377 234.219 76.951L236.336 73.906H238.859L233.842 80.895L239.236 88H236.626L234.161 84.752C233.871 84.346 233.561 83.9207 233.233 83.476C232.923 83.0313 232.614 82.606 232.305 82.2H232.189C231.899 82.606 231.609 83.0217 231.319 83.447C231.029 83.8723 230.739 84.3073 230.449 84.752L228.129 88H225.577ZM251.143 88.348C249.674 88.348 248.35 88.058 247.17 87.478C246.01 86.898 245.092 86.057 244.415 84.955C243.758 83.853 243.429 82.5287 243.429 80.982C243.429 79.3967 243.787 78.053 244.502 76.951C245.218 75.849 246.165 75.008 247.344 74.428C248.543 73.848 249.858 73.558 251.288 73.558C252.448 73.558 253.444 73.761 254.275 74.167C255.126 74.573 255.841 75.0563 256.421 75.617L255.232 77.154C254.652 76.6513 254.053 76.255 253.434 75.965C252.816 75.675 252.129 75.53 251.375 75.53C250.293 75.53 249.336 75.762 248.504 76.226C247.673 76.6707 247.025 77.3087 246.561 78.14C246.117 78.952 245.894 79.8993 245.894 80.982C245.894 82.0453 246.117 82.983 246.561 83.795C247.006 84.607 247.634 85.245 248.446 85.709C249.278 86.1537 250.235 86.376 251.317 86.376C252.187 86.376 252.98 86.202 253.695 85.854C254.43 85.506 255.087 85.0903 255.667 84.607L256.74 86.144C255.967 86.84 255.097 87.3813 254.13 87.768C253.183 88.1547 252.187 88.348 251.143 88.348ZM267.662 88V75.849H261.108V73.906H270.04V88H267.662ZM268.59 70.948C268.049 70.948 267.594 70.7837 267.227 70.455C266.86 70.107 266.676 69.6527 266.676 69.092C266.676 68.5313 266.86 68.0867 267.227 67.758C267.594 67.41 268.049 67.236 268.59 67.236C269.131 67.236 269.586 67.41 269.953 67.758C270.32 68.0867 270.504 68.5313 270.504 69.092C270.504 69.6527 270.32 70.107 269.953 70.455C269.586 70.7837 269.131 70.948 268.59 70.948ZM287.313 88.348C285.94 88.348 284.857 88.1063 284.065 87.623C283.272 87.1203 282.702 86.434 282.354 85.564C282.025 84.694 281.861 83.679 281.861 82.519V75.849H277.888V74.051L281.948 73.906L282.267 69.382H284.239V73.906H291.17V75.849H284.239V82.548C284.239 83.3793 284.345 84.085 284.558 84.665C284.77 85.245 285.138 85.68 285.66 85.97C286.182 86.26 286.897 86.405 287.806 86.405C288.482 86.405 289.091 86.347 289.633 86.231C290.174 86.115 290.696 85.9603 291.199 85.767L291.721 87.507C291.083 87.739 290.406 87.9323 289.691 88.087C288.995 88.261 288.202 88.348 287.313 88.348ZM302.439 88V75.849H295.885V73.906H304.817V88H302.439ZM303.367 70.948C302.826 70.948 302.372 70.7837 302.004 70.455C301.637 70.107 301.453 69.6527 301.453 69.092C301.453 68.5313 301.637 68.0867 302.004 67.758C302.372 67.41 302.826 67.236 303.367 67.236C303.909 67.236 304.363 67.41 304.73 67.758C305.098 68.0867 305.281 68.5313 305.281 69.092C305.281 69.6527 305.098 70.107 304.73 70.455C304.363 70.7837 303.909 70.948 303.367 70.948ZM313.361 88V73.906H315.333L315.536 76.313H315.652C316.387 75.5203 317.179 74.863 318.03 74.341C318.881 73.819 319.857 73.558 320.959 73.558C322.622 73.558 323.849 74.0413 324.642 75.008C325.435 75.9747 325.831 77.386 325.831 79.242V88H323.453V79.561C323.453 78.227 323.202 77.241 322.699 76.603C322.196 75.9457 321.365 75.617 320.205 75.617C319.374 75.617 318.629 75.8297 317.972 76.255C317.315 76.6803 316.57 77.3183 315.739 78.169V88H313.361ZM336.637 94.496C335.264 94.496 334.094 94.3413 333.128 94.032C332.161 93.7227 331.417 93.278 330.895 92.698C330.392 92.118 330.141 91.4123 330.141 90.581C330.141 90.0203 330.334 89.4597 330.721 88.899C331.127 88.3577 331.707 87.8743 332.461 87.449V87.333C332.093 87.1203 331.755 86.8303 331.446 86.463C331.156 86.0957 331.011 85.6123 331.011 85.013C331.011 84.5683 331.156 84.114 331.446 83.65C331.736 83.1667 332.151 82.7413 332.693 82.374V82.258C332.209 81.8907 331.794 81.3977 331.446 80.779C331.117 80.1603 330.953 79.4353 330.953 78.604C330.953 77.5793 331.204 76.69 331.707 75.936C332.229 75.182 332.905 74.602 333.737 74.196C334.587 73.7707 335.506 73.558 336.492 73.558C337.284 73.558 337.98 73.674 338.58 73.906H344.409V75.849H340.755C341.083 76.1777 341.364 76.5933 341.596 77.096C341.828 77.5987 341.944 78.1303 341.944 78.691C341.944 79.6963 341.702 80.5663 341.219 81.301C340.735 82.0163 340.078 82.5673 339.247 82.954C338.435 83.3407 337.516 83.534 336.492 83.534C336.124 83.534 335.728 83.4953 335.303 83.418C334.897 83.3213 334.5 83.186 334.114 83.012C333.766 83.2247 333.495 83.4663 333.302 83.737C333.108 84.0077 333.012 84.3073 333.012 84.636C333.012 85.1773 333.263 85.5833 333.766 85.854C334.288 86.1247 335.013 86.26 335.941 86.26H339.102C340.919 86.26 342.263 86.5113 343.133 87.014C344.022 87.5167 344.467 88.3673 344.467 89.566C344.467 90.436 344.148 91.248 343.51 92.002C342.872 92.756 341.963 93.3553 340.784 93.8C339.624 94.264 338.241 94.496 336.637 94.496ZM336.492 81.939C337.091 81.939 337.632 81.8037 338.116 81.533C338.618 81.2623 339.015 80.8757 339.305 80.373C339.595 79.8703 339.74 79.2807 339.74 78.604C339.74 77.9467 339.595 77.3763 339.305 76.893C339.015 76.3903 338.618 76.0037 338.116 75.733C337.632 75.443 337.091 75.298 336.492 75.298C335.912 75.298 335.37 75.443 334.868 75.733C334.384 76.0037 333.988 76.3903 333.679 76.893C333.389 77.3763 333.244 77.9467 333.244 78.604C333.244 79.2807 333.389 79.8703 333.679 80.373C333.988 80.8757 334.384 81.2623 334.868 81.533C335.37 81.8037 335.912 81.939 336.492 81.939ZM336.811 92.756C337.913 92.756 338.86 92.6207 339.653 92.35C340.445 92.0793 341.054 91.7313 341.48 91.306C341.905 90.8807 342.118 90.4263 342.118 89.943C342.118 89.2663 341.847 88.812 341.306 88.58C340.784 88.348 339.981 88.232 338.899 88.232H336.144C335.738 88.232 335.351 88.2127 334.984 88.174C334.636 88.1353 334.307 88.0773 333.998 88C333.34 88.3673 332.876 88.7443 332.606 89.131C332.335 89.537 332.2 89.943 332.2 90.349C332.2 91.0837 332.586 91.6637 333.36 92.089C334.152 92.5337 335.303 92.756 336.811 92.756ZM368.456 94.293C367.721 94.293 367.006 94.1963 366.31 94.003C365.614 93.829 364.986 93.6067 364.425 93.336L365.208 91.567C365.711 91.8183 366.233 92.0117 366.774 92.147C367.335 92.2823 367.886 92.35 368.427 92.35C369.374 92.35 370.099 92.1953 370.602 91.886C371.124 91.596 371.482 91.161 371.675 90.581C371.888 90.001 371.994 89.3147 371.994 88.522V75.849H365.44V73.906H374.372V88.348C374.372 89.218 374.275 90.0107 374.082 90.726C373.889 91.4607 373.57 92.089 373.125 92.611C372.68 93.1523 372.071 93.568 371.298 93.858C370.544 94.148 369.597 94.293 368.456 94.293ZM372.922 70.948C372.381 70.948 371.926 70.7837 371.559 70.455C371.192 70.107 371.008 69.6527 371.008 69.092C371.008 68.5313 371.192 68.0867 371.559 67.758C371.926 67.41 372.381 67.236 372.922 67.236C373.463 67.236 373.918 67.41 374.285 67.758C374.652 68.0867 374.836 68.5313 374.836 69.092C374.836 69.6527 374.652 70.107 374.285 70.455C373.918 70.7837 373.463 70.948 372.922 70.948ZM388.919 88.348C387.681 88.348 386.531 88.058 385.468 87.478C384.424 86.898 383.573 86.057 382.916 84.955C382.278 83.853 381.959 82.5287 381.959 80.982C381.959 79.3967 382.278 78.053 382.916 76.951C383.573 75.849 384.424 75.008 385.468 74.428C386.531 73.848 387.681 73.558 388.919 73.558C390.156 73.558 391.297 73.848 392.341 74.428C393.404 75.008 394.255 75.849 394.893 76.951C395.55 78.053 395.879 79.3967 395.879 80.982C395.879 82.5287 395.55 83.853 394.893 84.955C394.255 86.057 393.404 86.898 392.341 87.478C391.297 88.058 390.156 88.348 388.919 88.348ZM388.919 86.376C389.827 86.376 390.62 86.1537 391.297 85.709C391.973 85.245 392.495 84.607 392.863 83.795C393.23 82.983 393.414 82.0453 393.414 80.982C393.414 79.8993 393.23 78.952 392.863 78.14C392.495 77.3087 391.973 76.6707 391.297 76.226C390.62 75.762 389.827 75.53 388.919 75.53C388.01 75.53 387.217 75.762 386.541 76.226C385.883 76.6707 385.361 77.3087 384.975 78.14C384.607 78.952 384.424 79.8993 384.424 80.982C384.424 82.0453 384.607 82.983 384.975 83.795C385.361 84.607 385.883 85.245 386.541 85.709C387.217 86.1537 388.01 86.376 388.919 86.376ZM404.741 88.348C403.059 88.348 401.822 87.8647 401.029 86.898C400.237 85.9313 399.84 84.52 399.84 82.664V73.906H402.247V82.345C402.247 83.679 402.489 84.6747 402.972 85.332C403.475 85.97 404.316 86.289 405.495 86.289C406.307 86.289 407.042 86.086 407.699 85.68C408.376 85.2547 409.101 84.5877 409.874 83.679V73.906H412.252V88H410.309L410.106 85.535H409.99C409.275 86.347 408.492 87.0237 407.641 87.565C406.791 88.087 405.824 88.348 404.741 88.348ZM419.23 88V73.906H421.202L421.405 77.241H421.492C422.227 76.1003 423.135 75.2013 424.218 74.544C425.301 73.8867 426.49 73.558 427.785 73.558C428.307 73.558 428.79 73.6063 429.235 73.703C429.699 73.7803 430.144 73.9253 430.569 74.138L430.018 76.197C429.535 76.023 429.119 75.8973 428.771 75.82C428.423 75.7427 427.969 75.704 427.408 75.704C426.345 75.704 425.32 76.0133 424.334 76.632C423.367 77.2313 422.459 78.2657 421.608 79.735V88H419.23ZM435.082 88V73.906H437.054L437.257 76.313H437.373C438.107 75.5203 438.9 74.863 439.751 74.341C440.601 73.819 441.578 73.558 442.68 73.558C444.342 73.558 445.57 74.0413 446.363 75.008C447.155 75.9747 447.552 77.386 447.552 79.242V88H445.174V79.561C445.174 78.227 444.922 77.241 444.42 76.603C443.917 75.9457 443.086 75.617 441.926 75.617C441.094 75.617 440.35 75.8297 439.693 76.255C439.035 76.6803 438.291 77.3183 437.46 78.169V88H435.082ZM459.343 88.348C457.932 88.348 456.646 88.058 455.486 87.478C454.346 86.898 453.437 86.057 452.76 84.955C452.084 83.8337 451.745 82.49 451.745 80.924C451.745 79.3967 452.084 78.082 452.76 76.98C453.437 75.878 454.317 75.037 455.399 74.457C456.501 73.8577 457.681 73.558 458.937 73.558C460.291 73.558 461.441 73.8383 462.388 74.399C463.355 74.9403 464.09 75.704 464.592 76.69C465.114 77.676 465.375 78.836 465.375 80.17C465.375 80.4407 465.366 80.7017 465.346 80.953C465.327 81.2043 465.298 81.4267 465.259 81.62H453.34V79.764H463.838L463.229 80.431C463.229 78.7683 462.843 77.5213 462.069 76.69C461.315 75.8587 460.291 75.443 458.995 75.443C458.125 75.443 457.313 75.6557 456.559 76.081C455.825 76.5063 455.235 77.125 454.79 77.937C454.346 78.749 454.123 79.7447 454.123 80.924C454.123 82.142 454.365 83.157 454.848 83.969C455.332 84.781 455.989 85.3997 456.82 85.825C457.652 86.231 458.589 86.434 459.633 86.434C460.484 86.434 461.248 86.318 461.924 86.086C462.62 85.8347 463.287 85.506 463.925 85.1L464.795 86.666C464.099 87.13 463.297 87.5263 462.388 87.855C461.499 88.1837 460.484 88.348 459.343 88.348ZM470.961 94.061C470.652 94.061 470.323 94.032 469.975 93.974C469.646 93.916 469.356 93.8483 469.105 93.771L469.598 91.886C469.791 91.944 469.994 91.9923 470.207 92.031C470.439 92.0697 470.661 92.089 470.874 92.089C471.86 92.089 472.662 91.799 473.281 91.219C473.9 90.6583 474.383 89.943 474.731 89.073L475.166 88.029L468.583 73.906H470.99L474.441 81.707C474.712 82.3257 474.992 82.9927 475.282 83.708C475.591 84.404 475.891 85.1 476.181 85.796H476.297C476.548 85.1193 476.8 84.433 477.051 83.737C477.322 83.0217 477.573 82.345 477.805 81.707L480.879 73.906H483.141L476.935 89.16C476.587 90.088 476.152 90.9193 475.63 91.654C475.108 92.408 474.46 92.9977 473.687 93.423C472.933 93.8483 472.024 94.061 470.961 94.061ZM511.103 88V75.849H504.549V73.906H513.481V88H511.103ZM512.031 70.948C511.49 70.948 511.036 70.7837 510.668 70.455C510.301 70.107 510.117 69.6527 510.117 69.092C510.117 68.5313 510.301 68.0867 510.668 67.758C511.036 67.41 511.49 67.236 512.031 67.236C512.573 67.236 513.027 67.41 513.394 67.758C513.762 68.0867 513.945 68.5313 513.945 69.092C513.945 69.6527 513.762 70.107 513.394 70.455C513.027 70.7837 512.573 70.948 512.031 70.948ZM522.025 88V73.906H523.997L524.2 76.313H524.316C525.051 75.5203 525.843 74.863 526.694 74.341C527.545 73.819 528.521 73.558 529.623 73.558C531.286 73.558 532.513 74.0413 533.306 75.008C534.099 75.9747 534.495 77.386 534.495 79.242V88H532.117V79.561C532.117 78.227 531.866 77.241 531.363 76.603C530.86 75.9457 530.029 75.617 528.869 75.617C528.038 75.617 527.293 75.8297 526.636 76.255C525.979 76.6803 525.234 77.3183 524.403 78.169V88H522.025ZM563.385 88.348C562.689 88.348 561.945 88.1837 561.152 87.855C560.379 87.507 559.664 87.0333 559.006 86.434H558.919L558.716 88H556.802V67.352H559.18V72.978L559.093 75.704H559.18C559.818 75.0467 560.553 74.5247 561.384 74.138C562.235 73.7513 563.076 73.558 563.907 73.558C565.183 73.558 566.256 73.8577 567.126 74.457C567.996 75.037 568.654 75.8683 569.098 76.951C569.543 78.0143 569.765 79.271 569.765 80.721C569.765 82.3257 569.466 83.6983 568.866 84.839C568.286 85.9797 567.513 86.8497 566.546 87.449C565.58 88.0483 564.526 88.348 563.385 88.348ZM563.008 86.347C563.82 86.347 564.545 86.1247 565.183 85.68C565.841 85.2353 566.353 84.5973 566.72 83.766C567.107 82.9153 567.3 81.91 567.3 80.75C567.3 79.7253 567.165 78.8263 566.894 78.053C566.624 77.2603 566.198 76.6513 565.618 76.226C565.038 75.7813 564.275 75.559 563.327 75.559C562.689 75.559 562.013 75.733 561.297 76.081C560.601 76.4097 559.896 76.9413 559.18 77.676V84.694C559.857 85.2933 560.534 85.7187 561.21 85.97C561.906 86.2213 562.506 86.347 563.008 86.347ZM581.064 88.348C579.653 88.348 578.367 88.058 577.207 87.478C576.066 86.898 575.158 86.057 574.481 84.955C573.804 83.8337 573.466 82.49 573.466 80.924C573.466 79.3967 573.804 78.082 574.481 76.98C575.158 75.878 576.037 75.037 577.12 74.457C578.222 73.8577 579.401 73.558 580.658 73.558C582.011 73.558 583.162 73.8383 584.109 74.399C585.076 74.9403 585.81 75.704 586.313 76.69C586.835 77.676 587.096 78.836 587.096 80.17C587.096 80.4407 587.086 80.7017 587.067 80.953C587.048 81.2043 587.019 81.4267 586.98 81.62H575.061V79.764H585.559L584.95 80.431C584.95 78.7683 584.563 77.5213 583.79 76.69C583.036 75.8587 582.011 75.443 580.716 75.443C579.846 75.443 579.034 75.6557 578.28 76.081C577.545 76.5063 576.956 77.125 576.511 77.937C576.066 78.749 575.844 79.7447 575.844 80.924C575.844 82.142 576.086 83.157 576.569 83.969C577.052 84.781 577.71 85.3997 578.541 85.825C579.372 86.231 580.31 86.434 581.354 86.434C582.205 86.434 582.968 86.318 583.645 86.086C584.341 85.8347 585.008 85.506 585.646 85.1L586.516 86.666C585.82 87.13 585.018 87.5263 584.109 87.855C583.22 88.1837 582.205 88.348 581.064 88.348ZM598.917 88.348C597.447 88.348 596.123 88.058 594.944 87.478C593.784 86.898 592.865 86.057 592.189 84.955C591.531 83.853 591.203 82.5287 591.203 80.982C591.203 79.3967 591.56 78.053 592.276 76.951C592.991 75.849 593.938 75.008 595.118 74.428C596.316 73.848 597.631 73.558 599.062 73.558C600.222 73.558 601.217 73.761 602.049 74.167C602.899 74.573 603.615 75.0563 604.195 75.617L603.006 77.154C602.426 76.6513 601.826 76.255 601.208 75.965C600.589 75.675 599.903 75.53 599.149 75.53C598.066 75.53 597.109 75.762 596.278 76.226C595.446 76.6707 594.799 77.3087 594.335 78.14C593.89 78.952 593.668 79.8993 593.668 80.982C593.668 82.0453 593.89 82.983 594.335 83.795C594.779 84.607 595.408 85.245 596.22 85.709C597.051 86.1537 598.008 86.376 599.091 86.376C599.961 86.376 600.753 86.202 601.469 85.854C602.203 85.506 602.861 85.0903 603.441 84.607L604.514 86.144C603.74 86.84 602.87 87.3813 601.904 87.768C600.956 88.1547 599.961 88.348 598.917 88.348ZM614.971 88.348C613.734 88.348 612.584 88.058 611.52 87.478C610.476 86.898 609.626 86.057 608.968 84.955C608.33 83.853 608.011 82.5287 608.011 80.982C608.011 79.3967 608.33 78.053 608.968 76.951C609.626 75.849 610.476 75.008 611.52 74.428C612.584 73.848 613.734 73.558 614.971 73.558C616.209 73.558 617.349 73.848 618.393 74.428C619.457 75.008 620.307 75.849 620.945 76.951C621.603 78.053 621.931 79.3967 621.931 80.982C621.931 82.5287 621.603 83.853 620.945 84.955C620.307 86.057 619.457 86.898 618.393 87.478C617.349 88.058 616.209 88.348 614.971 88.348ZM614.971 86.376C615.88 86.376 616.673 86.1537 617.349 85.709C618.026 85.245 618.548 84.607 618.915 83.795C619.283 82.983 619.466 82.0453 619.466 80.982C619.466 79.8993 619.283 78.952 618.915 78.14C618.548 77.3087 618.026 76.6707 617.349 76.226C616.673 75.762 615.88 75.53 614.971 75.53C614.063 75.53 613.27 75.762 612.593 76.226C611.936 76.6707 611.414 77.3087 611.027 78.14C610.66 78.952 610.476 79.8993 610.476 80.982C610.476 82.0453 610.66 82.983 611.027 83.795C611.414 84.607 611.936 85.245 612.593 85.709C613.27 86.1537 614.063 86.376 614.971 86.376ZM625.342 88V73.906H627.256L627.459 75.762H627.517C627.884 75.1047 628.31 74.573 628.793 74.167C629.276 73.761 629.924 73.558 630.736 73.558C631.432 73.558 632.002 73.761 632.447 74.167C632.892 74.573 633.211 75.182 633.404 75.994C633.81 75.24 634.255 74.6503 634.738 74.225C635.241 73.7803 635.898 73.558 636.71 73.558C637.696 73.558 638.46 73.935 639.001 74.689C639.562 75.4237 639.842 76.4967 639.842 77.908V88H637.464V78.082C637.464 76.4387 636.961 75.617 635.956 75.617C635.473 75.617 635.067 75.8007 634.738 76.168C634.429 76.516 634.081 77.0573 633.694 77.792V88H631.49V78.082C631.49 77.27 631.374 76.661 631.142 76.255C630.929 75.8297 630.562 75.617 630.04 75.617C629.557 75.617 629.131 75.8007 628.764 76.168C628.416 76.516 628.068 77.0573 627.72 77.792V88H625.342ZM650.213 88V75.849H643.659V73.906H652.591V88H650.213ZM651.141 70.948C650.599 70.948 650.145 70.7837 649.778 70.455C649.41 70.107 649.227 69.6527 649.227 69.092C649.227 68.5313 649.41 68.0867 649.778 67.758C650.145 67.41 650.599 67.236 651.141 67.236C651.682 67.236 652.136 67.41 652.504 67.758C652.871 68.0867 653.055 68.5313 653.055 69.092C653.055 69.6527 652.871 70.107 652.504 70.455C652.136 70.7837 651.682 70.948 651.141 70.948ZM661.135 88V73.906H663.107L663.31 76.313H663.426C664.16 75.5203 664.953 74.863 665.804 74.341C666.654 73.819 667.631 73.558 668.733 73.558C670.395 73.558 671.623 74.0413 672.416 75.008C673.208 75.9747 673.605 77.386 673.605 79.242V88H671.227V79.561C671.227 78.227 670.975 77.241 670.473 76.603C669.97 75.9457 669.139 75.617 667.979 75.617C667.147 75.617 666.403 75.8297 665.746 76.255C665.088 76.6803 664.344 77.3183 663.513 78.169V88H661.135ZM684.41 94.496C683.038 94.496 681.868 94.3413 680.901 94.032C679.935 93.7227 679.19 93.278 678.668 92.698C678.166 92.118 677.914 91.4123 677.914 90.581C677.914 90.0203 678.108 89.4597 678.494 88.899C678.9 88.3577 679.48 87.8743 680.234 87.449V87.333C679.867 87.1203 679.529 86.8303 679.219 86.463C678.929 86.0957 678.784 85.6123 678.784 85.013C678.784 84.5683 678.929 84.114 679.219 83.65C679.509 83.1667 679.925 82.7413 680.466 82.374V82.258C679.983 81.8907 679.567 81.3977 679.219 80.779C678.891 80.1603 678.726 79.4353 678.726 78.604C678.726 77.5793 678.978 76.69 679.48 75.936C680.002 75.182 680.679 74.602 681.51 74.196C682.361 73.7707 683.279 73.558 684.265 73.558C685.058 73.558 685.754 73.674 686.353 73.906H692.182V75.849H688.528C688.857 76.1777 689.137 76.5933 689.369 77.096C689.601 77.5987 689.717 78.1303 689.717 78.691C689.717 79.6963 689.476 80.5663 688.992 81.301C688.509 82.0163 687.852 82.5673 687.02 82.954C686.208 83.3407 685.29 83.534 684.265 83.534C683.898 83.534 683.502 83.4953 683.076 83.418C682.67 83.3213 682.274 83.186 681.887 83.012C681.539 83.2247 681.269 83.4663 681.075 83.737C680.882 84.0077 680.785 84.3073 680.785 84.636C680.785 85.1773 681.037 85.5833 681.539 85.854C682.061 86.1247 682.786 86.26 683.714 86.26H686.875C688.693 86.26 690.036 86.5113 690.906 87.014C691.796 87.5167 692.24 88.3673 692.24 89.566C692.24 90.436 691.921 91.248 691.283 92.002C690.645 92.756 689.737 93.3553 688.557 93.8C687.397 94.264 686.015 94.496 684.41 94.496ZM684.265 81.939C684.865 81.939 685.406 81.8037 685.889 81.533C686.392 81.2623 686.788 80.8757 687.078 80.373C687.368 79.8703 687.513 79.2807 687.513 78.604C687.513 77.9467 687.368 77.3763 687.078 76.893C686.788 76.3903 686.392 76.0037 685.889 75.733C685.406 75.443 684.865 75.298 684.265 75.298C683.685 75.298 683.144 75.443 682.641 75.733C682.158 76.0037 681.762 76.3903 681.452 76.893C681.162 77.3763 681.017 77.9467 681.017 78.604C681.017 79.2807 681.162 79.8703 681.452 80.373C681.762 80.8757 682.158 81.2623 682.641 81.533C683.144 81.8037 683.685 81.939 684.265 81.939ZM684.584 92.756C685.686 92.756 686.634 92.6207 687.426 92.35C688.219 92.0793 688.828 91.7313 689.253 91.306C689.679 90.8807 689.891 90.4263 689.891 89.943C689.891 89.2663 689.621 88.812 689.079 88.58C688.557 88.348 687.755 88.232 686.672 88.232H683.917C683.511 88.232 683.125 88.2127 682.757 88.174C682.409 88.1353 682.081 88.0773 681.771 88C681.114 88.3673 680.65 88.7443 680.379 89.131C680.109 89.537 679.973 89.943 679.973 90.349C679.973 91.0837 680.36 91.6637 681.133 92.089C681.926 92.5337 683.076 92.756 684.584 92.756ZM717.738 88.348C716.868 88.348 716.065 88.1933 715.331 87.884C714.596 87.5553 714.016 87.0913 713.591 86.492C713.165 85.8927 712.953 85.1773 712.953 84.346C712.953 82.7607 713.745 81.562 715.331 80.75C716.916 79.9187 719.526 79.358 723.161 79.068C723.141 78.43 723.006 77.8403 722.755 77.299C722.523 76.7577 722.136 76.3323 721.595 76.023C721.053 75.6943 720.328 75.53 719.42 75.53C718.82 75.53 718.221 75.617 717.622 75.791C717.042 75.9457 716.481 76.1583 715.94 76.429C715.418 76.6803 714.934 76.9413 714.49 77.212L713.562 75.588C714.026 75.2787 714.586 74.9693 715.244 74.66C715.92 74.3313 716.645 74.0703 717.419 73.877C718.192 73.6643 718.994 73.558 719.826 73.558C721.121 73.558 722.184 73.7997 723.016 74.283C723.866 74.7663 724.495 75.443 724.901 76.313C725.326 77.1637 725.539 78.1787 725.539 79.358V88H723.596L723.393 86.086H723.306C722.532 86.7047 721.662 87.2363 720.696 87.681C719.729 88.1257 718.743 88.348 717.738 88.348ZM718.376 86.434C719.188 86.434 719.99 86.2503 720.783 85.883C721.575 85.5157 722.368 85.0033 723.161 84.346V80.634C721.15 80.808 719.565 81.0497 718.405 81.359C717.264 81.6683 716.452 82.0647 715.969 82.548C715.505 83.012 715.273 83.5533 715.273 84.172C715.273 84.694 715.418 85.129 715.708 85.477C715.998 85.8057 716.375 86.0473 716.839 86.202C717.322 86.3567 717.834 86.434 718.376 86.434Z" fill="white"/>
<path d="M748.223 88L752.051 68.86H763.071L762.897 69.614H752.747L751.123 77.792H759.591L759.417 78.546H751.007L749.093 88H748.223ZM766.134 88L768.918 74.138H769.614L768.86 78.314H768.976C769.517 77.56 770.126 76.8447 770.803 76.168C771.499 75.472 772.243 74.9017 773.036 74.457C773.848 74.0123 774.698 73.79 775.588 73.79C776.206 73.79 776.738 73.8577 777.183 73.993C777.647 74.1283 778.062 74.3313 778.43 74.602L777.966 75.298C777.598 75.0273 777.221 74.8437 776.835 74.747C776.448 74.6503 776.003 74.602 775.501 74.602C774.302 74.602 773.113 75.095 771.934 76.081C770.774 77.067 769.652 78.3333 768.57 79.88L766.946 88H766.134ZM787.292 88.348C786.132 88.348 785.137 88.0967 784.305 87.594C783.493 87.072 782.865 86.3663 782.42 85.477C781.995 84.5683 781.782 83.534 781.782 82.374C781.782 81.1753 781.985 80.0637 782.391 79.039C782.817 77.995 783.387 77.0863 784.102 76.313C784.837 75.5203 785.678 74.9017 786.625 74.457C787.592 74.0123 788.607 73.79 789.67 73.79C790.83 73.79 791.816 74.051 792.628 74.573C793.46 75.0757 794.088 75.7813 794.513 76.69C794.958 77.5793 795.18 78.604 795.18 79.764C795.18 80.9433 794.968 82.055 794.542 83.099C794.136 84.143 793.566 85.0613 792.831 85.854C792.116 86.6273 791.285 87.2363 790.337 87.681C789.39 88.1257 788.375 88.348 787.292 88.348ZM787.35 87.594C788.278 87.594 789.158 87.391 789.989 86.985C790.84 86.579 791.594 86.028 792.251 85.332C792.909 84.6167 793.421 83.795 793.788 82.867C794.175 81.939 794.368 80.9627 794.368 79.938C794.368 78.314 793.953 77.009 793.121 76.023C792.29 75.037 791.12 74.544 789.612 74.544C788.684 74.544 787.795 74.747 786.944 75.153C786.113 75.559 785.369 76.1197 784.711 76.835C784.054 77.531 783.532 78.343 783.145 79.271C782.778 80.199 782.594 81.1753 782.594 82.2C782.594 83.824 783.01 85.129 783.841 86.115C784.673 87.101 785.842 87.594 787.35 87.594ZM799.055 88L801.839 74.138H802.535L802.013 77.328H802.129C802.767 76.7093 803.434 76.1293 804.13 75.588C804.826 75.0467 805.57 74.6117 806.363 74.283C807.175 73.9543 808.064 73.79 809.031 73.79C810.307 73.79 811.216 74.109 811.757 74.747C812.298 75.385 812.569 76.1873 812.569 77.154C812.569 77.618 812.54 78.0433 812.482 78.43C812.443 78.7973 812.376 79.184 812.279 79.59L810.597 88H809.785L811.467 79.648C811.564 79.2033 811.631 78.7973 811.67 78.43C811.728 78.0627 811.757 77.676 811.757 77.27C811.757 76.4 811.515 75.733 811.032 75.269C810.549 74.7857 809.843 74.544 808.915 74.544C807.697 74.544 806.498 74.9113 805.319 75.646C804.159 76.3613 802.98 77.3473 801.781 78.604L799.867 88H799.055ZM823.81 88.348C822.514 88.348 821.548 88 820.91 87.304C820.291 86.5887 819.982 85.68 819.982 84.578C819.982 84.2493 820.001 83.94 820.04 83.65C820.098 83.36 820.156 83.07 820.214 82.78L821.838 74.892H817.488L817.604 74.254L822.012 74.138L823.056 69.498H823.752L822.824 74.138H830.422L830.248 74.892H822.65L820.968 83.012C820.91 83.2633 820.861 83.5147 820.823 83.766C820.803 83.998 820.794 84.23 820.794 84.462C820.794 85.4867 821.064 86.2697 821.606 86.811C822.166 87.333 822.92 87.594 823.868 87.594C824.66 87.594 825.385 87.507 826.043 87.333C826.719 87.1397 827.328 86.898 827.87 86.608L828.218 87.246C827.638 87.594 826.971 87.8647 826.217 88.058C825.482 88.2513 824.68 88.348 823.81 88.348ZM835.195 78.807V78.053H846.853V78.807H835.195ZM857.601 88.348C856.402 88.348 855.378 88.116 854.527 87.652C853.676 87.1687 853.029 86.492 852.584 85.622C852.139 84.7327 851.917 83.6887 851.917 82.49C851.917 81.2333 852.12 80.083 852.526 79.039C852.951 77.9757 853.522 77.0573 854.237 76.284C854.972 75.4913 855.803 74.8823 856.731 74.457C857.678 74.0123 858.664 73.79 859.689 73.79C861.313 73.79 862.55 74.2927 863.401 75.298C864.252 76.3033 864.677 77.5503 864.677 79.039C864.677 79.4643 864.638 79.8607 864.561 80.228C864.503 80.576 864.445 80.8273 864.387 80.982H852.613L852.787 80.228H864.445L863.691 80.402C863.749 80.17 863.788 79.9283 863.807 79.677C863.846 79.4257 863.865 79.184 863.865 78.952C863.865 77.618 863.478 76.5547 862.705 75.762C861.951 74.95 860.907 74.544 859.573 74.544C858.722 74.544 857.891 74.747 857.079 75.153C856.267 75.559 855.532 76.1197 854.875 76.835C854.218 77.5503 853.696 78.3913 853.309 79.358C852.922 80.3053 852.729 81.33 852.729 82.432C852.729 83.4373 852.922 84.3363 853.309 85.129C853.696 85.9023 854.256 86.5113 854.991 86.956C855.726 87.3813 856.615 87.594 857.659 87.594C858.684 87.594 859.641 87.4007 860.53 87.014C861.439 86.608 862.222 86.1053 862.879 85.506L863.343 86.144C862.744 86.6853 861.932 87.188 860.907 87.652C859.902 88.116 858.8 88.348 857.601 88.348ZM868.61 88L871.394 74.138H872.09L871.568 77.328H871.684C872.322 76.7093 872.989 76.1293 873.685 75.588C874.381 75.0467 875.125 74.6117 875.918 74.283C876.73 73.9543 877.619 73.79 878.586 73.79C879.862 73.79 880.77 74.109 881.312 74.747C881.853 75.385 882.124 76.1873 882.124 77.154C882.124 77.618 882.095 78.0433 882.037 78.43C881.998 78.7973 881.93 79.184 881.834 79.59L880.152 88H879.34L881.022 79.648C881.118 79.2033 881.186 78.7973 881.225 78.43C881.283 78.0627 881.312 77.676 881.312 77.27C881.312 76.4 881.07 75.733 880.587 75.269C880.103 74.7857 879.398 74.544 878.47 74.544C877.252 74.544 876.053 74.9113 874.874 75.646C873.714 76.3613 872.534 77.3473 871.336 78.604L869.422 88H868.61ZM891.334 88.348C889.865 88.348 888.676 87.9033 887.767 87.014C886.859 86.1247 886.404 84.81 886.404 83.07C886.404 81.852 886.598 80.692 886.984 79.59C887.371 78.4687 887.912 77.473 888.608 76.603C889.304 75.733 890.126 75.0467 891.073 74.544C892.021 74.0413 893.055 73.79 894.176 73.79C895.22 73.79 896.139 74.0027 896.931 74.428C897.724 74.8533 898.333 75.414 898.758 76.11H898.874L899.454 73.326L900.73 67.062H901.542L897.308 88H896.612L896.96 85.738H896.844C896.071 86.492 895.201 87.1203 894.234 87.623C893.287 88.1063 892.32 88.348 891.334 88.348ZM891.392 87.594C892.32 87.594 893.287 87.3233 894.292 86.782C895.298 86.2213 896.264 85.448 897.192 84.462L898.7 77.212C898.062 76.2453 897.357 75.559 896.583 75.153C895.81 74.747 894.988 74.544 894.118 74.544C893.132 74.544 892.214 74.7857 891.363 75.269C890.532 75.733 889.807 76.3613 889.188 77.154C888.57 77.9467 888.086 78.8457 887.738 79.851C887.39 80.837 887.216 81.852 887.216 82.896C887.216 84.4813 887.593 85.6607 888.347 86.434C889.101 87.2073 890.116 87.594 891.392 87.594ZM926.112 88.348C924.642 88.348 923.453 87.9033 922.545 87.014C921.636 86.1247 921.182 84.81 921.182 83.07C921.182 81.852 921.375 80.692 921.762 79.59C922.148 78.4687 922.69 77.473 923.386 76.603C924.082 75.733 924.903 75.0467 925.851 74.544C926.798 74.0413 927.832 73.79 928.954 73.79C929.998 73.79 930.916 74.0027 931.709 74.428C932.501 74.8533 933.11 75.414 933.536 76.11H933.652L934.232 73.326L935.508 67.062H936.32L932.086 88H931.39L931.738 85.738H931.622C930.848 86.492 929.978 87.1203 929.012 87.623C928.064 88.1063 927.098 88.348 926.112 88.348ZM926.17 87.594C927.098 87.594 928.064 87.3233 929.07 86.782C930.075 86.2213 931.042 85.448 931.97 84.462L933.478 77.212C932.84 76.2453 932.134 75.559 931.361 75.153C930.587 74.747 929.766 74.544 928.896 74.544C927.91 74.544 926.991 74.7857 926.141 75.269C925.309 75.733 924.584 76.3613 923.966 77.154C923.347 77.9467 922.864 78.8457 922.516 79.851C922.168 80.837 921.994 81.852 921.994 82.896C921.994 84.4813 922.371 85.6607 923.125 86.434C923.879 87.2073 924.894 87.594 926.17 87.594ZM944.544 88.348C943.346 88.348 942.321 88.116 941.47 87.652C940.62 87.1687 939.972 86.492 939.527 85.622C939.083 84.7327 938.86 83.6887 938.86 82.49C938.86 81.2333 939.063 80.083 939.469 79.039C939.895 77.9757 940.465 77.0573 941.18 76.284C941.915 75.4913 942.746 74.8823 943.674 74.457C944.622 74.0123 945.608 73.79 946.632 73.79C948.256 73.79 949.494 74.2927 950.344 75.298C951.195 76.3033 951.62 77.5503 951.62 79.039C951.62 79.4643 951.582 79.8607 951.504 80.228C951.446 80.576 951.388 80.8273 951.33 80.982H939.556L939.73 80.228H951.388L950.634 80.402C950.692 80.17 950.731 79.9283 950.75 79.677C950.789 79.4257 950.808 79.184 950.808 78.952C950.808 77.618 950.422 76.5547 949.648 75.762C948.894 74.95 947.85 74.544 946.516 74.544C945.666 74.544 944.834 74.747 944.022 75.153C943.21 75.559 942.476 76.1197 941.818 76.835C941.161 77.5503 940.639 78.3913 940.252 79.358C939.866 80.3053 939.672 81.33 939.672 82.432C939.672 83.4373 939.866 84.3363 940.252 85.129C940.639 85.9023 941.2 86.5113 941.934 86.956C942.669 87.3813 943.558 87.594 944.602 87.594C945.627 87.594 946.584 87.4007 947.473 87.014C948.382 86.608 949.165 86.1053 949.822 85.506L950.286 86.144C949.687 86.6853 948.875 87.188 947.85 87.652C946.845 88.116 945.743 88.348 944.544 88.348ZM960.599 88L956.945 74.138H957.757L960.135 83.244C960.309 83.9013 960.483 84.5683 960.657 85.245C960.831 85.9217 961.005 86.5693 961.179 87.188H961.295C961.643 86.5693 962.03 85.9313 962.455 85.274C962.88 84.5973 963.325 83.9013 963.789 83.186L969.531 74.138H970.459L961.585 88H960.599ZM979.322 88.348C978.123 88.348 977.098 88.116 976.248 87.652C975.397 87.1687 974.749 86.492 974.305 85.622C973.86 84.7327 973.638 83.6887 973.638 82.49C973.638 81.2333 973.841 80.083 974.247 79.039C974.672 77.9757 975.242 77.0573 975.958 76.284C976.692 75.4913 977.524 74.8823 978.452 74.457C979.399 74.0123 980.385 73.79 981.41 73.79C983.034 73.79 984.271 74.2927 985.122 75.298C985.972 76.3033 986.398 77.5503 986.398 79.039C986.398 79.4643 986.359 79.8607 986.282 80.228C986.224 80.576 986.166 80.8273 986.108 80.982H974.334L974.508 80.228H986.166L985.412 80.402C985.47 80.17 985.508 79.9283 985.528 79.677C985.566 79.4257 985.586 79.184 985.586 78.952C985.586 77.618 985.199 76.5547 984.426 75.762C983.672 74.95 982.628 74.544 981.294 74.544C980.443 74.544 979.612 74.747 978.8 75.153C977.988 75.559 977.253 76.1197 976.596 76.835C975.938 77.5503 975.416 78.3913 975.03 79.358C974.643 80.3053 974.45 81.33 974.45 82.432C974.45 83.4373 974.643 84.3363 975.03 85.129C975.416 85.9023 975.977 86.5113 976.712 86.956C977.446 87.3813 978.336 87.594 979.38 87.594C980.404 87.594 981.361 87.4007 982.251 87.014C983.159 86.608 983.942 86.1053 984.6 85.506L985.064 86.144C984.464 86.6853 983.652 87.188 982.628 87.652C981.622 88.116 980.52 88.348 979.322 88.348ZM998.218 88.348C997.29 88.348 996.517 88.0967 995.898 87.594C995.28 87.072 994.97 86.2793 994.97 85.216C994.97 85.0033 994.98 84.7907 994.999 84.578C995.038 84.3653 995.086 84.1333 995.144 83.882L998.392 67.816H993.23L993.404 67.062H999.32L996.014 83.65C995.956 83.9013 995.908 84.1527 995.869 84.404C995.85 84.6553 995.84 84.8873 995.84 85.1C995.84 85.97 996.063 86.608 996.507 87.014C996.952 87.4007 997.561 87.594 998.334 87.594C998.837 87.594 999.34 87.5263 999.842 87.391C1000.34 87.2363 1000.87 87.014 1001.41 86.724L1001.73 87.42C1001.19 87.71 1000.62 87.9323 1000.02 88.087C999.436 88.261 998.837 88.348 998.218 88.348ZM1013.34 88.348C1012.18 88.348 1011.19 88.0967 1010.36 87.594C1009.55 87.072 1008.92 86.3663 1008.47 85.477C1008.05 84.5683 1007.83 83.534 1007.83 82.374C1007.83 81.1753 1008.04 80.0637 1008.44 79.039C1008.87 77.995 1009.44 77.0863 1010.15 76.313C1010.89 75.5203 1011.73 74.9017 1012.68 74.457C1013.64 74.0123 1014.66 73.79 1015.72 73.79C1016.88 73.79 1017.87 74.051 1018.68 74.573C1019.51 75.0757 1020.14 75.7813 1020.57 76.69C1021.01 77.5793 1021.23 78.604 1021.23 79.764C1021.23 80.9433 1021.02 82.055 1020.59 83.099C1020.19 84.143 1019.62 85.0613 1018.88 85.854C1018.17 86.6273 1017.34 87.2363 1016.39 87.681C1015.44 88.1257 1014.43 88.348 1013.34 88.348ZM1013.4 87.594C1014.33 87.594 1015.21 87.391 1016.04 86.985C1016.89 86.579 1017.65 86.028 1018.3 85.332C1018.96 84.6167 1019.47 83.795 1019.84 82.867C1020.23 81.939 1020.42 80.9627 1020.42 79.938C1020.42 78.314 1020.01 77.009 1019.17 76.023C1018.34 75.037 1017.17 74.544 1015.66 74.544C1014.74 74.544 1013.85 74.747 1013 75.153C1012.17 75.559 1011.42 76.1197 1010.76 76.835C1010.11 77.531 1009.58 78.343 1009.2 79.271C1008.83 80.199 1008.65 81.1753 1008.65 82.2C1008.65 83.824 1009.06 85.129 1009.89 86.115C1010.73 87.101 1011.89 87.594 1013.4 87.594ZM1023.83 94.438L1027.89 74.138H1028.59L1028.18 76.458H1028.3C1029.05 75.7813 1029.9 75.1723 1030.85 74.631C1031.82 74.0703 1032.82 73.79 1033.87 73.79C1035.35 73.79 1036.54 74.2733 1037.43 75.24C1038.34 76.1873 1038.8 77.56 1038.8 79.358C1038.8 81.0207 1038.47 82.5383 1037.81 83.911C1037.15 85.2643 1036.24 86.347 1035.08 87.159C1033.92 87.9517 1032.57 88.348 1031.02 88.348C1030.04 88.348 1029.14 88.1257 1028.33 87.681C1027.53 87.2363 1026.89 86.6853 1026.38 86.028H1026.27L1025.63 89.218L1024.64 94.438H1023.83ZM1031.08 87.594C1032.11 87.594 1033.03 87.3813 1033.87 86.956C1034.72 86.5113 1035.44 85.912 1036.04 85.158C1036.66 84.404 1037.13 83.5437 1037.46 82.577C1037.81 81.6103 1037.98 80.5953 1037.98 79.532C1037.98 77.8693 1037.61 76.6223 1036.85 75.791C1036.1 74.9597 1035.08 74.544 1033.81 74.544C1032.94 74.544 1031.98 74.834 1030.94 75.414C1029.89 75.9747 1028.92 76.69 1028.01 77.56L1026.5 85.042C1027.18 85.9893 1027.9 86.6563 1028.67 87.043C1029.45 87.4103 1030.25 87.594 1031.08 87.594ZM1048.88 88.348C1047.68 88.348 1046.65 88.116 1045.8 87.652C1044.95 87.1687 1044.3 86.492 1043.86 85.622C1043.41 84.7327 1043.19 83.6887 1043.19 82.49C1043.19 81.2333 1043.4 80.083 1043.8 79.039C1044.23 77.9757 1044.8 77.0573 1045.51 76.284C1046.25 75.4913 1047.08 74.8823 1048.01 74.457C1048.95 74.0123 1049.94 73.79 1050.96 73.79C1052.59 73.79 1053.83 74.2927 1054.68 75.298C1055.53 76.3033 1055.95 77.5503 1055.95 79.039C1055.95 79.4643 1055.91 79.8607 1055.84 80.228C1055.78 80.576 1055.72 80.8273 1055.66 80.982H1043.89L1044.06 80.228H1055.72L1054.97 80.402C1055.02 80.17 1055.06 79.9283 1055.08 79.677C1055.12 79.4257 1055.14 79.184 1055.14 78.952C1055.14 77.618 1054.75 76.5547 1053.98 75.762C1053.23 74.95 1052.18 74.544 1050.85 74.544C1050 74.544 1049.17 74.747 1048.35 75.153C1047.54 75.559 1046.81 76.1197 1046.15 76.835C1045.49 77.5503 1044.97 78.3913 1044.58 79.358C1044.2 80.3053 1044 81.33 1044 82.432C1044 83.4373 1044.2 84.3363 1044.58 85.129C1044.97 85.9023 1045.53 86.5113 1046.27 86.956C1047 87.3813 1047.89 87.594 1048.93 87.594C1049.96 87.594 1050.92 87.4007 1051.81 87.014C1052.71 86.608 1053.5 86.1053 1054.15 85.506L1054.62 86.144C1054.02 86.6853 1053.21 87.188 1052.18 87.652C1051.18 88.116 1050.07 88.348 1048.88 88.348ZM1061.74 88L1064.52 74.138H1065.22L1064.47 78.314H1064.58C1065.12 77.56 1065.73 76.8447 1066.41 76.168C1067.11 75.472 1067.85 74.9017 1068.64 74.457C1069.45 74.0123 1070.31 73.79 1071.19 73.79C1071.81 73.79 1072.35 73.8577 1072.79 73.993C1073.25 74.1283 1073.67 74.3313 1074.04 74.602L1073.57 75.298C1073.21 75.0273 1072.83 74.8437 1072.44 74.747C1072.06 74.6503 1071.61 74.602 1071.11 74.602C1069.91 74.602 1068.72 75.095 1067.54 76.081C1066.38 77.067 1065.26 78.3333 1064.18 79.88L1062.55 88H1061.74Z" fill="#BC8DEB"/>
<path d="M114.11 200.42C112.337 200.42 110.738 200.07 109.315 199.37C107.915 198.67 106.807 197.655 105.99 196.325C105.197 194.995 104.8 193.397 104.8 191.53C104.8 189.617 105.232 187.995 106.095 186.665C106.958 185.335 108.102 184.32 109.525 183.62C110.972 182.92 112.558 182.57 114.285 182.57C115.685 182.57 116.887 182.815 117.89 183.305C118.917 183.795 119.78 184.378 120.48 185.055L119.045 186.91C118.345 186.303 117.622 185.825 116.875 185.475C116.128 185.125 115.3 184.95 114.39 184.95C113.083 184.95 111.928 185.23 110.925 185.79C109.922 186.327 109.14 187.097 108.58 188.1C108.043 189.08 107.775 190.223 107.775 191.53C107.775 192.813 108.043 193.945 108.58 194.925C109.117 195.905 109.875 196.675 110.855 197.235C111.858 197.772 113.013 198.04 114.32 198.04C115.37 198.04 116.327 197.83 117.19 197.41C118.077 196.99 118.87 196.488 119.57 195.905L120.865 197.76C119.932 198.6 118.882 199.253 117.715 199.72C116.572 200.187 115.37 200.42 114.11 200.42ZM131.596 200.42C129.566 200.42 128.073 199.837 127.116 198.67C126.16 197.503 125.681 195.8 125.681 193.56V182.99H128.586V193.175C128.586 194.785 128.878 195.987 129.461 196.78C130.068 197.55 131.083 197.935 132.506 197.935C133.486 197.935 134.373 197.69 135.166 197.2C135.983 196.687 136.858 195.882 137.791 194.785V182.99H140.661V200H138.316L138.071 197.025H137.931C137.068 198.005 136.123 198.822 135.096 199.475C134.07 200.105 132.903 200.42 131.596 200.42ZM149.083 200V182.99H151.463L151.708 187.015H151.813C152.699 185.638 153.796 184.553 155.103 183.76C156.409 182.967 157.844 182.57 159.408 182.57C160.038 182.57 160.621 182.628 161.158 182.745C161.718 182.838 162.254 183.013 162.768 183.27L162.103 185.755C161.519 185.545 161.018 185.393 160.598 185.3C160.178 185.207 159.629 185.16 158.953 185.16C157.669 185.16 156.433 185.533 155.243 186.28C154.076 187.003 152.979 188.252 151.953 190.025V200H149.083ZM170.069 200V182.99H172.449L172.694 187.015H172.799C173.686 185.638 174.782 184.553 176.089 183.76C177.396 182.967 178.831 182.57 180.394 182.57C181.024 182.57 181.607 182.628 182.144 182.745C182.704 182.838 183.241 183.013 183.754 183.27L183.089 185.755C182.506 185.545 182.004 185.393 181.584 185.3C181.164 185.207 180.616 185.16 179.939 185.16C178.656 185.16 177.419 185.533 176.229 186.28C175.062 187.003 173.966 188.252 172.939 190.025V200H170.069ZM197.495 200.42C195.792 200.42 194.24 200.07 192.84 199.37C191.464 198.67 190.367 197.655 189.55 196.325C188.734 194.972 188.325 193.35 188.325 191.46C188.325 189.617 188.734 188.03 189.55 186.7C190.367 185.37 191.429 184.355 192.735 183.655C194.065 182.932 195.489 182.57 197.005 182.57C198.639 182.57 200.027 182.908 201.17 183.585C202.337 184.238 203.224 185.16 203.83 186.35C204.46 187.54 204.775 188.94 204.775 190.55C204.775 190.877 204.764 191.192 204.74 191.495C204.717 191.798 204.682 192.067 204.635 192.3H190.25V190.06H202.92L202.185 190.865C202.185 188.858 201.719 187.353 200.785 186.35C199.875 185.347 198.639 184.845 197.075 184.845C196.025 184.845 195.045 185.102 194.135 185.615C193.249 186.128 192.537 186.875 192 187.855C191.464 188.835 191.195 190.037 191.195 191.46C191.195 192.93 191.487 194.155 192.07 195.135C192.654 196.115 193.447 196.862 194.45 197.375C195.454 197.865 196.585 198.11 197.845 198.11C198.872 198.11 199.794 197.97 200.61 197.69C201.45 197.387 202.255 196.99 203.025 196.5L204.075 198.39C203.235 198.95 202.267 199.428 201.17 199.825C200.097 200.222 198.872 200.42 197.495 200.42ZM210.187 200V182.99H212.567L212.812 185.895H212.952C213.838 184.938 214.795 184.145 215.822 183.515C216.848 182.885 218.027 182.57 219.357 182.57C221.363 182.57 222.845 183.153 223.802 184.32C224.758 185.487 225.237 187.19 225.237 189.43V200H222.367V189.815C222.367 188.205 222.063 187.015 221.457 186.245C220.85 185.452 219.847 185.055 218.447 185.055C217.443 185.055 216.545 185.312 215.752 185.825C214.958 186.338 214.06 187.108 213.057 188.135V200H210.187ZM241.708 200.42C240.051 200.42 238.745 200.128 237.788 199.545C236.831 198.938 236.143 198.11 235.723 197.06C235.326 196.01 235.128 194.785 235.128 193.385V185.335H230.333V183.165L235.233 182.99L235.618 177.53H237.998V182.99H246.363V185.335H237.998V193.42C237.998 194.423 238.126 195.275 238.383 195.975C238.64 196.675 239.083 197.2 239.713 197.55C240.343 197.9 241.206 198.075 242.303 198.075C243.12 198.075 243.855 198.005 244.508 197.865C245.161 197.725 245.791 197.538 246.398 197.305L247.028 199.405C246.258 199.685 245.441 199.918 244.578 200.105C243.738 200.315 242.781 200.42 241.708 200.42ZM263.114 200.42C261.318 200.42 259.941 199.907 258.984 198.88C258.028 197.83 257.549 196.302 257.549 194.295V177.425H251.739V175.08H260.419V194.505C260.419 195.742 260.723 196.64 261.329 197.2C261.936 197.76 262.741 198.04 263.744 198.04C264.234 198.04 264.736 197.982 265.249 197.865C265.763 197.725 266.334 197.515 266.964 197.235L267.699 199.405C266.929 199.685 266.206 199.918 265.529 200.105C264.853 200.315 264.048 200.42 263.114 200.42ZM274.476 207.315C274.102 207.315 273.706 207.28 273.286 207.21C272.889 207.14 272.539 207.058 272.236 206.965L272.831 204.69C273.064 204.76 273.309 204.818 273.566 204.865C273.846 204.912 274.114 204.935 274.371 204.935C275.561 204.935 276.529 204.585 277.276 203.885C278.022 203.208 278.606 202.345 279.026 201.295L279.551 200.035L271.606 182.99H274.511L278.676 192.405C279.002 193.152 279.341 193.957 279.691 194.82C280.064 195.66 280.426 196.5 280.776 197.34H280.916C281.219 196.523 281.522 195.695 281.826 194.855C282.152 193.992 282.456 193.175 282.736 192.405L286.446 182.99H289.176L281.686 201.4C281.266 202.52 280.741 203.523 280.111 204.41C279.481 205.32 278.699 206.032 277.766 206.545C276.856 207.058 275.759 207.315 274.476 207.315ZM323.798 205.04C322.422 205.04 321.115 204.748 319.878 204.165C318.642 203.582 317.557 202.707 316.623 201.54C315.69 200.373 314.943 198.927 314.383 197.2C313.847 195.473 313.578 193.49 313.578 191.25C313.578 188.263 314.033 185.778 314.943 183.795C315.877 181.788 317.113 180.283 318.653 179.28C320.217 178.277 321.955 177.775 323.868 177.775C325.478 177.775 326.808 178.137 327.858 178.86C328.908 179.583 329.69 180.575 330.203 181.835C330.717 183.095 330.973 184.518 330.973 186.105V196.5H329.223L328.978 194.47H328.838C328.325 195.123 327.648 195.695 326.808 196.185C325.992 196.675 325.128 196.92 324.218 196.92C323.402 196.92 322.643 196.733 321.943 196.36C321.267 195.987 320.718 195.462 320.298 194.785C319.902 194.085 319.703 193.268 319.703 192.335C319.703 191.145 320.053 190.153 320.753 189.36C321.477 188.567 322.527 187.925 323.903 187.435C325.28 186.945 326.96 186.583 328.943 186.35V185.86C328.943 184.74 328.757 183.713 328.383 182.78C328.033 181.847 327.473 181.1 326.703 180.54C325.957 179.98 324.965 179.7 323.728 179.7C322.678 179.7 321.675 179.945 320.718 180.435C319.762 180.925 318.91 181.66 318.163 182.64C317.417 183.597 316.833 184.81 316.413 186.28C315.993 187.727 315.783 189.418 315.783 191.355C315.783 193.852 316.133 195.987 316.833 197.76C317.557 199.51 318.525 200.84 319.738 201.75C320.975 202.66 322.352 203.115 323.868 203.115C324.918 203.115 325.828 202.975 326.598 202.695C327.392 202.438 328.127 202.053 328.803 201.54L329.783 203.115C328.873 203.722 327.928 204.188 326.948 204.515C325.992 204.865 324.942 205.04 323.798 205.04ZM324.813 194.89C325.467 194.89 326.12 194.703 326.773 194.33C327.427 193.933 328.08 193.373 328.733 192.65V188.24C326.307 188.59 324.58 189.08 323.553 189.71C322.527 190.34 322.013 191.192 322.013 192.265C322.013 193.082 322.27 193.723 322.783 194.19C323.297 194.657 323.973 194.89 324.813 194.89Z" fill="white"/>
<path d="M340.62 200L338.1 176.9H339.08L340.55 190.865C340.69 192.148 340.83 193.443 340.97 194.75C341.11 196.057 341.25 197.363 341.39 198.67H341.53C341.973 197.83 342.428 196.967 342.895 196.08C343.385 195.193 343.863 194.318 344.33 193.455C344.82 192.568 345.286 191.717 345.73 190.9L353.36 176.9H354.445L341.81 200H340.62ZM362.446 200.42C361.046 200.42 359.844 200.117 358.841 199.51C357.861 198.88 357.103 198.028 356.566 196.955C356.053 195.858 355.796 194.61 355.796 193.21C355.796 191.763 356.041 190.422 356.531 189.185C357.044 187.925 357.733 186.828 358.596 185.895C359.483 184.938 360.498 184.192 361.641 183.655C362.808 183.118 364.033 182.85 365.316 182.85C366.716 182.85 367.906 183.165 368.886 183.795C369.889 184.402 370.648 185.253 371.161 186.35C371.698 187.423 371.966 188.66 371.966 190.06C371.966 191.483 371.709 192.825 371.196 194.085C370.706 195.345 370.018 196.453 369.131 197.41C368.268 198.343 367.264 199.078 366.121 199.615C364.978 200.152 363.753 200.42 362.446 200.42ZM362.516 199.51C363.636 199.51 364.698 199.265 365.701 198.775C366.728 198.285 367.638 197.62 368.431 196.78C369.224 195.917 369.843 194.925 370.286 193.805C370.753 192.685 370.986 191.507 370.986 190.27C370.986 188.31 370.484 186.735 369.481 185.545C368.478 184.355 367.066 183.76 365.246 183.76C364.126 183.76 363.053 184.005 362.026 184.495C361.023 184.985 360.124 185.662 359.331 186.525C358.538 187.365 357.908 188.345 357.441 189.465C356.998 190.585 356.776 191.763 356.776 193C356.776 194.96 357.278 196.535 358.281 197.725C359.284 198.915 360.696 199.51 362.516 199.51ZM378.882 200L382.242 183.27H383.082L382.172 188.31H382.312C382.966 187.4 383.701 186.537 384.517 185.72C385.357 184.88 386.256 184.192 387.212 183.655C388.192 183.118 389.219 182.85 390.292 182.85C391.039 182.85 391.681 182.932 392.217 183.095C392.777 183.258 393.279 183.503 393.722 183.83L393.162 184.67C392.719 184.343 392.264 184.122 391.797 184.005C391.331 183.888 390.794 183.83 390.187 183.83C388.741 183.83 387.306 184.425 385.882 185.615C384.482 186.805 383.129 188.333 381.822 190.2L379.862 200H378.882ZM406.519 200.42C404.955 200.42 403.789 200 403.019 199.16C402.272 198.297 401.899 197.2 401.899 195.87C401.899 195.473 401.922 195.1 401.969 194.75C402.039 194.4 402.109 194.05 402.179 193.7L404.139 184.18H398.889L399.029 183.41L404.349 183.27L405.609 177.67H406.449L405.329 183.27H414.499L414.289 184.18H405.119L403.089 193.98C403.019 194.283 402.96 194.587 402.914 194.89C402.89 195.17 402.879 195.45 402.879 195.73C402.879 196.967 403.205 197.912 403.859 198.565C404.535 199.195 405.445 199.51 406.589 199.51C407.545 199.51 408.42 199.405 409.214 199.195C410.03 198.962 410.765 198.67 411.419 198.32L411.839 199.09C411.139 199.51 410.334 199.837 409.424 200.07C408.537 200.303 407.569 200.42 406.519 200.42ZM426.315 200.42C424.868 200.42 423.632 200.14 422.605 199.58C421.578 198.997 420.797 198.18 420.26 197.13C419.723 196.057 419.455 194.797 419.455 193.35C419.455 191.833 419.7 190.445 420.19 189.185C420.703 187.902 421.392 186.793 422.255 185.86C423.142 184.903 424.145 184.168 425.265 183.655C426.408 183.118 427.598 182.85 428.835 182.85C430.795 182.85 432.288 183.457 433.315 184.67C434.342 185.883 434.855 187.388 434.855 189.185C434.855 189.698 434.808 190.177 434.715 190.62C434.645 191.04 434.575 191.343 434.505 191.53H420.295L420.505 190.62H434.575L433.665 190.83C433.735 190.55 433.782 190.258 433.805 189.955C433.852 189.652 433.875 189.36 433.875 189.08C433.875 187.47 433.408 186.187 432.475 185.23C431.565 184.25 430.305 183.76 428.695 183.76C427.668 183.76 426.665 184.005 425.685 184.495C424.705 184.985 423.818 185.662 423.025 186.525C422.232 187.388 421.602 188.403 421.135 189.57C420.668 190.713 420.435 191.95 420.435 193.28C420.435 194.493 420.668 195.578 421.135 196.535C421.602 197.468 422.278 198.203 423.165 198.74C424.052 199.253 425.125 199.51 426.385 199.51C427.622 199.51 428.777 199.277 429.85 198.81C430.947 198.32 431.892 197.713 432.685 196.99L433.245 197.76C432.522 198.413 431.542 199.02 430.305 199.58C429.092 200.14 427.762 200.42 426.315 200.42ZM438.831 200L447.266 191.25L442.646 183.27H443.801L446.321 187.82C446.555 188.217 446.823 188.707 447.126 189.29C447.43 189.873 447.675 190.352 447.861 190.725H448.001C448.328 190.352 448.748 189.873 449.261 189.29C449.798 188.683 450.241 188.193 450.591 187.82L454.966 183.27H456.331L448.386 191.425L453.531 200H452.341L449.541 195.135C449.285 194.692 448.981 194.167 448.631 193.56C448.305 192.93 448.025 192.428 447.791 192.055H447.616C447.406 192.288 447.138 192.58 446.811 192.93C446.508 193.28 446.193 193.63 445.866 193.98C445.54 194.33 445.271 194.622 445.061 194.855L440.196 200H438.831Z" fill="#BC8DEB"/>
<path d="M82.2929 193.707C82.6834 194.098 83.3166 194.098 83.7071 193.707L90.0711 187.343C90.4616 186.953 90.4616 186.319 90.0711 185.929C89.6805 185.538 89.0474 185.538 88.6568 185.929L83 191.586L77.3431 185.929C76.9526 185.538 76.3194 185.538 75.9289 185.929C75.5384 186.319 75.5384 186.953 75.9289 187.343L82.2929 193.707ZM82 4L82 193L84 193L84 4L82 4Z" fill="white"/>
</svg>
