<svg width="46" height="46" viewBox="0 0 46 46" fill="none" xmlns="http://www.w3.org/2000/svg">
<path d="M15.5659 35L15.6259 34.4C17.8059 32.56 19.6659 30.95 21.2059 29.57C22.7659 28.19 24.0359 26.96 25.0159 25.88C26.0159 24.78 26.7459 23.76 27.2059 22.82C27.6859 21.88 27.9259 20.92 27.9259 19.94C27.9259 18.8 27.6159 17.9 26.9959 17.24C26.3959 16.56 25.4059 16.22 24.0259 16.22C22.9259 16.22 21.8959 16.5 20.9359 17.06C19.9759 17.62 19.1259 18.3 18.3859 19.1L17.7859 18.53C18.6059 17.67 19.5559 16.94 20.6359 16.34C21.7159 15.74 22.9259 15.44 24.2659 15.44C25.7059 15.44 26.8159 15.84 27.5959 16.64C28.3759 17.44 28.7659 18.52 28.7659 19.88C28.7659 20.98 28.5059 22.05 27.9859 23.09C27.4859 24.11 26.7359 25.18 25.7359 26.3C24.7359 27.42 23.4959 28.63 22.0159 29.93C20.5359 31.23 18.8259 32.7 16.8859 34.34C17.6659 34.28 18.2959 34.25 18.7759 34.25C19.2559 34.23 19.8059 34.22 20.4259 34.22H28.5859L28.4659 35H15.5659Z" fill="white"/>
<circle cx="23" cy="23" r="22.85" stroke="white" stroke-width="0.3"/>
</svg>
