<svg width="46" height="46" viewBox="0 0 46 46" fill="none" xmlns="http://www.w3.org/2000/svg">
<path d="M21.5059 35.36C20.3659 35.36 19.3959 35.2 18.5959 34.88C17.7959 34.54 17.1159 34.13 16.5559 33.65C16.0159 33.17 15.5659 32.7 15.2059 32.24L15.8659 31.76C16.1859 32.18 16.5859 32.61 17.0659 33.05C17.5659 33.47 18.1859 33.83 18.9259 34.13C19.6659 34.43 20.5459 34.58 21.5659 34.58C22.6259 34.58 23.5959 34.39 24.4759 34.01C25.3759 33.63 26.0959 33.08 26.6359 32.36C27.1759 31.64 27.4459 30.76 27.4459 29.72C27.4459 28.86 27.2059 28.11 26.7259 27.47C26.2659 26.83 25.5359 26.33 24.5359 25.97C23.5359 25.59 22.2259 25.38 20.6059 25.34L20.7259 24.56C22.4859 24.56 23.9259 24.34 25.0459 23.9C26.1659 23.46 26.9959 22.87 27.5359 22.13C28.0759 21.37 28.3459 20.54 28.3459 19.64C28.3459 18.52 27.9659 17.67 27.2059 17.09C26.4659 16.51 25.5059 16.22 24.3259 16.22C23.1659 16.22 22.1259 16.44 21.2059 16.88C20.3059 17.32 19.5059 17.86 18.8059 18.5L18.2659 17.9C18.9659 17.26 19.8359 16.69 20.8759 16.19C21.9359 15.69 23.1059 15.44 24.3859 15.44C25.3059 15.44 26.1259 15.59 26.8459 15.89C27.5659 16.19 28.1359 16.64 28.5559 17.24C28.9759 17.84 29.1859 18.58 29.1859 19.46C29.1859 20.86 28.7359 22.05 27.8359 23.03C26.9559 23.99 25.5959 24.63 23.7559 24.95V25.04C25.2359 25.28 26.3559 25.78 27.1159 26.54C27.8959 27.3 28.2859 28.3 28.2859 29.54C28.2859 30.8 27.9859 31.86 27.3859 32.72C26.7859 33.58 25.9759 34.24 24.9559 34.7C23.9359 35.14 22.7859 35.36 21.5059 35.36Z" fill="white"/>
<circle cx="23" cy="23" r="22.85" stroke="white" stroke-width="0.3"/>
</svg>
