<svg width="37" height="36" viewBox="0 0 37 36" fill="none" xmlns="http://www.w3.org/2000/svg">
<path d="M35.7346 19.9273C35.3756 16.6583 35.0006 14.9983 34.0006 12.9983C34.0006 12.9983 37.0006 3.99829 35.0006 0.298294C34.3266 -0.947706 27.5966 1.98629 25.0006 3.99829C25.0006 3.99829 21.0006 3.00029 18.0006 3.00029C15.0006 3.00029 11.0006 3.99829 11.0006 3.99829C8.40461 1.98629 1.67461 -0.947706 1.00061 0.298294C-0.99939 3.99829 2.00061 12.9983 2.00061 12.9983C1.00061 14.9983 0.62561 16.6583 0.26661 19.9273C-0.12839 23.5113 0.65761 26.3683 1.00061 26.9983C1.39061 27.7143 3.36761 30.0233 6.00061 31.9983C10.0006 34.9983 16.0006 35.9983 18.0006 35.9983C20.0006 35.9983 26.0006 34.9983 30.0006 31.9983C32.6336 30.0233 34.6106 27.7143 35.0006 26.9983C35.3436 26.3683 36.1296 23.5113 35.7346 19.9273V19.9273Z" fill="#FFCC4D"/>
<path d="M18.001 19.4983C21.001 19.4983 21.001 19.9983 21.001 20.9983C21.001 21.9983 19.501 23.9983 18.001 23.9983C16.501 23.9983 15.001 21.9983 15.001 20.9983C15.001 19.9983 15 19.4983 18.001 19.4983Z" fill="#E75A70"/>
<path d="M2.0007 2.99832C2.4477 1.65632 7.6407 3.99832 8.6407 4.99832C8.6407 4.99832 4.0007 7.99832 3.0007 10.9983C3.0007 10.9983 1.0007 5.99832 2.0007 2.99832ZM34.0007 2.99832C33.5537 1.65632 28.3607 3.99832 27.3607 4.99832C27.3607 4.99832 32.0007 7.99832 33.0007 10.9983C33.0007 10.9983 35.0007 5.99832 34.0007 2.99832Z" fill="#F18F26"/>
<path d="M4.93555 5.60129C4.93555 4.18729 11.0015 6.99829 10.0015 7.99829C9.00155 8.99829 8.00155 9.60129 7.00155 10.6013C6.00155 11.6013 4.93555 6.60129 4.93555 5.60129ZM31.0675 5.60129C31.0675 4.18729 25.0015 6.99829 26.0015 7.99829C27.0015 8.99829 28.0015 9.60129 29.0015 10.6013C30.0015 11.6013 31.0675 6.60129 31.0675 5.60129V5.60129Z" fill="#FFCC4D"/>
<path d="M0.702072 24.9983C0.554072 24.9983 0.408072 24.9333 0.309072 24.8083C0.138072 24.5913 0.175072 24.2773 0.392072 24.1063C0.554072 23.9793 4.41207 20.9863 11.0401 21.5013C11.3151 21.5213 11.5211 21.7623 11.5001 22.0373C11.4791 22.3123 11.2431 22.5383 10.9631 22.4973C4.73007 22.0233 1.04807 24.8633 1.01207 24.8923C0.919072 24.9633 0.810072 24.9983 0.702072 24.9983V24.9983ZM9.57007 20.3353C9.52107 20.3353 9.47007 20.3283 9.42107 20.3133C4.63107 18.8163 0.684072 19.9663 0.644072 19.9773C0.379072 20.0583 0.101072 19.9073 0.0210722 19.6423C-0.0579278 19.3773 0.0920722 19.0993 0.356072 19.0203C0.529072 18.9683 4.64207 17.7733 9.71807 19.3583C9.98207 19.4413 10.1291 19.7213 10.0461 19.9853C9.98007 20.1983 9.78307 20.3353 9.57007 20.3353V20.3353ZM35.3001 24.9983C35.4481 24.9983 35.5941 24.9333 35.6931 24.8083C35.8641 24.5913 35.8271 24.2773 35.6101 24.1063C35.4481 23.9793 31.5901 20.9863 24.9621 21.5013C24.6871 21.5213 24.4811 21.7623 24.5021 22.0373C24.5231 22.3123 24.7591 22.5383 25.0391 22.4973C31.2721 22.0233 34.9541 24.8633 34.9901 24.8923C35.0831 24.9633 35.1921 24.9983 35.3001 24.9983V24.9983ZM26.4321 20.3353C26.4811 20.3353 26.5321 20.3283 26.5811 20.3133C31.3711 18.8163 35.3181 19.9663 35.3581 19.9773C35.6231 20.0583 35.9011 19.9073 35.9811 19.6423C36.0601 19.3773 35.9101 19.0993 35.6461 19.0203C35.4731 18.9683 31.3601 17.7733 26.2841 19.3583C26.0201 19.4413 25.8731 19.7213 25.9561 19.9853C26.0211 20.1983 26.2191 20.3353 26.4321 20.3353V20.3353Z" fill="#FEE7B8"/>
<path d="M28.0242 24.1893C27.0472 24.3813 23.0012 25.9983 18.0012 25.9983C13.0012 25.9983 8.95518 24.3813 7.97818 24.1893C7.00118 23.9983 6.88618 25.2623 7.44318 27.1303C8.00118 28.9983 11.0012 32.9983 18.0012 32.9983C25.0012 32.9983 28.0012 28.9983 28.5592 27.1303C29.1162 25.2623 29.0012 23.9983 28.0242 24.1893Z" fill="#292F33"/>
<path d="M8.00098 24.9983C8.00098 24.9983 13.001 26.9983 18.001 26.9983C23.001 26.9983 28.001 24.9983 28.001 24.9983C28.001 24.9983 27.501 27.9983 26.501 27.9983C25.501 27.9983 25.001 26.9983 25.001 26.9983C25.001 26.9983 21.001 28.9983 18.001 28.9983C15.001 28.9983 11.001 26.9983 11.001 26.9983C11.001 26.9983 10.501 27.9983 9.50098 27.9983C8.50098 27.9983 8.00098 24.9983 8.00098 24.9983Z" fill="#F5F8FA"/>
<path d="M12.001 17.9983C13.1055 17.9983 14.001 16.4313 14.001 14.4983C14.001 12.5653 13.1055 10.9983 12.001 10.9983C10.8964 10.9983 10.001 12.5653 10.001 14.4983C10.001 16.4313 10.8964 17.9983 12.001 17.9983Z" fill="#292F33"/>
<path d="M24.001 17.9983C25.1055 17.9983 26.001 16.4313 26.001 14.4983C26.001 12.5653 25.1055 10.9983 24.001 10.9983C22.8964 10.9983 22.001 12.5653 22.001 14.4983C22.001 16.4313 22.8964 17.9983 24.001 17.9983Z" fill="#292F33"/>
</svg>
