<svg width="772" height="78" viewBox="0 0 772 78" fill="none" xmlns="http://www.w3.org/2000/svg">
<path d="M1.325 26V23.515H7.03V5.49H1.325V3.04H15.675V5.49H9.97V23.515H15.675V26H1.325ZM54.1827 26.42C52.386 26.42 51.0093 25.9067 50.0527 24.88C49.096 23.83 48.6177 22.3017 48.6177 20.295V3.425H42.8077V1.08H51.4877V20.505C51.4877 21.7417 51.791 22.64 52.3977 23.2C53.0043 23.76 53.8093 24.04 54.8127 24.04C55.3027 24.04 55.8043 23.9817 56.3177 23.865C56.831 23.725 57.4027 23.515 58.0327 23.235L58.7677 25.405C57.9977 25.685 57.2743 25.9183 56.5977 26.105C55.921 26.315 55.116 26.42 54.1827 26.42ZM71.459 26.42C69.9657 26.42 68.5773 26.07 67.294 25.37C66.034 24.67 65.0073 23.655 64.214 22.325C63.444 20.995 63.059 19.3967 63.059 17.53C63.059 15.6167 63.444 13.995 64.214 12.665C65.0073 11.335 66.034 10.32 67.294 9.62C68.5773 8.92 69.9657 8.57 71.459 8.57C72.9523 8.57 74.329 8.92 75.589 9.62C76.8723 10.32 77.899 11.335 78.669 12.665C79.4623 13.995 79.859 15.6167 79.859 17.53C79.859 19.3967 79.4623 20.995 78.669 22.325C77.899 23.655 76.8723 24.67 75.589 25.37C74.329 26.07 72.9523 26.42 71.459 26.42ZM71.459 24.04C72.5557 24.04 73.5123 23.7717 74.329 23.235C75.1457 22.675 75.7757 21.905 76.219 20.925C76.6623 19.945 76.884 18.8133 76.884 17.53C76.884 16.2233 76.6623 15.08 76.219 14.1C75.7757 13.0967 75.1457 12.3267 74.329 11.79C73.5123 11.23 72.5557 10.95 71.459 10.95C70.3623 10.95 69.4057 11.23 68.589 11.79C67.7957 12.3267 67.1657 13.0967 66.699 14.1C66.2557 15.08 66.034 16.2233 66.034 17.53C66.034 18.8133 66.2557 19.945 66.699 20.925C67.1657 21.905 67.7957 22.675 68.589 23.235C69.4057 23.7717 70.3623 24.04 71.459 24.04ZM90.9053 26L83.7303 8.99H86.6353L90.5553 18.65C90.9053 19.49 91.232 20.33 91.5353 21.17C91.862 22.01 92.177 22.8383 92.4803 23.655H92.6203C92.9236 22.8383 93.227 22.01 93.5303 21.17C93.8336 20.33 94.1486 19.49 94.4753 18.65L98.3953 8.99H101.16L94.1253 26H90.9053ZM114.482 26.42C112.778 26.42 111.227 26.07 109.827 25.37C108.45 24.67 107.353 23.655 106.537 22.325C105.72 20.9717 105.312 19.35 105.312 17.46C105.312 15.6167 105.72 14.03 106.537 12.7C107.353 11.37 108.415 10.355 109.722 9.655C111.052 8.93167 112.475 8.57 113.992 8.57C115.625 8.57 117.013 8.90833 118.157 9.585C119.323 10.2383 120.21 11.16 120.817 12.35C121.447 13.54 121.762 14.94 121.762 16.55C121.762 16.8767 121.75 17.1917 121.727 17.495C121.703 17.7983 121.668 18.0667 121.622 18.3H107.237V16.06H119.907L119.172 16.865C119.172 14.8583 118.705 13.3533 117.772 12.35C116.862 11.3467 115.625 10.845 114.062 10.845C113.012 10.845 112.032 11.1017 111.122 11.615C110.235 12.1283 109.523 12.875 108.987 13.855C108.45 14.835 108.182 16.0367 108.182 17.46C108.182 18.93 108.473 20.155 109.057 21.135C109.64 22.115 110.433 22.8617 111.437 23.375C112.44 23.865 113.572 24.11 114.832 24.11C115.858 24.11 116.78 23.97 117.597 23.69C118.437 23.3867 119.242 22.99 120.012 22.5L121.062 24.39C120.222 24.95 119.253 25.4283 118.157 25.825C117.083 26.2217 115.858 26.42 114.482 26.42ZM158.694 26.42C157.038 26.42 155.731 26.1283 154.774 25.545C153.818 24.9383 153.129 24.11 152.709 23.06C152.313 22.01 152.114 20.785 152.114 19.385V11.335H147.319V9.165L152.219 8.99L152.604 3.53H154.984V8.99H163.349V11.335H154.984V19.42C154.984 20.4233 155.113 21.275 155.369 21.975C155.626 22.675 156.069 23.2 156.699 23.55C157.329 23.9 158.193 24.075 159.289 24.075C160.106 24.075 160.841 24.005 161.494 23.865C162.148 23.725 162.778 23.5383 163.384 23.305L164.014 25.405C163.244 25.685 162.428 25.9183 161.564 26.105C160.724 26.315 159.768 26.42 158.694 26.42ZM176.391 26.42C174.897 26.42 173.509 26.07 172.226 25.37C170.966 24.67 169.939 23.655 169.146 22.325C168.376 20.995 167.991 19.3967 167.991 17.53C167.991 15.6167 168.376 13.995 169.146 12.665C169.939 11.335 170.966 10.32 172.226 9.62C173.509 8.92 174.897 8.57 176.391 8.57C177.884 8.57 179.261 8.92 180.521 9.62C181.804 10.32 182.831 11.335 183.601 12.665C184.394 13.995 184.791 15.6167 184.791 17.53C184.791 19.3967 184.394 20.995 183.601 22.325C182.831 23.655 181.804 24.67 180.521 25.37C179.261 26.07 177.884 26.42 176.391 26.42ZM176.391 24.04C177.487 24.04 178.444 23.7717 179.261 23.235C180.077 22.675 180.707 21.905 181.151 20.925C181.594 19.945 181.816 18.8133 181.816 17.53C181.816 16.2233 181.594 15.08 181.151 14.1C180.707 13.0967 180.077 12.3267 179.261 11.79C178.444 11.23 177.487 10.95 176.391 10.95C175.294 10.95 174.337 11.23 173.521 11.79C172.727 12.3267 172.097 13.0967 171.631 14.1C171.187 15.08 170.966 16.2233 170.966 17.53C170.966 18.8133 171.187 19.945 171.631 20.925C172.097 21.905 172.727 22.675 173.521 23.235C174.337 23.7717 175.294 24.04 176.391 24.04ZM216.333 26V7.555C216.333 6.17833 216.578 4.97667 217.068 3.95C217.582 2.9 218.34 2.095 219.343 1.535C220.347 0.951665 221.63 0.659999 223.193 0.659999C224.033 0.659999 224.85 0.741666 225.643 0.905C226.46 1.045 227.277 1.29 228.093 1.64L227.428 3.81C226.728 3.48333 226.075 3.27333 225.468 3.18C224.885 3.06333 224.22 3.005 223.473 3.005C221.957 3.005 220.86 3.40167 220.183 4.195C219.507 4.98833 219.168 6.07333 219.168 7.45V26H216.333ZM211.468 11.335V9.165L216.438 8.99H226.308V11.335H211.468ZM239.91 26V11.335H232V8.99H242.78V26H239.91ZM241.03 5.42C240.376 5.42 239.828 5.22167 239.385 4.825C238.941 4.405 238.72 3.85667 238.72 3.18C238.72 2.50333 238.941 1.96667 239.385 1.57C239.828 1.15 240.376 0.939999 241.03 0.939999C241.683 0.939999 242.231 1.15 242.675 1.57C243.118 1.96667 243.34 2.50333 243.34 3.18C243.34 3.85667 243.118 4.405 242.675 4.825C242.231 5.22167 241.683 5.42 241.03 5.42ZM253.091 26V8.99H255.471L255.716 11.895H255.856C256.743 10.9383 257.699 10.145 258.726 9.515C259.753 8.885 260.931 8.57 262.261 8.57C264.268 8.57 265.749 9.15333 266.706 10.32C267.663 11.4867 268.141 13.19 268.141 15.43V26H265.271V15.815C265.271 14.205 264.968 13.015 264.361 12.245C263.754 11.4517 262.751 11.055 261.351 11.055C260.348 11.055 259.449 11.3117 258.656 11.825C257.863 12.3383 256.964 13.1083 255.961 14.135V26H253.091ZM280.307 26.42C278.091 26.42 276.306 25.65 274.952 24.11C273.599 22.5467 272.922 20.3533 272.922 17.53C272.922 15.6867 273.284 14.1 274.007 12.77C274.754 11.4167 275.711 10.3783 276.877 9.655C278.067 8.93167 279.327 8.57 280.657 8.57C281.661 8.57 282.571 8.76833 283.387 9.165C284.227 9.53833 285.009 10.075 285.732 10.775H285.837L285.697 7.625V1.08H288.567V26H286.187L285.942 23.76H285.837C285.161 24.4833 284.332 25.1133 283.352 25.65C282.396 26.1633 281.381 26.42 280.307 26.42ZM280.902 24.005C281.742 24.005 282.559 23.795 283.352 23.375C284.146 22.9317 284.927 22.29 285.697 21.45V12.98C284.927 12.2567 284.169 11.7433 283.422 11.44C282.699 11.1367 281.964 10.985 281.217 10.985C280.237 10.985 279.339 11.265 278.522 11.825C277.729 12.3617 277.087 13.12 276.597 14.1C276.131 15.0567 275.897 16.1883 275.897 17.495C275.897 19.525 276.341 21.1233 277.227 22.29C278.114 23.4333 279.339 24.005 280.902 24.005ZM321.405 26.42C320.355 26.42 319.387 26.2333 318.5 25.86C317.613 25.4633 316.913 24.9033 316.4 24.18C315.887 23.4567 315.63 22.5933 315.63 21.59C315.63 19.6767 316.587 18.23 318.5 17.25C320.413 16.2467 323.563 15.57 327.95 15.22C327.927 14.45 327.763 13.7383 327.46 13.085C327.18 12.4317 326.713 11.9183 326.06 11.545C325.407 11.1483 324.532 10.95 323.435 10.95C322.712 10.95 321.988 11.055 321.265 11.265C320.565 11.4517 319.888 11.7083 319.235 12.035C318.605 12.3383 318.022 12.6533 317.485 12.98L316.365 11.02C316.925 10.6467 317.602 10.2733 318.395 9.9C319.212 9.50333 320.087 9.18833 321.02 8.955C321.953 8.69833 322.922 8.57 323.925 8.57C325.488 8.57 326.772 8.86167 327.775 9.445C328.802 10.0283 329.56 10.845 330.05 11.895C330.563 12.9217 330.82 14.1467 330.82 15.57V26H328.475L328.23 23.69H328.125C327.192 24.4367 326.142 25.0783 324.975 25.615C323.808 26.1517 322.618 26.42 321.405 26.42ZM322.175 24.11C323.155 24.11 324.123 23.8883 325.08 23.445C326.037 23.0017 326.993 22.3833 327.95 21.59V17.11C325.523 17.32 323.61 17.6117 322.21 17.985C320.833 18.3583 319.853 18.8367 319.27 19.42C318.71 19.98 318.43 20.6333 318.43 21.38C318.43 22.01 318.605 22.535 318.955 22.955C319.305 23.3517 319.76 23.6433 320.32 23.83C320.903 24.0167 321.522 24.11 322.175 24.11ZM358.023 33.175V8.99H360.403L360.648 11.16H360.753C361.546 10.4133 362.456 9.795 363.483 9.305C364.533 8.815 365.583 8.57 366.633 8.57C368.173 8.57 369.456 8.93167 370.483 9.655C371.533 10.355 372.326 11.3583 372.863 12.665C373.399 13.9483 373.668 15.4767 373.668 17.25C373.668 19.1633 373.306 20.8083 372.583 22.185C371.859 23.5617 370.914 24.6117 369.748 25.335C368.581 26.0583 367.309 26.42 365.933 26.42C365.163 26.42 364.311 26.2333 363.378 25.86C362.468 25.4633 361.628 24.915 360.858 24.215H360.753L360.893 27.435V33.175H358.023ZM365.443 24.005C366.446 24.005 367.344 23.7367 368.138 23.2C368.931 22.6633 369.549 21.8933 369.993 20.89C370.459 19.8633 370.693 18.65 370.693 17.25C370.693 16.0133 370.529 14.9283 370.203 13.995C369.876 13.0383 369.363 12.3033 368.663 11.79C367.963 11.2533 367.041 10.985 365.898 10.985C365.128 10.985 364.311 11.195 363.448 11.615C362.608 12.0117 361.756 12.6533 360.893 13.54V22.01C361.709 22.7333 362.526 23.2467 363.343 23.55C364.183 23.8533 364.883 24.005 365.443 24.005ZM380.864 26V8.99H383.244L383.489 13.015H383.594C384.481 11.6383 385.577 10.5533 386.884 9.76C388.191 8.96667 389.626 8.57 391.189 8.57C391.819 8.57 392.402 8.62833 392.939 8.745C393.499 8.83833 394.036 9.01333 394.549 9.27L393.884 11.755C393.301 11.545 392.799 11.3933 392.379 11.3C391.959 11.2067 391.411 11.16 390.734 11.16C389.451 11.16 388.214 11.5333 387.024 12.28C385.857 13.0033 384.761 14.2517 383.734 16.025V26H380.864ZM407.24 26.42C405.747 26.42 404.359 26.07 403.075 25.37C401.815 24.67 400.789 23.655 399.995 22.325C399.225 20.995 398.84 19.3967 398.84 17.53C398.84 15.6167 399.225 13.995 399.995 12.665C400.789 11.335 401.815 10.32 403.075 9.62C404.359 8.92 405.747 8.57 407.24 8.57C408.734 8.57 410.11 8.92 411.37 9.62C412.654 10.32 413.68 11.335 414.45 12.665C415.244 13.995 415.64 15.6167 415.64 17.53C415.64 19.3967 415.244 20.995 414.45 22.325C413.68 23.655 412.654 24.67 411.37 25.37C410.11 26.07 408.734 26.42 407.24 26.42ZM407.24 24.04C408.337 24.04 409.294 23.7717 410.11 23.235C410.927 22.675 411.557 21.905 412 20.925C412.444 19.945 412.665 18.8133 412.665 17.53C412.665 16.2233 412.444 15.08 412 14.1C411.557 13.0967 410.927 12.3267 410.11 11.79C409.294 11.23 408.337 10.95 407.24 10.95C406.144 10.95 405.187 11.23 404.37 11.79C403.577 12.3267 402.947 13.0967 402.48 14.1C402.037 15.08 401.815 16.2233 401.815 17.53C401.815 18.8133 402.037 19.945 402.48 20.925C402.947 21.905 403.577 22.675 404.37 23.235C405.187 23.7717 406.144 24.04 407.24 24.04ZM428.927 26.42C428.087 26.42 427.188 26.2217 426.232 25.825C425.298 25.405 424.435 24.8333 423.642 24.11H423.537L423.292 26H420.982V1.08H423.852V7.87L423.747 11.16H423.852C424.622 10.3667 425.508 9.73667 426.512 9.27C427.538 8.80333 428.553 8.57 429.557 8.57C431.097 8.57 432.392 8.93167 433.442 9.655C434.492 10.355 435.285 11.3583 435.822 12.665C436.358 13.9483 436.627 15.465 436.627 17.215C436.627 19.1517 436.265 20.8083 435.542 22.185C434.842 23.5617 433.908 24.6117 432.742 25.335C431.575 26.0583 430.303 26.42 428.927 26.42ZM428.472 24.005C429.452 24.005 430.327 23.7367 431.097 23.2C431.89 22.6633 432.508 21.8933 432.952 20.89C433.418 19.8633 433.652 18.65 433.652 17.25C433.652 16.0133 433.488 14.9283 433.162 13.995C432.835 13.0383 432.322 12.3033 431.622 11.79C430.922 11.2533 430 10.985 428.857 10.985C428.087 10.985 427.27 11.195 426.407 11.615C425.567 12.0117 424.715 12.6533 423.852 13.54V22.01C424.668 22.7333 425.485 23.2467 426.302 23.55C427.142 23.8533 427.865 24.005 428.472 24.005ZM452.923 26.42C451.126 26.42 449.75 25.9067 448.793 24.88C447.836 23.83 447.358 22.3017 447.358 20.295V3.425H441.548V1.08H450.228V20.505C450.228 21.7417 450.531 22.64 451.138 23.2C451.745 23.76 452.55 24.04 453.553 24.04C454.043 24.04 454.545 23.9817 455.058 23.865C455.571 23.725 456.143 23.515 456.773 23.235L457.508 25.405C456.738 25.685 456.015 25.9183 455.338 26.105C454.661 26.315 453.856 26.42 452.923 26.42ZM471.249 26.42C469.546 26.42 467.994 26.07 466.594 25.37C465.218 24.67 464.121 23.655 463.304 22.325C462.488 20.9717 462.079 19.35 462.079 17.46C462.079 15.6167 462.488 14.03 463.304 12.7C464.121 11.37 465.183 10.355 466.489 9.655C467.819 8.93167 469.243 8.57 470.759 8.57C472.393 8.57 473.781 8.90833 474.924 9.585C476.091 10.2383 476.978 11.16 477.584 12.35C478.214 13.54 478.529 14.94 478.529 16.55C478.529 16.8767 478.518 17.1917 478.494 17.495C478.471 17.7983 478.436 18.0667 478.389 18.3H464.004V16.06H476.674L475.939 16.865C475.939 14.8583 475.473 13.3533 474.539 12.35C473.629 11.3467 472.393 10.845 470.829 10.845C469.779 10.845 468.799 11.1017 467.889 11.615C467.003 12.1283 466.291 12.875 465.754 13.855C465.218 14.835 464.949 16.0367 464.949 17.46C464.949 18.93 465.241 20.155 465.824 21.135C466.408 22.115 467.201 22.8617 468.204 23.375C469.208 23.865 470.339 24.11 471.599 24.11C472.626 24.11 473.548 23.97 474.364 23.69C475.204 23.3867 476.009 22.99 476.779 22.5L477.829 24.39C476.989 24.95 476.021 25.4283 474.924 25.825C473.851 26.2217 472.626 26.42 471.249 26.42ZM482.716 26V8.99H485.026L485.271 11.23H485.341C485.784 10.4367 486.297 9.795 486.881 9.305C487.464 8.815 488.246 8.57 489.226 8.57C490.066 8.57 490.754 8.815 491.291 9.305C491.827 9.795 492.212 10.53 492.446 11.51C492.936 10.6 493.472 9.88833 494.056 9.375C494.662 8.83833 495.456 8.57 496.436 8.57C497.626 8.57 498.547 9.025 499.201 9.935C499.877 10.8217 500.216 12.1167 500.216 13.82V26H497.346V14.03C497.346 12.0467 496.739 11.055 495.526 11.055C494.942 11.055 494.452 11.2767 494.056 11.72C493.682 12.14 493.262 12.7933 492.796 13.68V26H490.136V14.03C490.136 13.05 489.996 12.315 489.716 11.825C489.459 11.3117 489.016 11.055 488.386 11.055C487.802 11.055 487.289 11.2767 486.846 11.72C486.426 12.14 486.006 12.7933 485.586 13.68V26H482.716ZM531.268 26.42C530.218 26.42 529.25 26.2333 528.363 25.86C527.477 25.4633 526.777 24.9033 526.263 24.18C525.75 23.4567 525.493 22.5933 525.493 21.59C525.493 19.6767 526.45 18.23 528.363 17.25C530.277 16.2467 533.427 15.57 537.813 15.22C537.79 14.45 537.627 13.7383 537.323 13.085C537.043 12.4317 536.577 11.9183 535.923 11.545C535.27 11.1483 534.395 10.95 533.298 10.95C532.575 10.95 531.852 11.055 531.128 11.265C530.428 11.4517 529.752 11.7083 529.098 12.035C528.468 12.3383 527.885 12.6533 527.348 12.98L526.228 11.02C526.788 10.6467 527.465 10.2733 528.258 9.9C529.075 9.50333 529.95 9.18833 530.883 8.955C531.817 8.69833 532.785 8.57 533.788 8.57C535.352 8.57 536.635 8.86167 537.638 9.445C538.665 10.0283 539.423 10.845 539.913 11.895C540.427 12.9217 540.683 14.1467 540.683 15.57V26H538.338L538.093 23.69H537.988C537.055 24.4367 536.005 25.0783 534.838 25.615C533.672 26.1517 532.482 26.42 531.268 26.42ZM532.038 24.11C533.018 24.11 533.987 23.8883 534.943 23.445C535.9 23.0017 536.857 22.3833 537.813 21.59V17.11C535.387 17.32 533.473 17.6117 532.073 17.985C530.697 18.3583 529.717 18.8367 529.133 19.42C528.573 19.98 528.293 20.6333 528.293 21.38C528.293 22.01 528.468 22.535 528.818 22.955C529.168 23.3517 529.623 23.6433 530.183 23.83C530.767 24.0167 531.385 24.11 532.038 24.11ZM546.9 26V8.99H549.28L549.525 11.895H549.665C550.551 10.9383 551.508 10.145 552.535 9.515C553.561 8.885 554.74 8.57 556.07 8.57C558.076 8.57 559.558 9.15333 560.515 10.32C561.471 11.4867 561.95 13.19 561.95 15.43V26H559.08V15.815C559.08 14.205 558.776 13.015 558.17 12.245C557.563 11.4517 556.56 11.055 555.16 11.055C554.156 11.055 553.258 11.3117 552.465 11.825C551.671 12.3383 550.773 13.1083 549.77 14.135V26H546.9ZM574.116 26.42C571.899 26.42 570.114 25.65 568.761 24.11C567.408 22.5467 566.731 20.3533 566.731 17.53C566.731 15.6867 567.093 14.1 567.816 12.77C568.563 11.4167 569.519 10.3783 570.686 9.655C571.876 8.93167 573.136 8.57 574.466 8.57C575.469 8.57 576.379 8.76833 577.196 9.165C578.036 9.53833 578.818 10.075 579.541 10.775H579.646L579.506 7.625V1.08H582.376V26H579.996L579.751 23.76H579.646C578.969 24.4833 578.141 25.1133 577.161 25.65C576.204 26.1633 575.189 26.42 574.116 26.42ZM574.711 24.005C575.551 24.005 576.368 23.795 577.161 23.375C577.954 22.9317 578.736 22.29 579.506 21.45V12.98C578.736 12.2567 577.978 11.7433 577.231 11.44C576.508 11.1367 575.773 10.985 575.026 10.985C574.046 10.985 573.148 11.265 572.331 11.825C571.538 12.3617 570.896 13.12 570.406 14.1C569.939 15.0567 569.706 16.1883 569.706 17.495C569.706 19.525 570.149 21.1233 571.036 22.29C571.923 23.4333 573.148 24.005 574.711 24.005ZM609.859 26V1.08H612.729V7.87L612.554 11.895H612.659C613.522 10.9617 614.467 10.18 615.494 9.55C616.52 8.89667 617.699 8.57 619.029 8.57C621.035 8.57 622.517 9.15333 623.474 10.32C624.43 11.4867 624.909 13.19 624.909 15.43V26H622.039V15.815C622.039 14.205 621.735 13.015 621.129 12.245C620.522 11.4517 619.519 11.055 618.119 11.055C617.115 11.055 616.217 11.3117 615.424 11.825C614.63 12.3383 613.732 13.1083 612.729 14.135V26H609.859ZM636.2 26.42C635.15 26.42 634.182 26.2333 633.295 25.86C632.408 25.4633 631.708 24.9033 631.195 24.18C630.682 23.4567 630.425 22.5933 630.425 21.59C630.425 19.6767 631.382 18.23 633.295 17.25C635.208 16.2467 638.358 15.57 642.745 15.22C642.722 14.45 642.558 13.7383 642.255 13.085C641.975 12.4317 641.508 11.9183 640.855 11.545C640.202 11.1483 639.327 10.95 638.23 10.95C637.507 10.95 636.783 11.055 636.06 11.265C635.36 11.4517 634.683 11.7083 634.03 12.035C633.4 12.3383 632.817 12.6533 632.28 12.98L631.16 11.02C631.72 10.6467 632.397 10.2733 633.19 9.9C634.007 9.50333 634.882 9.18833 635.815 8.955C636.748 8.69833 637.717 8.57 638.72 8.57C640.283 8.57 641.567 8.86167 642.57 9.445C643.597 10.0283 644.355 10.845 644.845 11.895C645.358 12.9217 645.615 14.1467 645.615 15.57V26H643.27L643.025 23.69H642.92C641.987 24.4367 640.937 25.0783 639.77 25.615C638.603 26.1517 637.413 26.42 636.2 26.42ZM636.97 24.11C637.95 24.11 638.918 23.8883 639.875 23.445C640.832 23.0017 641.788 22.3833 642.745 21.59V17.11C640.318 17.32 638.405 17.6117 637.005 17.985C635.628 18.3583 634.648 18.8367 634.065 19.42C633.505 19.98 633.225 20.6333 633.225 21.38C633.225 22.01 633.4 22.535 633.75 22.955C634.1 23.3517 634.555 23.6433 635.115 23.83C635.698 24.0167 636.317 24.11 636.97 24.11ZM657.536 26L650.361 8.99H653.266L657.186 18.65C657.536 19.49 657.863 20.33 658.166 21.17C658.493 22.01 658.808 22.8383 659.111 23.655H659.251C659.555 22.8383 659.858 22.01 660.161 21.17C660.465 20.33 660.78 19.49 661.106 18.65L665.026 8.99H667.791L660.756 26H657.536ZM681.113 26.42C679.409 26.42 677.858 26.07 676.458 25.37C675.081 24.67 673.984 23.655 673.168 22.325C672.351 20.9717 671.943 19.35 671.943 17.46C671.943 15.6167 672.351 14.03 673.168 12.7C673.984 11.37 675.046 10.355 676.353 9.655C677.683 8.93167 679.106 8.57 680.623 8.57C682.256 8.57 683.644 8.90833 684.788 9.585C685.954 10.2383 686.841 11.16 687.448 12.35C688.078 13.54 688.393 14.94 688.393 16.55C688.393 16.8767 688.381 17.1917 688.358 17.495C688.334 17.7983 688.299 18.0667 688.253 18.3H673.868V16.06H686.538L685.803 16.865C685.803 14.8583 685.336 13.3533 684.403 12.35C683.493 11.3467 682.256 10.845 680.693 10.845C679.643 10.845 678.663 11.1017 677.753 11.615C676.866 12.1283 676.154 12.875 675.618 13.855C675.081 14.835 674.813 16.0367 674.813 17.46C674.813 18.93 675.104 20.155 675.688 21.135C676.271 22.115 677.064 22.8617 678.068 23.375C679.071 23.865 680.203 24.11 681.463 24.11C682.489 24.11 683.411 23.97 684.228 23.69C685.068 23.3867 685.873 22.99 686.643 22.5L687.693 24.39C686.853 24.95 685.884 25.4283 684.788 25.825C683.714 26.2217 682.489 26.42 681.113 26.42ZM720.005 26V7.555C720.005 6.17833 720.25 4.97667 720.74 3.95C721.253 2.9 722.012 2.095 723.015 1.535C724.018 0.951665 725.302 0.659999 726.865 0.659999C727.705 0.659999 728.522 0.741666 729.315 0.905C730.132 1.045 730.948 1.29 731.765 1.64L731.1 3.81C730.4 3.48333 729.747 3.27333 729.14 3.18C728.557 3.06333 727.892 3.005 727.145 3.005C725.628 3.005 724.532 3.40167 723.855 4.195C723.178 4.98833 722.84 6.07333 722.84 7.45V26H720.005ZM715.14 11.335V9.165L720.11 8.99H729.98V11.335H715.14ZM741.131 26.42C739.101 26.42 737.608 25.8367 736.651 24.67C735.695 23.5033 735.216 21.8 735.216 19.56V8.99H738.121V19.175C738.121 20.785 738.413 21.9867 738.996 22.78C739.603 23.55 740.618 23.935 742.041 23.935C743.021 23.935 743.908 23.69 744.701 23.2C745.518 22.6867 746.393 21.8817 747.326 20.785V8.99H750.196V26H747.851L747.606 23.025H747.466C746.603 24.005 745.658 24.8217 744.631 25.475C743.605 26.105 742.438 26.42 741.131 26.42ZM756.763 26V8.99H759.143L759.388 11.895H759.528C760.414 10.9383 761.371 10.145 762.398 9.515C763.424 8.885 764.603 8.57 765.933 8.57C767.939 8.57 769.421 9.15333 770.378 10.32C771.334 11.4867 771.813 13.19 771.813 15.43V26H768.943V15.815C768.943 14.205 768.639 13.015 768.033 12.245C767.426 11.4517 766.423 11.055 765.023 11.055C764.019 11.055 763.121 11.3117 762.328 11.825C761.534 12.3383 760.636 13.1083 759.633 14.135V26H756.763ZM8.85 70.42C7.19333 70.42 5.64167 70.1517 4.195 69.615C2.74833 69.0783 1.51167 68.46 0.485 67.76L1.815 65.87C2.795 66.57 3.88 67.13 5.07 67.55C6.26 67.97 7.63667 68.18 9.2 68.18C10.6467 68.18 11.72 67.9117 12.42 67.375C13.1433 66.8383 13.505 66.22 13.505 65.52C13.505 65.1933 13.435 64.89 13.295 64.61C13.1783 64.33 12.9333 64.0617 12.56 63.805C12.21 63.5483 11.685 63.3033 10.985 63.07C10.285 62.8367 9.35167 62.6033 8.185 62.37C5.96833 61.9033 4.3 61.2733 3.18 60.48C2.08333 59.6867 1.535 58.66 1.535 57.4C1.535 56.0233 2.13 54.88 3.32 53.97C4.51 53.0367 6.27167 52.57 8.605 52.57C9.91167 52.57 11.1717 52.7917 12.385 53.235C13.5983 53.655 14.625 54.1567 15.465 54.74L14.065 56.595C13.295 56.035 12.42 55.6033 11.44 55.3C10.46 54.9733 9.43333 54.81 8.36 54.81C7.38 54.81 6.59833 54.9267 6.015 55.16C5.455 55.37 5.04667 55.6617 4.79 56.035C4.55667 56.4083 4.44 56.8167 4.44 57.26C4.44 57.9833 4.825 58.555 5.595 58.975C6.38833 59.3717 7.64833 59.745 9.375 60.095C11.265 60.4917 12.7117 60.935 13.715 61.425C14.7417 61.915 15.4417 62.475 15.815 63.105C16.2117 63.735 16.41 64.4817 16.41 65.345C16.41 66.2783 16.1183 67.13 15.535 67.9C14.9517 68.6467 14.1 69.2533 12.98 69.72C11.86 70.1867 10.4833 70.42 8.85 70.42ZM29.4863 70.42C27.993 70.42 26.6047 70.07 25.3213 69.37C24.0613 68.67 23.0347 67.655 22.2413 66.325C21.4713 64.995 21.0863 63.3967 21.0863 61.53C21.0863 59.6167 21.4713 57.995 22.2413 56.665C23.0347 55.335 24.0613 54.32 25.3213 53.62C26.6047 52.92 27.993 52.57 29.4863 52.57C30.9797 52.57 32.3563 52.92 33.6163 53.62C34.8997 54.32 35.9263 55.335 36.6963 56.665C37.4897 57.995 37.8863 59.6167 37.8863 61.53C37.8863 63.3967 37.4897 64.995 36.6963 66.325C35.9263 67.655 34.8997 68.67 33.6163 69.37C32.3563 70.07 30.9797 70.42 29.4863 70.42ZM29.4863 68.04C30.583 68.04 31.5397 67.7717 32.3563 67.235C33.173 66.675 33.803 65.905 34.2463 64.925C34.6897 63.945 34.9113 62.8133 34.9113 61.53C34.9113 60.2233 34.6897 59.08 34.2463 58.1C33.803 57.0967 33.173 56.3267 32.3563 55.79C31.5397 55.23 30.583 54.95 29.4863 54.95C28.3897 54.95 27.433 55.23 26.6163 55.79C25.823 56.3267 25.193 57.0967 24.7263 58.1C24.283 59.08 24.0613 60.2233 24.0613 61.53C24.0613 62.8133 24.283 63.945 24.7263 64.925C25.193 65.905 25.823 66.675 26.6163 67.235C27.433 67.7717 28.3897 68.04 29.4863 68.04ZM54.1827 70.42C52.386 70.42 51.0093 69.9067 50.0527 68.88C49.096 67.83 48.6177 66.3017 48.6177 64.295V47.425H42.8077V45.08H51.4877V64.505C51.4877 65.7417 51.791 66.64 52.3977 67.2C53.0043 67.76 53.8093 68.04 54.8127 68.04C55.3027 68.04 55.8043 67.9817 56.3177 67.865C56.831 67.725 57.4027 67.515 58.0327 67.235L58.7677 69.405C57.9977 69.685 57.2743 69.9183 56.5977 70.105C55.921 70.315 55.116 70.42 54.1827 70.42ZM69.919 70L62.744 52.99H65.649L69.569 62.65C69.919 63.49 70.2457 64.33 70.549 65.17C70.8757 66.01 71.1907 66.8383 71.494 67.655H71.634C71.9373 66.8383 72.2407 66.01 72.544 65.17C72.8473 64.33 73.1623 63.49 73.489 62.65L77.409 52.99H80.174L73.139 70H69.919ZM93.0053 70V55.335H85.0953V52.99H95.8753V70H93.0053ZM94.1253 49.42C93.472 49.42 92.9236 49.2217 92.4803 48.825C92.037 48.405 91.8153 47.8567 91.8153 47.18C91.8153 46.5033 92.037 45.9667 92.4803 45.57C92.9236 45.15 93.472 44.94 94.1253 44.94C94.7786 44.94 95.327 45.15 95.7703 45.57C96.2136 45.9667 96.4353 46.5033 96.4353 47.18C96.4353 47.8567 96.2136 48.405 95.7703 48.825C95.327 49.2217 94.7786 49.42 94.1253 49.42ZM106.187 70V52.99H108.567L108.812 55.895H108.952C109.838 54.9383 110.795 54.145 111.822 53.515C112.848 52.885 114.027 52.57 115.357 52.57C117.363 52.57 118.845 53.1533 119.802 54.32C120.758 55.4867 121.237 57.19 121.237 59.43V70H118.367V59.815C118.367 58.205 118.063 57.015 117.457 56.245C116.85 55.4517 115.847 55.055 114.447 55.055C113.443 55.055 112.545 55.3117 111.752 55.825C110.958 56.3383 110.06 57.1083 109.057 58.135V70H106.187ZM134.278 77.84C132.621 77.84 131.21 77.6533 130.043 77.28C128.876 76.9067 127.978 76.37 127.348 75.67C126.741 74.97 126.438 74.1183 126.438 73.115C126.438 72.4383 126.671 71.7617 127.138 71.085C127.628 70.4317 128.328 69.8483 129.238 69.335V69.195C128.795 68.9383 128.386 68.5883 128.013 68.145C127.663 67.7017 127.488 67.1183 127.488 66.395C127.488 65.8583 127.663 65.31 128.013 64.75C128.363 64.1667 128.865 63.6533 129.518 63.21V63.07C128.935 62.6267 128.433 62.0317 128.013 61.285C127.616 60.5383 127.418 59.6633 127.418 58.66C127.418 57.4233 127.721 56.35 128.328 55.44C128.958 54.53 129.775 53.83 130.778 53.34C131.805 52.8267 132.913 52.57 134.103 52.57C135.06 52.57 135.9 52.71 136.623 52.99H143.658V55.335H139.248C139.645 55.7317 139.983 56.2333 140.263 56.84C140.543 57.4467 140.683 58.0883 140.683 58.765C140.683 59.9783 140.391 61.0283 139.808 61.915C139.225 62.7783 138.431 63.4433 137.428 63.91C136.448 64.3767 135.34 64.61 134.103 64.61C133.66 64.61 133.181 64.5633 132.668 64.47C132.178 64.3533 131.7 64.19 131.233 63.98C130.813 64.2367 130.486 64.5283 130.253 64.855C130.02 65.1817 129.903 65.5433 129.903 65.94C129.903 66.5933 130.206 67.0833 130.813 67.41C131.443 67.7367 132.318 67.9 133.438 67.9H137.253C139.446 67.9 141.068 68.2033 142.118 68.81C143.191 69.4167 143.728 70.4433 143.728 71.89C143.728 72.94 143.343 73.92 142.573 74.83C141.803 75.74 140.706 76.4633 139.283 77C137.883 77.56 136.215 77.84 134.278 77.84ZM134.103 62.685C134.826 62.685 135.48 62.5217 136.063 62.195C136.67 61.8683 137.148 61.4017 137.498 60.795C137.848 60.1883 138.023 59.4767 138.023 58.66C138.023 57.8667 137.848 57.1783 137.498 56.595C137.148 55.9883 136.67 55.5217 136.063 55.195C135.48 54.845 134.826 54.67 134.103 54.67C133.403 54.67 132.75 54.845 132.143 55.195C131.56 55.5217 131.081 55.9883 130.708 56.595C130.358 57.1783 130.183 57.8667 130.183 58.66C130.183 59.4767 130.358 60.1883 130.708 60.795C131.081 61.4017 131.56 61.8683 132.143 62.195C132.75 62.5217 133.403 62.685 134.103 62.685ZM134.488 75.74C135.818 75.74 136.961 75.5767 137.918 75.25C138.875 74.9233 139.61 74.5033 140.123 73.99C140.636 73.4767 140.893 72.9283 140.893 72.345C140.893 71.5283 140.566 70.98 139.913 70.7C139.283 70.42 138.315 70.28 137.008 70.28H133.683C133.193 70.28 132.726 70.2567 132.283 70.21C131.863 70.1633 131.466 70.0933 131.093 70C130.3 70.4433 129.74 70.8983 129.413 71.365C129.086 71.855 128.923 72.345 128.923 72.835C128.923 73.7217 129.39 74.4217 130.323 74.935C131.28 75.4717 132.668 75.74 134.488 75.74ZM176.951 70V55.335H169.041V52.99H179.821V70H176.951ZM178.071 49.42C177.417 49.42 176.869 49.2217 176.426 48.825C175.982 48.405 175.761 47.8567 175.761 47.18C175.761 46.5033 175.982 45.9667 176.426 45.57C176.869 45.15 177.417 44.94 178.071 44.94C178.724 44.94 179.272 45.15 179.716 45.57C180.159 45.9667 180.381 46.5033 180.381 47.18C180.381 47.8567 180.159 48.405 179.716 48.825C179.272 49.2217 178.724 49.42 178.071 49.42ZM200.667 70.42C199.01 70.42 197.704 70.1283 196.747 69.545C195.79 68.9383 195.102 68.11 194.682 67.06C194.285 66.01 194.087 64.785 194.087 63.385V55.335H189.292V53.165L194.192 52.99L194.577 47.53H196.957V52.99H205.322V55.335H196.957V63.42C196.957 64.4233 197.085 65.275 197.342 65.975C197.599 66.675 198.042 67.2 198.672 67.55C199.302 67.9 200.165 68.075 201.262 68.075C202.079 68.075 202.814 68.005 203.467 67.865C204.12 67.725 204.75 67.5383 205.357 67.305L205.987 69.405C205.217 69.685 204.4 69.9183 203.537 70.105C202.697 70.315 201.74 70.42 200.667 70.42ZM218.363 70.42C217.593 70.42 216.928 70.1517 216.368 69.615C215.808 69.055 215.528 68.3433 215.528 67.48C215.528 66.5933 215.808 65.8817 216.368 65.345C216.928 64.785 217.593 64.505 218.363 64.505C219.157 64.505 219.822 64.785 220.358 65.345C220.918 65.8817 221.198 66.5933 221.198 67.48C221.198 68.3433 220.918 69.055 220.358 69.615C219.822 70.1517 219.157 70.42 218.363 70.42Z" fill="white"/>
</svg>
