<svg width="848" height="77" viewBox="0 0 848 77" fill="none" xmlns="http://www.w3.org/2000/svg">
<path d="M1.655 25V2.04H15.76V4.49H4.595V12.26H14.045V14.71H4.595V25H1.655ZM26.9463 25.42C24.9163 25.42 23.423 24.8367 22.4663 23.67C21.5097 22.5033 21.0313 20.8 21.0313 18.56V7.99H23.9363V18.175C23.9363 19.785 24.228 20.9867 24.8113 21.78C25.418 22.55 26.433 22.935 27.8563 22.935C28.8363 22.935 29.723 22.69 30.5163 22.2C31.333 21.6867 32.208 20.8817 33.1413 19.785V7.99H36.0113V25H33.6663L33.4213 22.025H33.2813C32.418 23.005 31.473 23.8217 30.4463 24.475C29.4197 25.105 28.253 25.42 26.9463 25.42ZM42.9277 25V7.99H45.3077L45.5527 10.895H45.6927C46.5793 9.93833 47.536 9.145 48.5627 8.515C49.5893 7.885 50.7677 7.57 52.0977 7.57C54.1043 7.57 55.586 8.15333 56.5427 9.32C57.4993 10.4867 57.9777 12.19 57.9777 14.43V25H55.1077V14.815C55.1077 13.205 54.8043 12.015 54.1977 11.245C53.591 10.4517 52.5877 10.055 51.1877 10.055C50.1843 10.055 49.286 10.3117 48.4927 10.825C47.6993 11.3383 46.801 12.1083 45.7977 13.135V25H42.9277ZM87.0003 25V2.04H101.105V4.49H89.9403V12.26H99.3903V14.71H89.9403V25H87.0003ZM112.292 25.42C111.242 25.42 110.273 25.2333 109.387 24.86C108.5 24.4633 107.8 23.9033 107.287 23.18C106.773 22.4567 106.517 21.5933 106.517 20.59C106.517 18.6767 107.473 17.23 109.387 16.25C111.3 15.2467 114.45 14.57 118.837 14.22C118.813 13.45 118.65 12.7383 118.347 12.085C118.067 11.4317 117.6 10.9183 116.947 10.545C116.293 10.1483 115.418 9.95 114.322 9.95C113.598 9.95 112.875 10.055 112.152 10.265C111.452 10.4517 110.775 10.7083 110.122 11.035C109.492 11.3383 108.908 11.6533 108.372 11.98L107.252 10.02C107.812 9.64667 108.488 9.27333 109.282 8.9C110.098 8.50333 110.973 8.18833 111.907 7.955C112.84 7.69833 113.808 7.57 114.812 7.57C116.375 7.57 117.658 7.86167 118.662 8.445C119.688 9.02833 120.447 9.845 120.937 10.895C121.45 11.9217 121.707 13.1467 121.707 14.57V25H119.362L119.117 22.69H119.012C118.078 23.4367 117.028 24.0783 115.862 24.615C114.695 25.1517 113.505 25.42 112.292 25.42ZM113.062 23.11C114.042 23.11 115.01 22.8883 115.967 22.445C116.923 22.0017 117.88 21.3833 118.837 20.59V16.11C116.41 16.32 114.497 16.6117 113.097 16.985C111.72 17.3583 110.74 17.8367 110.157 18.42C109.597 18.98 109.317 19.6333 109.317 20.38C109.317 21.01 109.492 21.535 109.842 21.955C110.192 22.3517 110.647 22.6433 111.207 22.83C111.79 23.0167 112.408 23.11 113.062 23.11ZM137.128 25.42C135.355 25.42 133.756 25.07 132.333 24.37C130.933 23.67 129.825 22.655 129.008 21.325C128.215 19.995 127.818 18.3967 127.818 16.53C127.818 14.6167 128.25 12.995 129.113 11.665C129.976 10.335 131.12 9.32 132.543 8.62C133.99 7.92 135.576 7.57 137.303 7.57C138.703 7.57 139.905 7.815 140.908 8.305C141.935 8.795 142.798 9.37833 143.498 10.055L142.063 11.91C141.363 11.3033 140.64 10.825 139.893 10.475C139.146 10.125 138.318 9.95 137.408 9.95C136.101 9.95 134.946 10.23 133.943 10.79C132.94 11.3267 132.158 12.0967 131.598 13.1C131.061 14.08 130.793 15.2233 130.793 16.53C130.793 17.8133 131.061 18.945 131.598 19.925C132.135 20.905 132.893 21.675 133.873 22.235C134.876 22.7717 136.031 23.04 137.338 23.04C138.388 23.04 139.345 22.83 140.208 22.41C141.095 21.99 141.888 21.4883 142.588 20.905L143.883 22.76C142.95 23.6 141.9 24.2533 140.733 24.72C139.59 25.1867 138.388 25.42 137.128 25.42ZM160.144 25.42C158.488 25.42 157.181 25.1283 156.224 24.545C155.268 23.9383 154.579 23.11 154.159 22.06C153.763 21.01 153.564 19.785 153.564 18.385V10.335H148.769V8.165L153.669 7.99L154.054 2.53H156.434V7.99H164.799V10.335H156.434V18.42C156.434 19.4233 156.563 20.275 156.819 20.975C157.076 21.675 157.519 22.2 158.149 22.55C158.779 22.9 159.643 23.075 160.739 23.075C161.556 23.075 162.291 23.005 162.944 22.865C163.598 22.725 164.228 22.5383 164.834 22.305L165.464 24.405C164.694 24.685 163.878 24.9183 163.014 25.105C162.174 25.315 161.218 25.42 160.144 25.42ZM178.541 25.42C176.884 25.42 175.332 25.1517 173.886 24.615C172.439 24.0783 171.202 23.46 170.176 22.76L171.506 20.87C172.486 21.57 173.571 22.13 174.761 22.55C175.951 22.97 177.327 23.18 178.891 23.18C180.337 23.18 181.411 22.9117 182.111 22.375C182.834 21.8383 183.196 21.22 183.196 20.52C183.196 20.1933 183.126 19.89 182.986 19.61C182.869 19.33 182.624 19.0617 182.251 18.805C181.901 18.5483 181.376 18.3033 180.676 18.07C179.976 17.8367 179.042 17.6033 177.876 17.37C175.659 16.9033 173.991 16.2733 172.871 15.48C171.774 14.6867 171.226 13.66 171.226 12.4C171.226 11.0233 171.821 9.88 173.011 8.97C174.201 8.03667 175.962 7.57 178.296 7.57C179.602 7.57 180.862 7.79167 182.076 8.235C183.289 8.655 184.316 9.15667 185.156 9.74L183.756 11.595C182.986 11.035 182.111 10.6033 181.131 10.3C180.151 9.97333 179.124 9.81 178.051 9.81C177.071 9.81 176.289 9.92667 175.706 10.16C175.146 10.37 174.737 10.6617 174.481 11.035C174.247 11.4083 174.131 11.8167 174.131 12.26C174.131 12.9833 174.516 13.555 175.286 13.975C176.079 14.3717 177.339 14.745 179.066 15.095C180.956 15.4917 182.402 15.935 183.406 16.425C184.432 16.915 185.132 17.475 185.506 18.105C185.902 18.735 186.101 19.4817 186.101 20.345C186.101 21.2783 185.809 22.13 185.226 22.9C184.642 23.6467 183.791 24.2533 182.671 24.72C181.551 25.1867 180.174 25.42 178.541 25.42ZM218.973 25.42C217.923 25.42 216.955 25.2333 216.068 24.86C215.182 24.4633 214.482 23.9033 213.968 23.18C213.455 22.4567 213.198 21.5933 213.198 20.59C213.198 18.6767 214.155 17.23 216.068 16.25C217.982 15.2467 221.132 14.57 225.518 14.22C225.495 13.45 225.332 12.7383 225.028 12.085C224.748 11.4317 224.282 10.9183 223.628 10.545C222.975 10.1483 222.1 9.95 221.003 9.95C220.28 9.95 219.557 10.055 218.833 10.265C218.133 10.4517 217.457 10.7083 216.803 11.035C216.173 11.3383 215.59 11.6533 215.053 11.98L213.933 10.02C214.493 9.64667 215.17 9.27333 215.963 8.9C216.78 8.50333 217.655 8.18833 218.588 7.955C219.522 7.69833 220.49 7.57 221.493 7.57C223.057 7.57 224.34 7.86167 225.343 8.445C226.37 9.02833 227.128 9.845 227.618 10.895C228.132 11.9217 228.388 13.1467 228.388 14.57V25H226.043L225.798 22.69H225.693C224.76 23.4367 223.71 24.0783 222.543 24.615C221.377 25.1517 220.187 25.42 218.973 25.42ZM219.743 23.11C220.723 23.11 221.692 22.8883 222.648 22.445C223.605 22.0017 224.562 21.3833 225.518 20.59V16.11C223.092 16.32 221.178 16.6117 219.778 16.985C218.402 17.3583 217.422 17.8367 216.838 18.42C216.278 18.98 215.998 19.6333 215.998 20.38C215.998 21.01 216.173 21.535 216.523 21.955C216.873 22.3517 217.328 22.6433 217.888 22.83C218.472 23.0167 219.09 23.11 219.743 23.11ZM242.9 25.42C242.06 25.42 241.161 25.2217 240.205 24.825C239.271 24.405 238.408 23.8333 237.615 23.11H237.51L237.265 25H234.955V0.0799996H237.825V6.87L237.72 10.16H237.825C238.595 9.36667 239.481 8.73667 240.485 8.27C241.511 7.80333 242.526 7.57 243.53 7.57C245.07 7.57 246.365 7.93167 247.415 8.655C248.465 9.355 249.258 10.3583 249.795 11.665C250.331 12.9483 250.6 14.465 250.6 16.215C250.6 18.1517 250.238 19.8083 249.515 21.185C248.815 22.5617 247.881 23.6117 246.715 24.335C245.548 25.0583 244.276 25.42 242.9 25.42ZM242.445 23.005C243.425 23.005 244.3 22.7367 245.07 22.2C245.863 21.6633 246.481 20.8933 246.925 19.89C247.391 18.8633 247.625 17.65 247.625 16.25C247.625 15.0133 247.461 13.9283 247.135 12.995C246.808 12.0383 246.295 11.3033 245.595 10.79C244.895 10.2533 243.973 9.985 242.83 9.985C242.06 9.985 241.243 10.195 240.38 10.615C239.54 11.0117 238.688 11.6533 237.825 12.54V21.01C238.641 21.7333 239.458 22.2467 240.275 22.55C241.115 22.8533 241.838 23.005 242.445 23.005ZM263.536 25.42C262.043 25.42 260.654 25.07 259.371 24.37C258.111 23.67 257.084 22.655 256.291 21.325C255.521 19.995 255.136 18.3967 255.136 16.53C255.136 14.6167 255.521 12.995 256.291 11.665C257.084 10.335 258.111 9.32 259.371 8.62C260.654 7.92 262.043 7.57 263.536 7.57C265.029 7.57 266.406 7.92 267.666 8.62C268.949 9.32 269.976 10.335 270.746 11.665C271.539 12.995 271.936 14.6167 271.936 16.53C271.936 18.3967 271.539 19.995 270.746 21.325C269.976 22.655 268.949 23.67 267.666 24.37C266.406 25.07 265.029 25.42 263.536 25.42ZM263.536 23.04C264.633 23.04 265.589 22.7717 266.406 22.235C267.223 21.675 267.853 20.905 268.296 19.925C268.739 18.945 268.961 17.8133 268.961 16.53C268.961 15.2233 268.739 14.08 268.296 13.1C267.853 12.0967 267.223 11.3267 266.406 10.79C265.589 10.23 264.633 9.95 263.536 9.95C262.439 9.95 261.483 10.23 260.666 10.79C259.873 11.3267 259.243 12.0967 258.776 13.1C258.333 14.08 258.111 15.2233 258.111 16.53C258.111 17.8133 258.333 18.945 258.776 19.925C259.243 20.905 259.873 21.675 260.666 22.235C261.483 22.7717 262.439 23.04 263.536 23.04ZM282.982 25.42C280.952 25.42 279.459 24.8367 278.502 23.67C277.546 22.5033 277.067 20.8 277.067 18.56V7.99H279.972V18.175C279.972 19.785 280.264 20.9867 280.847 21.78C281.454 22.55 282.469 22.935 283.892 22.935C284.872 22.935 285.759 22.69 286.552 22.2C287.369 21.6867 288.244 20.8817 289.177 19.785V7.99H292.047V25H289.702L289.457 22.025H289.317C288.454 23.005 287.509 23.8217 286.482 24.475C285.456 25.105 284.289 25.42 282.982 25.42ZM309.499 25.42C307.842 25.42 306.535 25.1283 305.579 24.545C304.622 23.9383 303.934 23.11 303.514 22.06C303.117 21.01 302.919 19.785 302.919 18.385V10.335H298.124V8.165L303.024 7.99L303.409 2.53H305.789V7.99H314.154V10.335H305.789V18.42C305.789 19.4233 305.917 20.275 306.174 20.975C306.43 21.675 306.874 22.2 307.504 22.55C308.134 22.9 308.997 23.075 310.094 23.075C310.91 23.075 311.645 23.005 312.299 22.865C312.952 22.725 313.582 22.5383 314.189 22.305L314.819 24.405C314.049 24.685 313.232 24.9183 312.369 25.105C311.529 25.315 310.572 25.42 309.499 25.42ZM340.411 25V7.99H342.721L342.966 10.23H343.036C343.48 9.43667 343.993 8.795 344.576 8.305C345.16 7.815 345.941 7.57 346.921 7.57C347.761 7.57 348.45 7.815 348.986 8.305C349.523 8.795 349.908 9.53 350.141 10.51C350.631 9.6 351.168 8.88833 351.751 8.375C352.358 7.83833 353.151 7.57 354.131 7.57C355.321 7.57 356.243 8.025 356.896 8.935C357.573 9.82167 357.911 11.1167 357.911 12.82V25H355.041V13.03C355.041 11.0467 354.435 10.055 353.221 10.055C352.638 10.055 352.148 10.2767 351.751 10.72C351.378 11.14 350.958 11.7933 350.491 12.68V25H347.831V13.03C347.831 12.05 347.691 11.315 347.411 10.825C347.155 10.3117 346.711 10.055 346.081 10.055C345.498 10.055 344.985 10.2767 344.541 10.72C344.121 11.14 343.701 11.7933 343.281 12.68V25H340.411ZM371.268 25.42C369.564 25.42 368.013 25.07 366.613 24.37C365.236 23.67 364.139 22.655 363.323 21.325C362.506 19.9717 362.098 18.35 362.098 16.46C362.098 14.6167 362.506 13.03 363.323 11.7C364.139 10.37 365.201 9.355 366.508 8.655C367.838 7.93167 369.261 7.57 370.778 7.57C372.411 7.57 373.799 7.90833 374.943 8.585C376.109 9.23833 376.996 10.16 377.603 11.35C378.233 12.54 378.548 13.94 378.548 15.55C378.548 15.8767 378.536 16.1917 378.513 16.495C378.489 16.7983 378.454 17.0667 378.408 17.3H364.023V15.06H376.693L375.958 15.865C375.958 13.8583 375.491 12.3533 374.558 11.35C373.648 10.3467 372.411 9.845 370.848 9.845C369.798 9.845 368.818 10.1017 367.908 10.615C367.021 11.1283 366.309 11.875 365.773 12.855C365.236 13.835 364.968 15.0367 364.968 16.46C364.968 17.93 365.259 19.155 365.843 20.135C366.426 21.115 367.219 21.8617 368.223 22.375C369.226 22.865 370.358 23.11 371.618 23.11C372.644 23.11 373.566 22.97 374.383 22.69C375.223 22.3867 376.028 21.99 376.798 21.5L377.848 23.39C377.008 23.95 376.039 24.4283 374.943 24.825C373.869 25.2217 372.644 25.42 371.268 25.42ZM391.554 12.89C390.784 12.89 390.119 12.6217 389.559 12.085C388.999 11.525 388.719 10.8133 388.719 9.95C388.719 9.06333 388.999 8.35167 389.559 7.815C390.119 7.255 390.784 6.975 391.554 6.975C392.347 6.975 393.012 7.255 393.549 7.815C394.109 8.35167 394.389 9.06333 394.389 9.95C394.389 10.8133 394.109 11.525 393.549 12.085C393.012 12.6217 392.347 12.89 391.554 12.89ZM391.554 25.42C390.784 25.42 390.119 25.1517 389.559 24.615C388.999 24.055 388.719 23.3433 388.719 22.48C388.719 21.5933 388.999 20.8817 389.559 20.345C390.119 19.785 390.784 19.505 391.554 19.505C392.347 19.505 393.012 19.785 393.549 20.345C394.109 20.8817 394.389 21.5933 394.389 22.48C394.389 23.3433 394.109 24.055 393.549 24.615C393.012 25.1517 392.347 25.42 391.554 25.42ZM0.325 69V66.515H6.03V48.49H0.325V46.04H14.675V48.49H8.97V66.515H14.675V69H0.325ZM29.5713 49.12L24.0763 43.765L26.1063 41.805L31.0763 47.685L29.5713 49.12ZM41.7027 69V51.99H44.0127L44.2577 54.23H44.3277C44.771 53.4367 45.2843 52.795 45.8677 52.305C46.451 51.815 47.2327 51.57 48.2127 51.57C49.0527 51.57 49.741 51.815 50.2777 52.305C50.8143 52.795 51.1993 53.53 51.4327 54.51C51.9227 53.6 52.4593 52.8883 53.0427 52.375C53.6493 51.8383 54.4427 51.57 55.4227 51.57C56.6127 51.57 57.5343 52.025 58.1877 52.935C58.8643 53.8217 59.2027 55.1167 59.2027 56.82V69H56.3327V57.03C56.3327 55.0467 55.726 54.055 54.5127 54.055C53.9293 54.055 53.4393 54.2767 53.0427 54.72C52.6693 55.14 52.2493 55.7933 51.7827 56.68V69H49.1227V57.03C49.1227 56.05 48.9827 55.315 48.7027 54.825C48.446 54.3117 48.0027 54.055 47.3727 54.055C46.7893 54.055 46.276 54.2767 45.8327 54.72C45.4127 55.14 44.9927 55.7933 44.5727 56.68V69H41.7027ZM90.9553 69.42C89.9053 69.42 88.937 69.2333 88.0503 68.86C87.1636 68.4633 86.4636 67.9033 85.9503 67.18C85.437 66.4567 85.1803 65.5933 85.1803 64.59C85.1803 62.6767 86.137 61.23 88.0503 60.25C89.9636 59.2467 93.1136 58.57 97.5003 58.22C97.477 57.45 97.3136 56.7383 97.0103 56.085C96.7303 55.4317 96.2636 54.9183 95.6103 54.545C94.957 54.1483 94.082 53.95 92.9853 53.95C92.262 53.95 91.5386 54.055 90.8153 54.265C90.1153 54.4517 89.4386 54.7083 88.7853 55.035C88.1553 55.3383 87.572 55.6533 87.0353 55.98L85.9153 54.02C86.4753 53.6467 87.152 53.2733 87.9453 52.9C88.762 52.5033 89.637 52.1883 90.5703 51.955C91.5036 51.6983 92.472 51.57 93.4753 51.57C95.0386 51.57 96.322 51.8617 97.3253 52.445C98.352 53.0283 99.1103 53.845 99.6003 54.895C100.114 55.9217 100.37 57.1467 100.37 58.57V69H98.0253L97.7803 66.69H97.6753C96.742 67.4367 95.692 68.0783 94.5253 68.615C93.3586 69.1517 92.1686 69.42 90.9553 69.42ZM91.7253 67.11C92.7053 67.11 93.6736 66.8883 94.6303 66.445C95.587 66.0017 96.5436 65.3833 97.5003 64.59V60.11C95.0736 60.32 93.1603 60.6117 91.7603 60.985C90.3836 61.3583 89.4036 61.8367 88.8203 62.42C88.2603 62.98 87.9803 63.6333 87.9803 64.38C87.9803 65.01 88.1553 65.535 88.5053 65.955C88.8553 66.3517 89.3103 66.6433 89.8703 66.83C90.4536 67.0167 91.072 67.11 91.7253 67.11ZM106.937 69V51.99H109.317L109.562 54.895H109.702C110.588 53.9383 111.545 53.145 112.572 52.515C113.598 51.885 114.777 51.57 116.107 51.57C118.113 51.57 119.595 52.1533 120.552 53.32C121.508 54.4867 121.987 56.19 121.987 58.43V69H119.117V58.815C119.117 57.205 118.813 56.015 118.207 55.245C117.6 54.4517 116.597 54.055 115.197 54.055C114.193 54.055 113.295 54.3117 112.502 54.825C111.708 55.3383 110.81 56.1083 109.807 57.135V69H106.937ZM156.854 69.42C155.361 69.42 153.973 69.07 152.689 68.37C151.429 67.67 150.403 66.655 149.609 65.325C148.839 63.995 148.454 62.3967 148.454 60.53C148.454 58.6167 148.839 56.995 149.609 55.665C150.403 54.335 151.429 53.32 152.689 52.62C153.973 51.92 155.361 51.57 156.854 51.57C158.348 51.57 159.724 51.92 160.984 52.62C162.268 53.32 163.294 54.335 164.064 55.665C164.858 56.995 165.254 58.6167 165.254 60.53C165.254 62.3967 164.858 63.995 164.064 65.325C163.294 66.655 162.268 67.67 160.984 68.37C159.724 69.07 158.348 69.42 156.854 69.42ZM156.854 67.04C157.951 67.04 158.908 66.7717 159.724 66.235C160.541 65.675 161.171 64.905 161.614 63.925C162.058 62.945 162.279 61.8133 162.279 60.53C162.279 59.2233 162.058 58.08 161.614 57.1C161.171 56.0967 160.541 55.3267 159.724 54.79C158.908 54.23 157.951 53.95 156.854 53.95C155.758 53.95 154.801 54.23 153.984 54.79C153.191 55.3267 152.561 56.0967 152.094 57.1C151.651 58.08 151.429 59.2233 151.429 60.53C151.429 61.8133 151.651 62.945 152.094 63.925C152.561 64.905 153.191 65.675 153.984 66.235C154.801 66.7717 155.758 67.04 156.854 67.04ZM181.481 69.42C179.824 69.42 178.517 69.1283 177.561 68.545C176.604 67.9383 175.916 67.11 175.496 66.06C175.099 65.01 174.901 63.785 174.901 62.385V54.335H170.106V52.165L175.006 51.99L175.391 46.53H177.771V51.99H186.136V54.335H177.771V62.42C177.771 63.4233 177.899 64.275 178.156 64.975C178.412 65.675 178.856 66.2 179.486 66.55C180.116 66.9 180.979 67.075 182.076 67.075C182.892 67.075 183.627 67.005 184.281 66.865C184.934 66.725 185.564 66.5383 186.171 66.305L186.801 68.405C186.031 68.685 185.214 68.9183 184.351 69.105C183.511 69.315 182.554 69.42 181.481 69.42ZM197.637 69.42C196.587 69.42 195.619 69.2333 194.732 68.86C193.845 68.4633 193.145 67.9033 192.632 67.18C192.119 66.4567 191.862 65.5933 191.862 64.59C191.862 62.6767 192.819 61.23 194.732 60.25C196.645 59.2467 199.795 58.57 204.182 58.22C204.159 57.45 203.995 56.7383 203.692 56.085C203.412 55.4317 202.945 54.9183 202.292 54.545C201.639 54.1483 200.764 53.95 199.667 53.95C198.944 53.95 198.22 54.055 197.497 54.265C196.797 54.4517 196.12 54.7083 195.467 55.035C194.837 55.3383 194.254 55.6533 193.717 55.98L192.597 54.02C193.157 53.6467 193.834 53.2733 194.627 52.9C195.444 52.5033 196.319 52.1883 197.252 51.955C198.185 51.6983 199.154 51.57 200.157 51.57C201.72 51.57 203.004 51.8617 204.007 52.445C205.034 53.0283 205.792 53.845 206.282 54.895C206.795 55.9217 207.052 57.1467 207.052 58.57V69H204.707L204.462 66.69H204.357C203.424 67.4367 202.374 68.0783 201.207 68.615C200.04 69.1517 198.85 69.42 197.637 69.42ZM198.407 67.11C199.387 67.11 200.355 66.8883 201.312 66.445C202.269 66.0017 203.225 65.3833 204.182 64.59V60.11C201.755 60.32 199.842 60.6117 198.442 60.985C197.065 61.3583 196.085 61.8367 195.502 62.42C194.942 62.98 194.662 63.6333 194.662 64.38C194.662 65.01 194.837 65.535 195.187 65.955C195.537 66.3517 195.992 66.6433 196.552 66.83C197.135 67.0167 197.754 67.11 198.407 67.11ZM214.073 69V44.08H216.943V60.95H217.083L226.253 51.99H229.543L216.943 64.38V69H214.073ZM227.233 69L220.583 59.935L222.333 58.08L230.453 69H227.233ZM240.31 69.42C238.28 69.42 236.786 68.8367 235.83 67.67C234.873 66.5033 234.395 64.8 234.395 62.56V51.99H237.3V62.175C237.3 63.785 237.591 64.9867 238.175 65.78C238.781 66.55 239.796 66.935 241.22 66.935C242.2 66.935 243.086 66.69 243.88 66.2C244.696 65.6867 245.571 64.8817 246.505 63.785V51.99H249.375V69H247.03L246.785 66.025H246.645C245.781 67.005 244.836 67.8217 243.81 68.475C242.783 69.105 241.616 69.42 240.31 69.42ZM282.982 69.42C281.932 69.42 280.964 69.2333 280.077 68.86C279.191 68.4633 278.491 67.9033 277.977 67.18C277.464 66.4567 277.207 65.5933 277.207 64.59C277.207 62.6767 278.164 61.23 280.077 60.25C281.991 59.2467 285.141 58.57 289.527 58.22C289.504 57.45 289.341 56.7383 289.037 56.085C288.757 55.4317 288.291 54.9183 287.637 54.545C286.984 54.1483 286.109 53.95 285.012 53.95C284.289 53.95 283.566 54.055 282.842 54.265C282.142 54.4517 281.466 54.7083 280.812 55.035C280.182 55.3383 279.599 55.6533 279.062 55.98L277.942 54.02C278.502 53.6467 279.179 53.2733 279.972 52.9C280.789 52.5033 281.664 52.1883 282.597 51.955C283.531 51.6983 284.499 51.57 285.502 51.57C287.066 51.57 288.349 51.8617 289.352 52.445C290.379 53.0283 291.137 53.845 291.627 54.895C292.141 55.9217 292.397 57.1467 292.397 58.57V69H290.052L289.807 66.69H289.702C288.769 67.4367 287.719 68.0783 286.552 68.615C285.386 69.1517 284.196 69.42 282.982 69.42ZM283.752 67.11C284.732 67.11 285.701 66.8883 286.657 66.445C287.614 66.0017 288.571 65.3833 289.527 64.59V60.11C287.101 60.32 285.187 60.6117 283.787 60.985C282.411 61.3583 281.431 61.8367 280.847 62.42C280.287 62.98 280.007 63.6333 280.007 64.38C280.007 65.01 280.182 65.535 280.532 65.955C280.882 66.3517 281.337 66.6433 281.897 66.83C282.481 67.0167 283.099 67.11 283.752 67.11ZM298.964 69V51.99H301.344L301.589 54.895H301.729C302.615 53.9383 303.572 53.145 304.599 52.515C305.625 51.885 306.804 51.57 308.134 51.57C310.14 51.57 311.622 52.1533 312.579 53.32C313.535 54.4867 314.014 56.19 314.014 58.43V69H311.144V58.815C311.144 57.205 310.84 56.015 310.234 55.245C309.627 54.4517 308.624 54.055 307.224 54.055C306.22 54.055 305.322 54.3117 304.529 54.825C303.735 55.3383 302.837 56.1083 301.834 57.135V69H298.964ZM326.53 69.42C324.313 69.42 322.528 68.65 321.175 67.11C319.822 65.5467 319.145 63.3533 319.145 60.53C319.145 58.6867 319.507 57.1 320.23 55.77C320.977 54.4167 321.933 53.3783 323.1 52.655C324.29 51.9317 325.55 51.57 326.88 51.57C327.883 51.57 328.793 51.7683 329.61 52.165C330.45 52.5383 331.232 53.075 331.955 53.775H332.06L331.92 50.625V44.08H334.79V69H332.41L332.165 66.76H332.06C331.383 67.4833 330.555 68.1133 329.575 68.65C328.618 69.1633 327.603 69.42 326.53 69.42ZM327.125 67.005C327.965 67.005 328.782 66.795 329.575 66.375C330.368 65.9317 331.15 65.29 331.92 64.45V55.98C331.15 55.2567 330.392 54.7433 329.645 54.44C328.922 54.1367 328.187 53.985 327.44 53.985C326.46 53.985 325.562 54.265 324.745 54.825C323.952 55.3617 323.31 56.12 322.82 57.1C322.353 58.0567 322.12 59.1883 322.12 60.495C322.12 62.525 322.563 64.1233 323.45 65.29C324.337 66.4333 325.562 67.005 327.125 67.005ZM364.828 69V51.99H367.208L367.453 56.015H367.558C368.444 54.6383 369.541 53.5533 370.848 52.76C372.154 51.9667 373.589 51.57 375.153 51.57C375.783 51.57 376.366 51.6283 376.903 51.745C377.463 51.8383 377.999 52.0133 378.513 52.27L377.848 54.755C377.264 54.545 376.763 54.3933 376.343 54.3C375.923 54.2067 375.374 54.16 374.698 54.16C373.414 54.16 372.178 54.5333 370.988 55.28C369.821 56.0033 368.724 57.2517 367.698 59.025V69H364.828ZM392.604 69.42C390.901 69.42 389.349 69.07 387.949 68.37C386.572 67.67 385.476 66.655 384.659 65.325C383.842 63.9717 383.434 62.35 383.434 60.46C383.434 58.6167 383.842 57.03 384.659 55.7C385.476 54.37 386.537 53.355 387.844 52.655C389.174 51.9317 390.597 51.57 392.114 51.57C393.747 51.57 395.136 51.9083 396.279 52.585C397.446 53.2383 398.332 54.16 398.939 55.35C399.569 56.54 399.884 57.94 399.884 59.55C399.884 59.8767 399.872 60.1917 399.849 60.495C399.826 60.7983 399.791 61.0667 399.744 61.3H385.359V59.06H398.029L397.294 59.865C397.294 57.8583 396.827 56.3533 395.894 55.35C394.984 54.3467 393.747 53.845 392.184 53.845C391.134 53.845 390.154 54.1017 389.244 54.615C388.357 55.1283 387.646 55.875 387.109 56.855C386.572 57.835 386.304 59.0367 386.304 60.46C386.304 61.93 386.596 63.155 387.179 64.135C387.762 65.115 388.556 65.8617 389.559 66.375C390.562 66.865 391.694 67.11 392.954 67.11C393.981 67.11 394.902 66.97 395.719 66.69C396.559 66.3867 397.364 65.99 398.134 65.5L399.184 67.39C398.344 67.95 397.376 68.4283 396.279 68.825C395.206 69.2217 393.981 69.42 392.604 69.42ZM411 69.42C409.95 69.42 408.982 69.2333 408.095 68.86C407.209 68.4633 406.509 67.9033 405.995 67.18C405.482 66.4567 405.225 65.5933 405.225 64.59C405.225 62.6767 406.182 61.23 408.095 60.25C410.009 59.2467 413.159 58.57 417.545 58.22C417.522 57.45 417.359 56.7383 417.055 56.085C416.775 55.4317 416.309 54.9183 415.655 54.545C415.002 54.1483 414.127 53.95 413.03 53.95C412.307 53.95 411.584 54.055 410.86 54.265C410.16 54.4517 409.484 54.7083 408.83 55.035C408.2 55.3383 407.617 55.6533 407.08 55.98L405.96 54.02C406.52 53.6467 407.197 53.2733 407.99 52.9C408.807 52.5033 409.682 52.1883 410.615 51.955C411.549 51.6983 412.517 51.57 413.52 51.57C415.084 51.57 416.367 51.8617 417.37 52.445C418.397 53.0283 419.155 53.845 419.645 54.895C420.159 55.9217 420.415 57.1467 420.415 58.57V69H418.07L417.825 66.69H417.72C416.787 67.4367 415.737 68.0783 414.57 68.615C413.404 69.1517 412.214 69.42 411 69.42ZM411.77 67.11C412.75 67.11 413.719 66.8883 414.675 66.445C415.632 66.0017 416.589 65.3833 417.545 64.59V60.11C415.119 60.32 413.205 60.6117 411.805 60.985C410.429 61.3583 409.449 61.8367 408.865 62.42C408.305 62.98 408.025 63.6333 408.025 64.38C408.025 65.01 408.2 65.535 408.55 65.955C408.9 66.3517 409.355 66.6433 409.915 66.83C410.499 67.0167 411.117 67.11 411.77 67.11ZM437.937 69.42C436.14 69.42 434.763 68.9067 433.807 67.88C432.85 66.83 432.372 65.3017 432.372 63.295V46.425H426.562V44.08H435.242V63.505C435.242 64.7417 435.545 65.64 436.152 66.2C436.758 66.76 437.563 67.04 438.567 67.04C439.057 67.04 439.558 66.9817 440.072 66.865C440.585 66.725 441.157 66.515 441.787 66.235L442.522 68.405C441.752 68.685 441.028 68.9183 440.352 69.105C439.675 69.315 438.87 69.42 437.937 69.42ZM459.273 69.42C457.476 69.42 456.1 68.9067 455.143 67.88C454.186 66.83 453.708 65.3017 453.708 63.295V46.425H447.898V44.08H456.578V63.505C456.578 64.7417 456.881 65.64 457.488 66.2C458.095 66.76 458.9 67.04 459.903 67.04C460.393 67.04 460.895 66.9817 461.408 66.865C461.921 66.725 462.493 66.515 463.123 66.235L463.858 68.405C463.088 68.685 462.365 68.9183 461.688 69.105C461.011 69.315 460.206 69.42 459.273 69.42ZM470.984 76.315C470.611 76.315 470.214 76.28 469.794 76.21C469.398 76.14 469.048 76.0583 468.744 75.965L469.339 73.69C469.573 73.76 469.818 73.8183 470.074 73.865C470.354 73.9117 470.623 73.935 470.879 73.935C472.069 73.935 473.038 73.585 473.784 72.885C474.531 72.2083 475.114 71.345 475.534 70.295L476.059 69.035L468.114 51.99H471.019L475.184 61.405C475.511 62.1517 475.849 62.9567 476.199 63.82C476.573 64.66 476.934 65.5 477.284 66.34H477.424C477.728 65.5233 478.031 64.695 478.334 63.855C478.661 62.9917 478.964 62.175 479.244 61.405L482.954 51.99H485.684L478.194 70.4C477.774 71.52 477.249 72.5233 476.619 73.41C475.989 74.32 475.208 75.0317 474.274 75.545C473.364 76.0583 472.268 76.315 470.984 76.315ZM520.132 69V54.335H512.222V51.99H523.002V69H520.132ZM521.252 48.42C520.599 48.42 520.05 48.2217 519.607 47.825C519.164 47.405 518.942 46.8567 518.942 46.18C518.942 45.5033 519.164 44.9667 519.607 44.57C520.05 44.15 520.599 43.94 521.252 43.94C521.905 43.94 522.454 44.15 522.897 44.57C523.34 44.9667 523.562 45.5033 523.562 46.18C523.562 46.8567 523.34 47.405 522.897 47.825C522.454 48.2217 521.905 48.42 521.252 48.42ZM533.663 69V51.99H536.043L536.288 54.895H536.428C537.315 53.9383 538.272 53.145 539.298 52.515C540.325 51.885 541.503 51.57 542.833 51.57C544.84 51.57 546.322 52.1533 547.278 53.32C548.235 54.4867 548.713 56.19 548.713 58.43V69H545.843V58.815C545.843 57.205 545.54 56.015 544.933 55.245C544.327 54.4517 543.323 54.055 541.923 54.055C540.92 54.055 540.022 54.3117 539.228 54.825C538.435 55.3383 537.537 56.1083 536.533 57.135V69H533.663ZM565.535 69.42C563.878 69.42 562.571 69.1283 561.615 68.545C560.658 67.9383 559.97 67.11 559.55 66.06C559.153 65.01 558.955 63.785 558.955 62.385V54.335H554.16V52.165L559.06 51.99L559.445 46.53H561.825V51.99H570.19V54.335H561.825V62.42C561.825 63.4233 561.953 64.275 562.21 64.975C562.466 65.675 562.91 66.2 563.54 66.55C564.17 66.9 565.033 67.075 566.13 67.075C566.946 67.075 567.681 67.005 568.335 66.865C568.988 66.725 569.618 66.5383 570.225 66.305L570.855 68.405C570.085 68.685 569.268 68.9183 568.405 69.105C567.565 69.315 566.608 69.42 565.535 69.42ZM583.581 69.42C582.088 69.42 580.699 69.07 579.416 68.37C578.156 67.67 577.129 66.655 576.336 65.325C575.566 63.995 575.181 62.3967 575.181 60.53C575.181 58.6167 575.566 56.995 576.336 55.665C577.129 54.335 578.156 53.32 579.416 52.62C580.699 51.92 582.088 51.57 583.581 51.57C585.074 51.57 586.451 51.92 587.711 52.62C588.994 53.32 590.021 54.335 590.791 55.665C591.584 56.995 591.981 58.6167 591.981 60.53C591.981 62.3967 591.584 63.995 590.791 65.325C590.021 66.655 588.994 67.67 587.711 68.37C586.451 69.07 585.074 69.42 583.581 69.42ZM583.581 67.04C584.678 67.04 585.634 66.7717 586.451 66.235C587.268 65.675 587.898 64.905 588.341 63.925C588.784 62.945 589.006 61.8133 589.006 60.53C589.006 59.2233 588.784 58.08 588.341 57.1C587.898 56.0967 587.268 55.3267 586.451 54.79C585.634 54.23 584.678 53.95 583.581 53.95C582.484 53.95 581.528 54.23 580.711 54.79C579.918 55.3267 579.288 56.0967 578.821 57.1C578.378 58.08 578.156 59.2233 578.156 60.53C578.156 61.8133 578.378 62.945 578.821 63.925C579.288 64.905 579.918 65.675 580.711 66.235C581.528 66.7717 582.484 67.04 583.581 67.04ZM629.964 69.42C628.167 69.42 626.79 68.9067 625.834 67.88C624.877 66.83 624.399 65.3017 624.399 63.295V46.425H618.589V44.08H627.269V63.505C627.269 64.7417 627.572 65.64 628.179 66.2C628.785 66.76 629.59 67.04 630.594 67.04C631.084 67.04 631.585 66.9817 632.099 66.865C632.612 66.725 633.184 66.515 633.814 66.235L634.549 68.405C633.779 68.685 633.055 68.9183 632.379 69.105C631.702 69.315 630.897 69.42 629.964 69.42ZM647.59 69.42C646.097 69.42 644.708 69.07 643.425 68.37C642.165 67.67 641.138 66.655 640.345 65.325C639.575 63.995 639.19 62.3967 639.19 60.53C639.19 58.6167 639.575 56.995 640.345 55.665C641.138 54.335 642.165 53.32 643.425 52.62C644.708 51.92 646.097 51.57 647.59 51.57C649.083 51.57 650.46 51.92 651.72 52.62C653.003 53.32 654.03 54.335 654.8 55.665C655.593 56.995 655.99 58.6167 655.99 60.53C655.99 62.3967 655.593 63.995 654.8 65.325C654.03 66.655 653.003 67.67 651.72 68.37C650.46 69.07 649.083 69.42 647.59 69.42ZM647.59 67.04C648.687 67.04 649.643 66.7717 650.46 66.235C651.277 65.675 651.907 64.905 652.35 63.925C652.793 62.945 653.015 61.8133 653.015 60.53C653.015 59.2233 652.793 58.08 652.35 57.1C651.907 56.0967 651.277 55.3267 650.46 54.79C649.643 54.23 648.687 53.95 647.59 53.95C646.493 53.95 645.537 54.23 644.72 54.79C643.927 55.3267 643.297 56.0967 642.83 57.1C642.387 58.08 642.165 59.2233 642.165 60.53C642.165 61.8133 642.387 62.945 642.83 63.925C643.297 64.905 643.927 65.675 644.72 66.235C645.537 66.7717 646.493 67.04 647.59 67.04ZM661.401 58.535V56.365H676.451V58.535H661.401ZM688.233 69V50.555C688.233 49.1783 688.478 47.9767 688.968 46.95C689.481 45.9 690.239 45.095 691.243 44.535C692.246 43.9517 693.529 43.66 695.093 43.66C695.933 43.66 696.749 43.7417 697.543 43.905C698.359 44.045 699.176 44.29 699.993 44.64L699.328 46.81C698.628 46.4833 697.974 46.2733 697.368 46.18C696.784 46.0633 696.119 46.005 695.373 46.005C693.856 46.005 692.759 46.4017 692.083 47.195C691.406 47.9883 691.068 49.0733 691.068 50.45V69H688.233ZM683.368 54.335V52.165L688.338 51.99H698.208V54.335H683.368ZM712.159 69V54.335H704.249V51.99H715.029V69H712.159ZM713.279 48.42C712.625 48.42 712.077 48.2217 711.634 47.825C711.19 47.405 710.969 46.8567 710.969 46.18C710.969 45.5033 711.19 44.9667 711.634 44.57C712.077 44.15 712.625 43.94 713.279 43.94C713.932 43.94 714.48 44.15 714.924 44.57C715.367 44.9667 715.589 45.5033 715.589 46.18C715.589 46.8567 715.367 47.405 714.924 47.825C714.48 48.2217 713.932 48.42 713.279 48.42ZM745.801 69V51.99H748.111L748.356 54.23H748.426C748.87 53.4367 749.383 52.795 749.966 52.305C750.55 51.815 751.331 51.57 752.311 51.57C753.151 51.57 753.84 51.815 754.376 52.305C754.913 52.795 755.298 53.53 755.531 54.51C756.021 53.6 756.558 52.8883 757.141 52.375C757.748 51.8383 758.541 51.57 759.521 51.57C760.711 51.57 761.633 52.025 762.286 52.935C762.963 53.8217 763.301 55.1167 763.301 56.82V69H760.431V57.03C760.431 55.0467 759.825 54.055 758.611 54.055C758.028 54.055 757.538 54.2767 757.141 54.72C756.768 55.14 756.348 55.7933 755.881 56.68V69H753.221V57.03C753.221 56.05 753.081 55.315 752.801 54.825C752.545 54.3117 752.101 54.055 751.471 54.055C750.888 54.055 750.375 54.2767 749.931 54.72C749.511 55.14 749.091 55.7933 748.671 56.68V69H745.801ZM773.718 69.42C771.688 69.42 770.194 68.8367 769.238 67.67C768.281 66.5033 767.803 64.8 767.803 62.56V51.99H770.708V62.175C770.708 63.785 770.999 64.9867 771.583 65.78C772.189 66.55 773.204 66.935 774.628 66.935C775.608 66.935 776.494 66.69 777.288 66.2C778.104 65.6867 778.979 64.8817 779.913 63.785V51.99H782.783V69H780.438L780.193 66.025H780.053C779.189 67.005 778.244 67.8217 777.218 68.475C776.191 69.105 775.024 69.42 773.718 69.42ZM797.294 69.42C795.637 69.42 794.086 69.1517 792.639 68.615C791.192 68.0783 789.956 67.46 788.929 66.76L790.259 64.87C791.239 65.57 792.324 66.13 793.514 66.55C794.704 66.97 796.081 67.18 797.644 67.18C799.091 67.18 800.164 66.9117 800.864 66.375C801.587 65.8383 801.949 65.22 801.949 64.52C801.949 64.1933 801.879 63.89 801.739 63.61C801.622 63.33 801.377 63.0617 801.004 62.805C800.654 62.5483 800.129 62.3033 799.429 62.07C798.729 61.8367 797.796 61.6033 796.629 61.37C794.412 60.9033 792.744 60.2733 791.624 59.48C790.527 58.6867 789.979 57.66 789.979 56.4C789.979 55.0233 790.574 53.88 791.764 52.97C792.954 52.0367 794.716 51.57 797.049 51.57C798.356 51.57 799.616 51.7917 800.829 52.235C802.042 52.655 803.069 53.1567 803.909 53.74L802.509 55.595C801.739 55.035 800.864 54.6033 799.884 54.3C798.904 53.9733 797.877 53.81 796.804 53.81C795.824 53.81 795.042 53.9267 794.459 54.16C793.899 54.37 793.491 54.6617 793.234 55.035C793.001 55.4083 792.884 55.8167 792.884 56.26C792.884 56.9833 793.269 57.555 794.039 57.975C794.832 58.3717 796.092 58.745 797.819 59.095C799.709 59.4917 801.156 59.935 802.159 60.425C803.186 60.915 803.886 61.475 804.259 62.105C804.656 62.735 804.854 63.4817 804.854 64.345C804.854 65.2783 804.562 66.13 803.979 66.9C803.396 67.6467 802.544 68.2533 801.424 68.72C800.304 69.1867 798.927 69.42 797.294 69.42ZM818.84 69V54.335H810.93V51.99H821.71V69H818.84ZM819.96 48.42C819.307 48.42 818.759 48.2217 818.315 47.825C817.872 47.405 817.65 46.8567 817.65 46.18C817.65 45.5033 817.872 44.9667 818.315 44.57C818.759 44.15 819.307 43.94 819.96 43.94C820.614 43.94 821.162 44.15 821.605 44.57C822.049 44.9667 822.27 45.5033 822.27 46.18C822.27 46.8567 822.049 47.405 821.605 47.825C821.162 48.2217 820.614 48.42 819.96 48.42ZM841.227 69.42C839.453 69.42 837.855 69.07 836.432 68.37C835.032 67.67 833.923 66.655 833.107 65.325C832.313 63.995 831.917 62.3967 831.917 60.53C831.917 58.6167 832.348 56.995 833.212 55.665C834.075 54.335 835.218 53.32 836.642 52.62C838.088 51.92 839.675 51.57 841.402 51.57C842.802 51.57 844.003 51.815 845.007 52.305C846.033 52.795 846.897 53.3783 847.597 54.055L846.162 55.91C845.462 55.3033 844.738 54.825 843.992 54.475C843.245 54.125 842.417 53.95 841.507 53.95C840.2 53.95 839.045 54.23 838.042 54.79C837.038 55.3267 836.257 56.0967 835.697 57.1C835.16 58.08 834.892 59.2233 834.892 60.53C834.892 61.8133 835.16 62.945 835.697 63.925C836.233 64.905 836.992 65.675 837.972 66.235C838.975 66.7717 840.13 67.04 841.437 67.04C842.487 67.04 843.443 66.83 844.307 66.41C845.193 65.99 845.987 65.4883 846.687 64.905L847.982 66.76C847.048 67.6 845.998 68.2533 844.832 68.72C843.688 69.1867 842.487 69.42 841.227 69.42Z" fill="white"/>
</svg>
