<svg width="647" height="75" viewBox="0 0 647 75" fill="none" xmlns="http://www.w3.org/2000/svg">
<path d="M0.2 73L14.6 0.799994H17.4L11.2 31.6L10.2 36.2H10.6C12.8667 34.0667 15.2 32.0667 17.6 30.2C20.0667 28.3333 22.6667 26.8333 25.4 25.7C28.2 24.5667 31.2667 24 34.6 24C39 24 42.1333 25.1 44 27.3C45.8667 29.5 46.8 32.2667 46.8 35.6C46.8 37.2 46.7 38.6667 46.5 40C46.3667 41.2667 46.1333 42.6 45.8 44L40 73H37.2L43 44.2C43.3333 42.6667 43.5667 41.2667 43.7 40C43.9 38.7333 44 37.4 44 36C44 33 43.1667 30.7 41.5 29.1C39.8333 27.4333 37.4 26.6 34.2 26.6C30 26.6 25.8667 27.8667 21.8 30.4C17.8 32.8667 13.7333 36.2667 9.6 40.6L3 73H0.2ZM82.1609 74.2C78.0276 74.2 74.4943 73.4 71.5609 71.8C68.6276 70.1333 66.3943 67.8 64.8609 64.8C63.3276 61.7333 62.5609 58.1333 62.5609 54C62.5609 49.6667 63.2609 45.7 64.6609 42.1C66.1276 38.4333 68.0943 35.2667 70.5609 32.6C73.0943 29.8667 75.9609 27.7667 79.1609 26.3C82.4276 24.7667 85.8276 24 89.3609 24C94.9609 24 99.2276 25.7333 102.161 29.2C105.094 32.6667 106.561 36.9667 106.561 42.1C106.561 43.5667 106.428 44.9333 106.161 46.2C105.961 47.4 105.761 48.2667 105.561 48.8H64.9609L65.5609 46.2H105.761L103.161 46.8C103.361 46 103.494 45.1667 103.561 44.3C103.694 43.4333 103.761 42.6 103.761 41.8C103.761 37.2 102.428 33.5333 99.7609 30.8C97.1609 28 93.5609 26.6 88.9609 26.6C86.0276 26.6 83.1609 27.3 80.3609 28.7C77.5609 30.1 75.0276 32.0333 72.7609 34.5C70.4943 36.9667 68.6943 39.8667 67.3609 43.2C66.0276 46.4667 65.3609 50 65.3609 53.8C65.3609 57.2667 66.0276 60.3667 67.3609 63.1C68.6943 65.7667 70.6276 67.8667 73.1609 69.4C75.6943 70.8667 78.7609 71.6 82.3609 71.6C85.8943 71.6 89.1943 70.9333 92.2609 69.6C95.3943 68.2 98.0943 66.4667 100.361 64.4L101.961 66.6C99.8943 68.4667 97.0943 70.2 93.5609 71.8C90.0943 73.4 86.2943 74.2 82.1609 74.2ZM147.322 74.2C144.122 74.2 141.455 73.3333 139.322 71.6C137.189 69.8 136.122 67.0667 136.122 63.4C136.122 62.6667 136.155 61.9333 136.222 61.2C136.355 60.4667 136.522 59.6667 136.722 58.8L147.922 3.4H130.122L130.722 0.799994H151.122L139.722 58C139.522 58.8667 139.355 59.7333 139.222 60.6C139.155 61.4667 139.122 62.2667 139.122 63C139.122 66 139.889 68.2 141.422 69.6C142.955 70.9333 145.055 71.6 147.722 71.6C149.455 71.6 151.189 71.3667 152.922 70.9C154.655 70.3667 156.455 69.6 158.322 68.6L159.422 71C157.555 72 155.589 72.7667 153.522 73.3C151.522 73.9 149.455 74.2 147.322 74.2ZM207.283 74.2C204.083 74.2 201.416 73.3333 199.283 71.6C197.149 69.8 196.083 67.0667 196.083 63.4C196.083 62.6667 196.116 61.9333 196.183 61.2C196.316 60.4667 196.483 59.6667 196.683 58.8L207.883 3.4H190.083L190.683 0.799994H211.083L199.683 58C199.483 58.8667 199.316 59.7333 199.183 60.6C199.116 61.4667 199.083 62.2667 199.083 63C199.083 66 199.849 68.2 201.383 69.6C202.916 70.9333 205.016 71.6 207.683 71.6C209.416 71.6 211.149 71.3667 212.883 70.9C214.616 70.3667 216.416 69.6 218.283 68.6L219.383 71C217.516 72 215.549 72.7667 213.483 73.3C211.483 73.9 209.416 74.2 207.283 74.2ZM259.444 74.2C255.444 74.2 252.01 73.3333 249.144 71.6C246.344 69.8 244.177 67.3667 242.644 64.3C241.177 61.1667 240.444 57.6 240.444 53.6C240.444 49.4667 241.144 45.6333 242.544 42.1C244.01 38.5 245.977 35.3667 248.444 32.7C250.977 29.9667 253.877 27.8333 257.144 26.3C260.477 24.7667 263.977 24 267.644 24C271.644 24 275.044 24.9 277.844 26.7C280.71 28.4333 282.877 30.8667 284.344 34C285.877 37.0667 286.644 40.6 286.644 44.6C286.644 48.6667 285.91 52.5 284.444 56.1C283.044 59.7 281.077 62.8667 278.544 65.6C276.077 68.2667 273.21 70.3667 269.944 71.9C266.677 73.4333 263.177 74.2 259.444 74.2ZM259.644 71.6C262.844 71.6 265.877 70.9 268.744 69.5C271.677 68.1 274.277 66.2 276.544 63.8C278.81 61.3333 280.577 58.5 281.844 55.3C283.177 52.1 283.844 48.7333 283.844 45.2C283.844 39.6 282.41 35.1 279.544 31.7C276.677 28.3 272.644 26.6 267.444 26.6C264.244 26.6 261.177 27.3 258.244 28.7C255.377 30.1 252.81 32.0333 250.544 34.5C248.277 36.9 246.477 39.7 245.144 42.9C243.877 46.1 243.244 49.4667 243.244 53C243.244 58.6 244.677 63.1 247.544 66.5C250.41 69.9 254.444 71.6 259.644 71.6ZM385.366 74.2C380.899 74.2 377.566 73 375.366 70.6C373.232 68.1333 372.166 65 372.166 61.2C372.166 60.0667 372.232 59 372.366 58C372.566 57 372.766 56 372.966 55L378.566 27.8H363.566L363.966 25.6L379.166 25.2L382.766 9.2H385.166L381.966 25.2H408.166L407.566 27.8H381.366L375.566 55.8C375.366 56.6667 375.199 57.5333 375.066 58.4C374.999 59.2 374.966 60 374.966 60.8C374.966 64.3333 375.899 67.0333 377.766 68.9C379.699 70.7 382.299 71.6 385.566 71.6C388.299 71.6 390.799 71.3 393.066 70.7C395.399 70.0333 397.499 69.2 399.366 68.2L400.566 70.4C398.566 71.6 396.266 72.5333 393.666 73.2C391.132 73.8667 388.366 74.2 385.366 74.2ZM419.927 73L434.327 0.799994H437.127L430.927 31.6L429.927 36.2H430.327C432.593 34.0667 434.927 32.0667 437.327 30.2C439.793 28.3333 442.393 26.8333 445.127 25.7C447.927 24.5667 450.993 24 454.327 24C458.727 24 461.86 25.1 463.727 27.3C465.593 29.5 466.527 32.2667 466.527 35.6C466.527 37.2 466.427 38.6667 466.227 40C466.093 41.2667 465.86 42.6 465.527 44L459.727 73H456.927L462.727 44.2C463.06 42.6667 463.293 41.2667 463.427 40C463.627 38.7333 463.727 37.4 463.727 36C463.727 33 462.893 30.7 461.227 29.1C459.56 27.4333 457.127 26.6 453.927 26.6C449.727 26.6 445.593 27.8667 441.527 30.4C437.527 32.8667 433.46 36.2667 429.327 40.6L422.727 73H419.927ZM501.888 74.2C497.754 74.2 494.221 73.4 491.288 71.8C488.354 70.1333 486.121 67.8 484.588 64.8C483.054 61.7333 482.288 58.1333 482.288 54C482.288 49.6667 482.988 45.7 484.388 42.1C485.854 38.4333 487.821 35.2667 490.288 32.6C492.821 29.8667 495.688 27.7667 498.888 26.3C502.154 24.7667 505.554 24 509.088 24C514.688 24 518.954 25.7333 521.888 29.2C524.821 32.6667 526.288 36.9667 526.288 42.1C526.288 43.5667 526.154 44.9333 525.888 46.2C525.688 47.4 525.488 48.2667 525.288 48.8H484.688L485.288 46.2H525.488L522.888 46.8C523.088 46 523.221 45.1667 523.288 44.3C523.421 43.4333 523.488 42.6 523.488 41.8C523.488 37.2 522.154 33.5333 519.488 30.8C516.888 28 513.288 26.6 508.688 26.6C505.754 26.6 502.888 27.3 500.088 28.7C497.288 30.1 494.754 32.0333 492.488 34.5C490.221 36.9667 488.421 39.8667 487.088 43.2C485.754 46.4667 485.088 50 485.088 53.8C485.088 57.2667 485.754 60.3667 487.088 63.1C488.421 65.7667 490.354 67.8667 492.888 69.4C495.421 70.8667 498.488 71.6 502.088 71.6C505.621 71.6 508.921 70.9333 511.988 69.6C515.121 68.2 517.821 66.4667 520.088 64.4L521.688 66.6C519.621 68.4667 516.821 70.2 513.288 71.8C509.821 73.4 506.021 74.2 501.888 74.2ZM546.248 73L555.848 25.2H558.248L555.648 39.6H556.048C557.915 37 560.015 34.5333 562.348 32.2C564.748 29.8 567.315 27.8333 570.048 26.3C572.848 24.7667 575.782 24 578.848 24C580.982 24 582.815 24.2333 584.348 24.7C585.948 25.1667 587.382 25.8667 588.648 26.8L587.048 29.2C585.782 28.2667 584.482 27.6333 583.148 27.3C581.815 26.9667 580.282 26.8 578.548 26.8C574.415 26.8 570.315 28.5 566.248 31.9C562.248 35.3 558.382 39.6667 554.648 45L549.048 73H546.248ZM621.809 74.2C617.676 74.2 614.143 73.4 611.209 71.8C608.276 70.1333 606.043 67.8 604.509 64.8C602.976 61.7333 602.209 58.1333 602.209 54C602.209 49.6667 602.909 45.7 604.309 42.1C605.776 38.4333 607.743 35.2667 610.209 32.6C612.743 29.8667 615.609 27.7667 618.809 26.3C622.076 24.7667 625.476 24 629.009 24C634.609 24 638.876 25.7333 641.809 29.2C644.743 32.6667 646.209 36.9667 646.209 42.1C646.209 43.5667 646.076 44.9333 645.809 46.2C645.609 47.4 645.409 48.2667 645.209 48.8H604.609L605.209 46.2H645.409L642.809 46.8C643.009 46 643.143 45.1667 643.209 44.3C643.343 43.4333 643.409 42.6 643.409 41.8C643.409 37.2 642.076 33.5333 639.409 30.8C636.809 28 633.209 26.6 628.609 26.6C625.676 26.6 622.809 27.3 620.009 28.7C617.209 30.1 614.676 32.0333 612.409 34.5C610.143 36.9667 608.343 39.8667 607.009 43.2C605.676 46.4667 605.009 50 605.009 53.8C605.009 57.2667 605.676 60.3667 607.009 63.1C608.343 65.7667 610.276 67.8667 612.809 69.4C615.343 70.8667 618.409 71.6 622.009 71.6C625.543 71.6 628.843 70.9333 631.909 69.6C635.043 68.2 637.743 66.4667 640.009 64.4L641.609 66.6C639.543 68.4667 636.743 70.2 633.209 71.8C629.743 73.4 625.943 74.2 621.809 74.2Z" fill="#404044"/>
<path d="M0.2 73L-0.780685 72.8044L-1.01914 74H0.2V73ZM14.6 0.799994V-0.200006H13.7798L13.6193 0.6044L14.6 0.799994ZM17.4 0.799994L18.3803 0.997334L18.6214 -0.200006H17.4V0.799994ZM11.2 31.6L12.1772 31.8124L12.1788 31.8049L12.1803 31.7973L11.2 31.6ZM10.2 36.2L9.22282 35.9876L8.95925 37.2H10.2V36.2ZM10.6 36.2V37.2H10.9966L11.2854 36.9282L10.6 36.2ZM17.6 30.2L16.9965 29.4025L16.9861 29.4106L17.6 30.2ZM25.4 25.7L25.0248 24.773L25.017 24.7763L25.4 25.7ZM44 27.3L44.7625 26.653L44 27.3ZM46.5 40L45.5111 39.8517L45.5078 39.8734L45.5055 39.8953L46.5 40ZM45.8 44L44.8272 43.7684L44.823 43.7861L44.8194 43.8039L45.8 44ZM40 73V74H40.8198L40.9806 73.1961L40 73ZM37.2 73L36.2197 72.8026L35.9785 74H37.2V73ZM43 44.2L42.0228 43.9876L42.0212 43.9951L42.0197 44.0026L43 44.2ZM43.7 40L42.7122 39.844L42.7082 39.8696L42.7055 39.8953L43.7 40ZM41.5 29.1L40.7929 29.8071L40.8001 29.8143L40.8075 29.8214L41.5 29.1ZM21.8 30.4L22.3249 31.2512L22.3287 31.2488L21.8 30.4ZM9.6 40.6L8.87639 39.9098L8.67761 40.1182L8.62012 40.4004L9.6 40.6ZM3 73V74H3.81683L3.97988 73.1996L3 73ZM1.18069 73.1956L15.5807 0.995587L13.6193 0.6044L-0.780685 72.8044L1.18069 73.1956ZM14.6 1.79999H17.4V-0.200006H14.6V1.79999ZM16.4197 0.602654L10.2197 31.4027L12.1803 31.7973L18.3803 0.997334L16.4197 0.602654ZM10.2228 31.3876L9.22282 35.9876L11.1772 36.4124L12.1772 31.8124L10.2228 31.3876ZM10.2 37.2H10.6V35.2H10.2V37.2ZM11.2854 36.9282C13.5297 34.8158 15.8393 32.8363 18.2139 30.9893L16.9861 29.4106C14.5607 31.297 12.2036 33.3175 9.91464 35.4718L11.2854 36.9282ZM18.2034 30.9974C20.6054 29.1797 23.1317 27.7231 25.783 26.6237L25.017 24.7763C22.2016 25.9436 19.5279 27.4869 16.9966 29.4026L18.2034 30.9974ZM25.7752 26.6269C28.4442 25.5466 31.3819 25 34.6 25V23C31.1514 23 27.9558 23.5867 25.0248 24.7731L25.7752 26.6269ZM34.6 25C38.8617 25 41.6425 26.0671 43.2375 27.947L44.7625 26.653C42.6242 24.1329 39.1383 23 34.6 23V25ZM43.2375 27.947C44.9274 29.9387 45.8 32.4647 45.8 35.6H47.8C47.8 32.0686 46.8059 29.0613 44.7625 26.653L43.2375 27.947ZM45.8 35.6C45.8 37.1592 45.7025 38.5755 45.5111 39.8517L47.4889 40.1483C47.6975 38.7578 47.8 37.2408 47.8 35.6H45.8ZM45.5055 39.8953C45.3772 41.1142 45.1518 42.4049 44.8272 43.7684L46.7728 44.2316C47.1148 42.7951 47.3561 41.4192 47.4945 40.1047L45.5055 39.8953ZM44.8194 43.8039L39.0194 72.8039L40.9806 73.1961L46.7806 44.1961L44.8194 43.8039ZM40 72H37.2V74H40V72ZM38.1803 73.1974L43.9803 44.3974L42.0197 44.0026L36.2197 72.8026L38.1803 73.1974ZM43.9772 44.4124C44.3165 42.8513 44.5566 41.4147 44.6945 40.1047L42.7055 39.8953C42.5767 41.1186 42.3501 42.482 42.0228 43.9876L43.9772 44.4124ZM44.6878 40.156C44.8966 38.8333 45 37.4475 45 36H43C43 37.3525 42.9034 38.6334 42.7122 39.844L44.6878 40.156ZM45 36C45 32.813 44.1097 30.2191 42.1925 28.3786L40.8075 29.8214C42.2237 31.1809 43 33.187 43 36H45ZM42.2071 28.3929C40.2938 26.4795 37.5679 25.6 34.2 25.6V27.6C37.2321 27.6 39.3729 28.3871 40.7929 29.8071L42.2071 28.3929ZM34.2 25.6C29.7879 25.6 25.4737 26.9333 21.2713 29.5512L22.3287 31.2488C26.2596 28.8 30.2121 27.6 34.2 27.6V25.6ZM21.2751 29.5488C17.1855 32.0707 13.0535 35.5306 8.87639 39.9098L10.3236 41.2902C14.4132 37.0028 18.4145 33.6626 22.3249 31.2512L21.2751 29.5488ZM8.62012 40.4004L2.02012 72.8004L3.97988 73.1996L10.5799 40.7996L8.62012 40.4004ZM3 72H0.2V74H3V72ZM71.5609 71.8L71.0669 72.6695L71.0745 72.6737L71.0821 72.6779L71.5609 71.8ZM64.8609 64.8L63.9665 65.2472L63.9705 65.2551L64.8609 64.8ZM64.6609 42.1L63.7324 41.7286L63.7289 41.7376L64.6609 42.1ZM70.5609 32.6L69.8275 31.9202L69.8268 31.921L70.5609 32.6ZM79.1609 26.3L79.5776 27.2091L79.5858 27.2052L79.1609 26.3ZM102.161 29.2L102.924 28.5541L102.924 28.5541L102.161 29.2ZM106.161 46.2L105.182 45.994L105.178 46.0147L105.175 46.0356L106.161 46.2ZM105.561 48.8V49.8H106.254L106.497 49.1511L105.561 48.8ZM64.9609 48.8L63.9865 48.5751L63.7039 49.8H64.9609V48.8ZM65.5609 46.2V45.2H64.7654L64.5865 45.9751L65.5609 46.2ZM105.761 46.2L105.986 47.1744L105.761 45.2V46.2ZM103.161 46.8L102.191 46.5575L101.795 48.1415L103.386 47.7744L103.161 46.8ZM103.561 44.3L102.573 44.1479L102.567 44.1855L102.564 44.2233L103.561 44.3ZM99.7609 30.8L99.0281 31.4804L99.0365 31.4895L99.0452 31.4983L99.7609 30.8ZM72.7609 34.5L72.0246 33.8234L72.0246 33.8234L72.7609 34.5ZM67.3609 43.2L68.2868 43.5779L68.2894 43.5714L67.3609 43.2ZM67.3609 63.1L66.4621 63.5384L66.4665 63.5472L67.3609 63.1ZM73.1609 69.4L72.6431 70.2555L72.6515 70.2605L72.6599 70.2654L73.1609 69.4ZM92.2609 69.6L92.6597 70.5171L92.6689 70.513L92.2609 69.6ZM100.361 64.4L101.17 63.8118L100.513 62.9084L99.6872 63.661L100.361 64.4ZM101.961 66.6L102.631 67.3421L103.299 66.7392L102.77 66.0118L101.961 66.6ZM93.5609 71.8L93.1484 70.889L93.1419 70.892L93.5609 71.8ZM82.1609 73.2C78.1558 73.2 74.7953 72.4251 72.0398 70.9221L71.0821 72.6779C74.1932 74.3749 77.8994 75.2 82.1609 75.2V73.2ZM72.0549 70.9305C69.2911 69.3602 67.1957 67.1708 65.7514 64.3449L63.9705 65.2551C65.5928 68.4292 67.9641 70.9065 71.0669 72.6695L72.0549 70.9305ZM65.7554 64.3528C64.3043 61.4507 63.5609 58.0096 63.5609 54H61.5609C61.5609 58.257 62.3509 62.016 63.9665 65.2472L65.7554 64.3528ZM63.5609 54C63.5609 49.7756 64.243 45.9337 65.5929 42.4624L63.7289 41.7376C62.2788 45.4663 61.5609 49.5577 61.5609 54H63.5609ZM65.5894 42.4714C67.0146 38.9084 68.9184 35.8484 71.295 33.279L69.8268 31.921C67.2701 34.685 65.2406 37.9583 63.7325 41.7286L65.5894 42.4714ZM71.2944 33.2798C73.7436 30.6372 76.5042 28.6177 79.5776 27.2091L78.7443 25.3909C75.4177 26.9156 72.445 29.0961 69.8275 31.9202L71.2944 33.2798ZM79.5858 27.2052C82.7225 25.7329 85.9777 25 89.3609 25V23C85.6775 23 82.1327 23.8004 78.736 25.3948L79.5858 27.2052ZM89.3609 25C94.7416 25 98.6977 26.6553 101.398 29.8459L102.924 28.5541C99.7575 24.8114 95.1803 23 89.3609 23V25ZM101.398 29.8459C104.158 33.1085 105.561 37.1704 105.561 42.1H107.561C107.561 36.7629 106.03 32.2248 102.924 28.5541L101.398 29.8459ZM105.561 42.1C105.561 43.5064 105.433 44.8033 105.182 45.994L107.139 46.406C107.422 45.0633 107.561 43.6269 107.561 42.1H105.561ZM105.175 46.0356C104.976 47.2267 104.788 48.0121 104.625 48.4489L106.497 49.1511C106.733 48.5212 106.946 47.5733 107.147 46.3644L105.175 46.0356ZM105.561 47.8H64.9609V49.8H105.561V47.8ZM65.9353 49.0249L66.5353 46.4249L64.5865 45.9751L63.9865 48.5751L65.9353 49.0249ZM65.5609 47.2H105.761V45.2H65.5609V47.2ZM105.536 45.2256L102.936 45.8256L103.386 47.7744L105.986 47.1744L105.536 45.2256ZM104.131 47.0425C104.345 46.1853 104.487 45.2963 104.558 44.3767L102.564 44.2233C102.501 45.037 102.376 45.8147 102.191 46.5575L104.131 47.0425ZM104.549 44.4521C104.69 43.5398 104.761 42.6555 104.761 41.8H102.761C102.761 42.5445 102.699 43.3269 102.573 44.1479L104.549 44.4521ZM104.761 41.8C104.761 36.9959 103.362 33.0589 100.477 30.1017L99.0452 31.4983C101.493 34.0078 102.761 37.4041 102.761 41.8H104.761ZM100.494 30.1195C97.6665 27.0748 93.7777 25.6 88.9609 25.6V27.6C93.3442 27.6 96.6554 28.9252 99.0281 31.4804L100.494 30.1195ZM88.9609 25.6C85.862 25.6 82.843 26.3409 79.9137 27.8056L80.8082 29.5944C83.4789 28.2591 86.1932 27.6 88.9609 27.6V25.6ZM79.9137 27.8056C76.9975 29.2637 74.3678 31.2734 72.0246 33.8234L73.4973 35.1766C75.6874 32.7932 78.1244 30.9363 80.8082 29.5944L79.9137 27.8056ZM72.0246 33.8234C69.6702 36.3855 67.8076 39.3908 66.4325 42.8286L68.2894 43.5714C69.581 40.3425 71.3183 37.5478 73.4973 35.1766L72.0246 33.8234ZM66.4351 42.8221C65.0491 46.2177 64.3609 49.8805 64.3609 53.8H66.3609C66.3609 50.1195 67.0061 46.7156 68.2868 43.5779L66.4351 42.8221ZM64.3609 53.8C64.3609 57.3973 65.0535 60.6506 66.4622 63.5384L68.2597 62.6616C67.0017 60.0828 66.3609 57.1361 66.3609 53.8H64.3609ZM66.4665 63.5472C67.8837 66.3816 69.9471 68.6237 72.6431 70.2555L73.6787 68.5445C71.3082 67.1097 69.5048 65.1517 68.2554 62.6528L66.4665 63.5472ZM72.6599 70.2654C75.3769 71.8384 78.6252 72.6 82.3609 72.6V70.6C78.8967 70.6 76.0117 69.8949 73.662 68.5346L72.6599 70.2654ZM82.3609 72.6C86.0236 72.6 89.4601 71.9082 92.6597 70.5171L91.8622 68.6829C88.9284 69.9585 85.765 70.6 82.3609 70.6V72.6ZM92.6689 70.513C95.8881 69.0746 98.6805 67.2854 101.035 65.139L99.6872 63.661C97.508 65.6479 94.9005 67.3254 91.853 68.687L92.6689 70.513ZM99.5522 64.9882L101.152 67.1882L102.77 66.0118L101.17 63.8118L99.5522 64.9882ZM101.291 65.8579C99.3242 67.6341 96.6217 69.3163 93.1484 70.889L93.9734 72.711C97.5669 71.0837 100.464 69.2993 102.631 67.3421L101.291 65.8579ZM93.1419 70.892C89.8172 72.4265 86.1617 73.2 82.1609 73.2V75.2C86.4269 75.2 90.3714 74.3735 93.98 72.708L93.1419 70.892ZM139.322 71.6L138.677 72.3643L138.684 72.3703L138.691 72.3761L139.322 71.6ZM136.222 61.2L135.238 61.0211L135.23 61.065L135.226 61.1095L136.222 61.2ZM136.722 58.8L137.696 59.0249L137.699 59.0115L137.702 58.9982L136.722 58.8ZM147.922 3.4L148.902 3.59815L149.144 2.4H147.922V3.4ZM130.122 3.4L129.147 3.17514L128.865 4.4H130.122V3.4ZM130.722 0.799994V-0.200006H129.926L129.747 0.575135L130.722 0.799994ZM151.122 0.799994L152.103 0.99545L152.341 -0.200006H151.122V0.799994ZM139.722 58L140.696 58.2249L140.7 58.2102L140.703 58.1955L139.722 58ZM139.222 60.6L138.234 60.4479L138.228 60.4855L138.225 60.5233L139.222 60.6ZM141.422 69.6L140.748 70.3385L140.757 70.3467L140.766 70.3546L141.422 69.6ZM152.922 70.9L153.182 71.8656L153.199 71.861L153.216 71.8558L152.922 70.9ZM158.322 68.6L159.231 68.1833L158.788 67.2161L157.85 67.7185L158.322 68.6ZM159.422 71L159.894 71.8815L160.723 71.4377L160.331 70.5833L159.422 71ZM153.522 73.3L153.272 72.3317L153.253 72.3366L153.235 72.3422L153.522 73.3ZM147.322 73.2C144.312 73.2 141.879 72.3893 139.952 70.8239L138.691 72.3761C141.031 74.2774 143.932 75.2 147.322 75.2V73.2ZM139.967 70.8357C138.124 69.2813 137.122 66.8707 137.122 63.4H135.122C135.122 67.2626 136.253 70.3187 138.677 72.3643L139.967 70.8357ZM137.122 63.4C137.122 62.697 137.154 61.9939 137.218 61.2905L135.226 61.1095C135.157 61.8728 135.122 62.6363 135.122 63.4H137.122ZM137.206 61.3789C137.336 60.6635 137.499 59.8791 137.696 59.0249L135.747 58.5751C135.545 59.4542 135.375 60.2698 135.238 61.0211L137.206 61.3789ZM137.702 58.9982L148.902 3.59815L146.942 3.20184L135.742 58.6018L137.702 58.9982ZM147.922 2.4H130.122V4.4H147.922V2.4ZM131.096 3.62486L131.696 1.02485L129.747 0.575135L129.147 3.17514L131.096 3.62486ZM130.722 1.79999H151.122V-0.200006H130.722V1.79999ZM150.141 0.604537L138.741 57.8045L140.703 58.1955L152.103 0.99545L150.141 0.604537ZM138.747 57.7751C138.542 58.6655 138.371 59.5565 138.234 60.4479L140.21 60.7521C140.34 59.9102 140.502 59.0678 140.696 58.2249L138.747 57.7751ZM138.225 60.5233C138.157 61.411 138.122 62.2369 138.122 63H140.122C140.122 62.2964 140.154 61.5224 140.219 60.6767L138.225 60.5233ZM138.122 63C138.122 66.1538 138.928 68.6776 140.748 70.3385L142.096 68.8615C140.849 67.7224 140.122 65.8462 140.122 63H138.122ZM140.766 70.3546C142.532 71.8901 144.891 72.6 147.722 72.6V70.6C145.22 70.6 143.379 69.9765 142.078 68.8454L140.766 70.3546ZM147.722 72.6C149.546 72.6 151.367 72.3543 153.182 71.8656L152.662 69.9344C151.01 70.379 149.364 70.6 147.722 70.6V72.6ZM153.216 71.8558C155.02 71.3006 156.88 70.507 158.794 69.4815L157.85 67.7185C156.031 68.693 154.29 69.4327 152.628 69.9442L153.216 71.8558ZM157.413 69.0167L158.513 71.4167L160.331 70.5833L159.231 68.1833L157.413 69.0167ZM158.95 70.1185C157.154 71.0805 155.262 71.8182 153.272 72.3317L153.772 74.2683C155.915 73.7152 157.956 72.9195 159.894 71.8815L158.95 70.1185ZM153.235 72.3422C151.33 72.9136 149.36 73.2 147.322 73.2V75.2C149.55 75.2 151.714 74.8864 153.809 74.2578L153.235 72.3422ZM199.283 71.6L198.638 72.3643L198.645 72.3703L198.652 72.3761L199.283 71.6ZM196.183 61.2L195.199 61.0211L195.191 61.065L195.187 61.1095L196.183 61.2ZM196.683 58.8L197.657 59.0249L197.66 59.0115L197.663 58.9982L196.683 58.8ZM207.883 3.4L208.863 3.59815L209.105 2.4H207.883V3.4ZM190.083 3.4L189.108 3.17514L188.826 4.4H190.083V3.4ZM190.683 0.799994V-0.200006H189.887L189.708 0.575135L190.683 0.799994ZM211.083 0.799994L212.064 0.99545L212.302 -0.200006H211.083V0.799994ZM199.683 58L200.657 58.2249L200.661 58.2102L200.664 58.1955L199.683 58ZM199.183 60.6L198.194 60.4479L198.189 60.4855L198.186 60.5233L199.183 60.6ZM201.383 69.6L200.709 70.3385L200.717 70.3467L200.727 70.3546L201.383 69.6ZM212.883 70.9L213.143 71.8656L213.16 71.861L213.177 71.8558L212.883 70.9ZM218.283 68.6L219.192 68.1833L218.749 67.2161L217.811 67.7185L218.283 68.6ZM219.383 71L219.855 71.8815L220.683 71.4377L220.292 70.5833L219.383 71ZM213.483 73.3L213.233 72.3317L213.214 72.3366L213.195 72.3422L213.483 73.3ZM207.283 73.2C204.273 73.2 201.84 72.3893 199.913 70.8239L198.652 72.3761C200.992 74.2774 203.893 75.2 207.283 75.2V73.2ZM199.928 70.8357C198.085 69.2813 197.083 66.8707 197.083 63.4H195.083C195.083 67.2626 196.214 70.3187 198.638 72.3643L199.928 70.8357ZM197.083 63.4C197.083 62.697 197.115 61.9939 197.179 61.2905L195.187 61.1095C195.118 61.8728 195.083 62.6363 195.083 63.4H197.083ZM197.167 61.3789C197.297 60.6635 197.46 59.8791 197.657 59.0249L195.708 58.5751C195.506 59.4542 195.336 60.2698 195.199 61.0211L197.167 61.3789ZM197.663 58.9982L208.863 3.59815L206.903 3.20184L195.703 58.6018L197.663 58.9982ZM207.883 2.4H190.083V4.4H207.883V2.4ZM191.057 3.62486L191.657 1.02485L189.708 0.575135L189.108 3.17514L191.057 3.62486ZM190.683 1.79999H211.083V-0.200006H190.683V1.79999ZM210.102 0.604537L198.702 57.8045L200.664 58.1955L212.064 0.99545L210.102 0.604537ZM198.708 57.7751C198.503 58.6655 198.332 59.5565 198.194 60.4479L200.171 60.7521C200.301 59.9102 200.463 59.0678 200.657 58.2249L198.708 57.7751ZM198.186 60.5233C198.117 61.411 198.083 62.2369 198.083 63H200.083C200.083 62.2964 200.115 61.5224 200.18 60.6767L198.186 60.5233ZM198.083 63C198.083 66.1538 198.889 68.6776 200.709 70.3385L202.057 68.8615C200.81 67.7224 200.083 65.8462 200.083 63H198.083ZM200.727 70.3546C202.492 71.8901 204.852 72.6 207.683 72.6V70.6C205.181 70.6 203.34 69.9765 202.039 68.8454L200.727 70.3546ZM207.683 72.6C209.507 72.6 211.328 72.3543 213.143 71.8656L212.623 69.9344C210.971 70.379 209.325 70.6 207.683 70.6V72.6ZM213.177 71.8558C214.981 71.3006 216.841 70.507 218.755 69.4815L217.811 67.7185C215.992 68.693 214.251 69.4327 212.589 69.9442L213.177 71.8558ZM217.374 69.0167L218.474 71.4167L220.292 70.5833L219.192 68.1833L217.374 69.0167ZM218.911 70.1185C217.115 71.0805 215.223 71.8182 213.233 72.3317L213.733 74.2683C215.876 73.7152 217.917 72.9195 219.855 71.8815L218.911 70.1185ZM213.195 72.3422C211.291 72.9136 209.321 73.2 207.283 73.2V75.2C209.511 75.2 211.675 74.8864 213.77 74.2578L213.195 72.3422ZM249.144 71.6L248.603 72.4412L248.615 72.4486L248.626 72.4557L249.144 71.6ZM242.644 64.3L241.738 64.7239L241.744 64.7356L241.749 64.7472L242.644 64.3ZM242.544 42.1L241.618 41.7227L241.614 41.7316L242.544 42.1ZM248.444 32.7L247.71 32.0202L247.71 32.021L248.444 32.7ZM257.144 26.3L256.726 25.3915L256.719 25.3948L257.144 26.3ZM277.844 26.7L277.303 27.5412L277.315 27.5486L277.326 27.5557L277.844 26.7ZM284.344 34L283.438 34.4239L283.444 34.4356L283.449 34.4472L284.344 34ZM284.444 56.1L283.518 55.7227L283.515 55.7301L283.512 55.7376L284.444 56.1ZM278.544 65.6L277.81 64.9202L277.81 64.921L278.544 65.6ZM269.944 71.9L269.519 70.9948L269.944 71.9ZM268.744 69.5L268.313 68.5975L268.305 68.6014L268.744 69.5ZM276.544 63.8L277.271 64.4867L277.28 64.4766L276.544 63.8ZM281.844 55.3L280.921 54.9154L280.917 54.9236L280.914 54.932L281.844 55.3ZM279.544 31.7L280.308 31.0554L280.308 31.0554L279.544 31.7ZM258.244 28.7L257.813 27.7975L257.805 27.8014L258.244 28.7ZM250.544 34.5L251.271 35.1867L251.28 35.1766L250.544 34.5ZM245.144 42.9L244.221 42.5154L244.217 42.5236L244.214 42.5319L245.144 42.9ZM247.544 66.5L248.308 65.8554L248.308 65.8554L247.544 66.5ZM259.444 73.2C255.591 73.2 252.344 72.3663 249.661 70.7443L248.626 72.4557C251.677 74.3003 255.297 75.2 259.444 75.2V73.2ZM249.685 70.7588C247.04 69.059 244.994 66.7638 243.538 63.8528L241.749 64.7472C243.36 67.9695 245.647 70.541 248.603 72.4412L249.685 70.7588ZM243.549 63.8761C242.154 60.8946 241.444 57.4763 241.444 53.6H239.444C239.444 57.7237 240.2 61.4387 241.738 64.7239L243.549 63.8761ZM241.444 53.6C241.444 49.5817 242.124 45.8746 243.473 42.4684L241.614 41.7316C240.164 45.3921 239.444 49.3516 239.444 53.6H241.444ZM243.47 42.4773C244.894 38.9807 246.798 35.9515 249.178 33.379L247.71 32.021C245.156 34.7819 243.126 38.0193 241.618 41.7227L243.47 42.4773ZM249.177 33.3798C251.626 30.7376 254.422 28.6821 257.569 27.2052L256.719 25.3948C253.332 26.9845 250.328 29.1958 247.71 32.0202L249.177 33.3798ZM257.562 27.2085C260.764 25.7354 264.121 25 267.644 25V23C263.833 23 260.19 23.7979 256.726 25.3915L257.562 27.2085ZM267.644 25C271.491 25 274.694 25.8642 277.303 27.5412L278.385 25.8588C275.393 23.9358 271.796 23 267.644 23V25ZM277.326 27.5557C280.018 29.1832 282.052 31.4636 283.438 34.4239L285.249 33.5761C283.702 30.2698 281.403 27.6835 278.361 25.8443L277.326 27.5557ZM283.449 34.4472C284.903 37.3536 285.644 40.7294 285.644 44.6H287.644C287.644 40.4706 286.852 36.7797 285.238 33.5528L283.449 34.4472ZM285.644 44.6C285.644 48.5434 284.933 52.248 283.518 55.7227L285.37 56.4773C286.888 52.752 287.644 48.79 287.644 44.6H285.644ZM283.512 55.7376C282.156 59.2246 280.255 62.2826 277.81 64.9202L279.277 66.2798C281.899 63.4507 283.932 60.1754 285.376 56.4624L283.512 55.7376ZM277.81 64.921C275.43 67.4936 272.668 69.5166 269.519 70.9948L270.369 72.8052C273.753 71.2168 276.724 69.0397 279.278 66.279L277.81 64.921ZM269.519 70.9948C266.39 72.4635 263.035 73.2 259.444 73.2V75.2C263.319 75.2 266.964 74.4032 270.369 72.8052L269.519 70.9948ZM259.644 72.6C262.995 72.6 266.179 71.8655 269.183 70.3986L268.305 68.6014C265.575 69.9345 262.692 70.6 259.644 70.6V72.6ZM269.174 70.4025C272.221 68.9486 274.921 66.9748 277.271 64.4866L275.817 63.1134C273.633 65.4252 271.133 67.2514 268.313 68.5975L269.174 70.4025ZM277.28 64.4766C279.632 61.9173 281.463 58.9787 282.774 55.668L280.914 54.932C279.691 58.0213 277.989 60.7493 275.807 63.1234L277.28 64.4766ZM282.767 55.6846C284.152 52.3604 284.844 48.8628 284.844 45.2H282.844C282.844 48.6039 282.202 51.8396 280.921 54.9154L282.767 55.6846ZM284.844 45.2C284.844 39.4269 283.363 34.6786 280.308 31.0554L278.779 32.3446C281.458 35.5214 282.844 39.7731 282.844 45.2H284.844ZM280.308 31.0554C277.219 27.3909 272.883 25.6 267.444 25.6V27.6C272.404 27.6 276.136 29.2091 278.779 32.3446L280.308 31.0554ZM267.444 25.6C264.092 25.6 260.879 26.3344 257.813 27.7975L258.674 29.6025C261.475 28.2656 264.395 27.6 267.444 27.6V25.6ZM257.805 27.8014C254.821 29.2589 252.154 31.2695 249.807 33.8234L251.28 35.1766C253.467 32.7972 255.934 30.9411 258.683 29.5986L257.805 27.8014ZM249.817 33.8134C247.463 36.3057 245.598 39.2093 244.221 42.5154L246.067 43.2846C247.356 40.1906 249.091 37.4943 251.271 35.1866L249.817 33.8134ZM244.214 42.5319C242.9 45.8523 242.244 49.3441 242.244 53H244.244C244.244 49.5892 244.855 46.3477 246.074 43.268L244.214 42.5319ZM242.244 53C242.244 58.7731 243.724 63.5214 246.779 67.1446L248.308 65.8554C245.63 62.6786 244.244 58.4269 244.244 53H242.244ZM246.779 67.1446C249.869 70.8091 254.204 72.6 259.644 72.6V70.6C254.683 70.6 250.952 68.9909 248.308 65.8554L246.779 67.1446ZM375.366 70.6L374.609 71.2542L374.619 71.2651L374.628 71.2757L375.366 70.6ZM372.366 58L371.385 57.8039L371.379 57.8357L371.374 57.8678L372.366 58ZM372.966 55L371.986 54.7983L371.985 54.8039L372.966 55ZM378.566 27.8L379.545 28.0017L379.792 26.8H378.566V27.8ZM363.566 27.8L362.582 27.6211L362.367 28.8H363.566V27.8ZM363.966 25.6L363.939 24.6003L363.127 24.6217L362.982 25.4211L363.966 25.6ZM379.166 25.2L379.192 26.1997L379.97 26.1792L380.141 25.4195L379.166 25.2ZM382.766 9.2V8.2H381.966L381.79 8.98049L382.766 9.2ZM385.166 9.2L386.146 9.39612L386.385 8.2H385.166V9.2ZM381.966 25.2L380.985 25.0039L380.746 26.2H381.966V25.2ZM408.166 25.2L409.14 25.4249L409.423 24.2H408.166V25.2ZM407.566 27.8V28.8H408.361L408.54 28.0249L407.566 27.8ZM381.366 27.8V26.8H380.552L380.386 27.5972L381.366 27.8ZM375.566 55.8L376.54 56.0249L376.543 56.0139L376.545 56.0028L375.566 55.8ZM375.066 58.4L374.077 58.2479L374.072 58.2823L374.069 58.317L375.066 58.4ZM377.766 68.9L377.059 69.6071L377.071 69.6197L377.084 69.6319L377.766 68.9ZM393.066 70.7L393.322 71.6667L393.331 71.6642L393.34 71.6615L393.066 70.7ZM399.366 68.2L400.244 67.7211L399.768 66.8498L398.893 67.3185L399.366 68.2ZM400.566 70.4L401.08 71.2575L401.903 70.7637L401.444 69.9211L400.566 70.4ZM393.666 73.2L393.417 72.2313L393.411 72.2329L393.666 73.2ZM385.366 73.2C381.071 73.2 378.051 72.0495 376.103 69.9243L374.628 71.2757C377.08 73.9505 380.727 75.2 385.366 75.2V73.2ZM376.122 69.9458C374.171 67.6903 373.166 64.8017 373.166 61.2H371.166C371.166 65.1983 372.293 68.5764 374.609 71.2542L376.122 69.9458ZM373.166 61.2C373.166 60.1056 373.23 59.0834 373.357 58.1322L371.374 57.8678C371.235 58.9166 371.166 60.0278 371.166 61.2H373.166ZM373.346 58.1961C373.546 57.1961 373.746 56.1961 373.946 55.1961L371.985 54.8039C371.785 55.8039 371.585 56.8039 371.385 57.8039L373.346 58.1961ZM373.945 55.2017L379.545 28.0017L377.586 27.5983L371.986 54.7983L373.945 55.2017ZM378.566 26.8H363.566V28.8H378.566V26.8ZM364.549 27.9789L364.949 25.7789L362.982 25.4211L362.582 27.6211L364.549 27.9789ZM363.992 26.5997L379.192 26.1997L379.139 24.2003L363.939 24.6003L363.992 26.5997ZM380.141 25.4195L383.741 9.41951L381.79 8.98049L378.19 24.9805L380.141 25.4195ZM382.766 10.2H385.166V8.2H382.766V10.2ZM384.185 9.00388L380.985 25.0039L382.946 25.3961L386.146 9.39612L384.185 9.00388ZM381.966 26.2H408.166V24.2H381.966V26.2ZM407.191 24.9751L406.591 27.5751L408.54 28.0249L409.14 25.4249L407.191 24.9751ZM407.566 26.8H381.366V28.8H407.566V26.8ZM380.386 27.5972L374.586 55.5972L376.545 56.0028L382.345 28.0028L380.386 27.5972ZM374.591 55.5751C374.386 56.4655 374.214 57.3565 374.077 58.2479L376.054 58.5521C376.184 57.7102 376.345 56.8678 376.54 56.0249L374.591 55.5751ZM374.069 58.317C374 59.1445 373.966 59.9722 373.966 60.8H375.966C375.966 60.0278 375.998 59.2555 376.062 58.483L374.069 58.317ZM373.966 60.8C373.966 64.5059 374.948 67.4962 377.059 69.6071L378.473 68.1929C376.85 66.5704 375.966 64.1607 375.966 60.8H373.966ZM377.084 69.6319C379.244 71.6427 382.109 72.6 385.566 72.6V70.6C382.489 70.6 380.154 69.7573 378.447 68.1681L377.084 69.6319ZM385.566 72.6C388.371 72.6 390.959 72.2921 393.322 71.6667L392.81 69.7333C390.639 70.3079 388.226 70.6 385.566 70.6V72.6ZM393.34 71.6615C395.732 70.9781 397.9 70.1196 399.838 69.0815L398.893 67.3185C397.098 68.2804 395.065 69.0886 392.791 69.7385L393.34 71.6615ZM398.488 68.6789L399.688 70.8789L401.444 69.9211L400.244 67.7211L398.488 68.6789ZM400.051 69.5425C398.145 70.686 395.937 71.5851 393.417 72.2313L393.914 74.1687C396.594 73.4815 398.986 72.514 401.08 71.2575L400.051 69.5425ZM393.411 72.2329C390.972 72.8748 388.292 73.2 385.366 73.2V75.2C388.439 75.2 391.293 74.8585 393.92 74.1671L393.411 72.2329ZM419.927 73L418.946 72.8044L418.707 74H419.927V73ZM434.327 0.799994V-0.200006H433.506L433.346 0.6044L434.327 0.799994ZM437.127 0.799994L438.107 0.997334L438.348 -0.200006H437.127V0.799994ZM430.927 31.6L431.904 31.8124L431.905 31.8049L431.907 31.7973L430.927 31.6ZM429.927 36.2L428.949 35.9876L428.686 37.2H429.927V36.2ZM430.327 36.2V37.2H430.723L431.012 36.9282L430.327 36.2ZM437.327 30.2L436.723 29.4025L436.713 29.4106L437.327 30.2ZM445.127 25.7L444.751 24.773L444.744 24.7763L445.127 25.7ZM463.727 27.3L464.489 26.653L463.727 27.3ZM466.227 40L465.238 39.8517L465.234 39.8734L465.232 39.8953L466.227 40ZM465.527 44L464.554 43.7684L464.55 43.7861L464.546 43.8039L465.527 44ZM459.727 73V74H460.546L460.707 73.1961L459.727 73ZM456.927 73L455.946 72.8026L455.705 74H456.927V73ZM462.727 44.2L461.749 43.9876L461.748 43.9951L461.746 44.0026L462.727 44.2ZM463.427 40L462.439 39.844L462.435 39.8696L462.432 39.8953L463.427 40ZM461.227 29.1L460.519 29.8071L460.527 29.8143L460.534 29.8214L461.227 29.1ZM441.527 30.4L442.051 31.2512L442.055 31.2488L441.527 30.4ZM429.327 40.6L428.603 39.9098L428.404 40.1182L428.347 40.4004L429.327 40.6ZM422.727 73V74H423.543L423.706 73.1996L422.727 73ZM420.907 73.1956L435.307 0.995587L433.346 0.6044L418.946 72.8044L420.907 73.1956ZM434.327 1.79999H437.127V-0.200006H434.327V1.79999ZM436.146 0.602654L429.946 31.4027L431.907 31.7973L438.107 0.997334L436.146 0.602654ZM429.949 31.3876L428.949 35.9876L430.904 36.4124L431.904 31.8124L429.949 31.3876ZM429.927 37.2H430.327V35.2H429.927V37.2ZM431.012 36.9282C433.256 34.8158 435.566 32.8363 437.941 30.9893L436.713 29.4106C434.287 31.297 431.93 33.3175 429.641 35.4718L431.012 36.9282ZM437.93 30.9974C440.332 29.1797 442.858 27.7231 445.51 26.6237L444.744 24.7763C441.928 25.9436 439.255 27.4869 436.723 29.4026L437.93 30.9974ZM445.502 26.6269C448.171 25.5466 451.108 25 454.327 25V23C450.878 23 447.682 23.5867 444.751 24.7731L445.502 26.6269ZM454.327 25C458.588 25 461.369 26.0671 462.964 27.947L464.489 26.653C462.351 24.1329 458.865 23 454.327 23V25ZM462.964 27.947C464.654 29.9387 465.527 32.4647 465.527 35.6H467.527C467.527 32.0686 466.532 29.0613 464.489 26.653L462.964 27.947ZM465.527 35.6C465.527 37.1592 465.429 38.5755 465.238 39.8517L467.216 40.1483C467.424 38.7578 467.527 37.2408 467.527 35.6H465.527ZM465.232 39.8953C465.104 41.1142 464.878 42.4049 464.554 43.7684L466.499 44.2316C466.841 42.7951 467.083 41.4192 467.221 40.1047L465.232 39.8953ZM464.546 43.8039L458.746 72.8039L460.707 73.1961L466.507 44.1961L464.546 43.8039ZM459.727 72H456.927V74H459.727V72ZM457.907 73.1974L463.707 44.3974L461.746 44.0026L455.946 72.8026L457.907 73.1974ZM463.704 44.4124C464.043 42.8513 464.283 41.4147 464.421 40.1047L462.432 39.8953C462.303 41.1186 462.077 42.482 461.749 43.9876L463.704 44.4124ZM464.414 40.156C464.623 38.8333 464.727 37.4475 464.727 36H462.727C462.727 37.3525 462.63 38.6334 462.439 39.844L464.414 40.156ZM464.727 36C464.727 32.813 463.836 30.2191 461.919 28.3786L460.534 29.8214C461.95 31.1809 462.727 33.187 462.727 36H464.727ZM461.934 28.3929C460.02 26.4795 457.294 25.6 453.927 25.6V27.6C456.959 27.6 459.099 28.3871 460.519 29.8071L461.934 28.3929ZM453.927 25.6C449.514 25.6 445.2 26.9333 440.998 29.5512L442.055 31.2488C445.986 28.8 449.939 27.6 453.927 27.6V25.6ZM441.002 29.5488C436.912 32.0707 432.78 35.5306 428.603 39.9098L430.05 41.2902C434.14 37.0028 438.141 33.6626 442.051 31.2512L441.002 29.5488ZM428.347 40.4004L421.747 72.8004L423.706 73.1996L430.306 40.7996L428.347 40.4004ZM422.727 72H419.927V74H422.727V72ZM491.288 71.8L490.793 72.6695L490.801 72.6737L490.809 72.6779L491.288 71.8ZM484.588 64.8L483.693 65.2472L483.697 65.2551L484.588 64.8ZM484.388 42.1L483.459 41.7286L483.455 41.7376L484.388 42.1ZM490.288 32.6L489.554 31.9202L489.553 31.921L490.288 32.6ZM498.888 26.3L499.304 27.2091L499.312 27.2052L498.888 26.3ZM521.888 29.2L522.651 28.5541L522.651 28.5541L521.888 29.2ZM525.888 46.2L524.909 45.994L524.905 46.0147L524.901 46.0356L525.888 46.2ZM525.288 48.8V49.8H525.981L526.224 49.1511L525.288 48.8ZM484.688 48.8L483.713 48.5751L483.43 49.8H484.688V48.8ZM485.288 46.2V45.2H484.492L484.313 45.9751L485.288 46.2ZM525.488 46.2L525.712 47.1744L525.488 45.2V46.2ZM522.888 46.8L521.917 46.5575L521.521 48.1415L523.112 47.7744L522.888 46.8ZM523.288 44.3L522.299 44.1479L522.293 44.1855L522.29 44.2233L523.288 44.3ZM519.488 30.8L518.755 31.4804L518.763 31.4895L518.772 31.4983L519.488 30.8ZM492.488 34.5L491.751 33.8234L491.751 33.8234L492.488 34.5ZM487.088 43.2L488.013 43.5779L488.016 43.5714L487.088 43.2ZM487.088 63.1L486.189 63.5384L486.193 63.5472L487.088 63.1ZM492.888 69.4L492.37 70.2555L492.378 70.2605L492.386 70.2654L492.888 69.4ZM511.988 69.6L512.386 70.5171L512.395 70.513L511.988 69.6ZM520.088 64.4L520.896 63.8118L520.239 62.9084L519.414 63.661L520.088 64.4ZM521.688 66.6L522.358 67.3421L523.025 66.7392L522.496 66.0118L521.688 66.6ZM513.288 71.8L512.875 70.889L512.868 70.892L513.288 71.8ZM501.888 73.2C497.882 73.2 494.522 72.4251 491.766 70.9221L490.809 72.6779C493.92 74.3749 497.626 75.2 501.888 75.2V73.2ZM491.782 70.9305C489.018 69.3602 486.922 67.1708 485.478 64.3449L483.697 65.2551C485.319 68.4292 487.691 70.9065 490.793 72.6695L491.782 70.9305ZM485.482 64.3528C484.031 61.4507 483.288 58.0096 483.288 54H481.288C481.288 58.257 482.077 62.016 483.693 65.2472L485.482 64.3528ZM483.288 54C483.288 49.7756 483.97 45.9337 485.32 42.4624L483.455 41.7376C482.005 45.4663 481.288 49.5577 481.288 54H483.288ZM485.316 42.4714C486.741 38.9084 488.645 35.8484 491.022 33.279L489.553 31.921C486.997 34.685 484.967 37.9583 483.459 41.7286L485.316 42.4714ZM491.021 33.2798C493.47 30.6372 496.231 28.6177 499.304 27.2091L498.471 25.3909C495.144 26.9156 492.172 29.0961 489.554 31.9202L491.021 33.2798ZM499.312 27.2052C502.449 25.7329 505.704 25 509.088 25V23C505.404 23 501.859 23.8004 498.463 25.3948L499.312 27.2052ZM509.088 25C514.468 25 518.424 26.6553 521.124 29.8459L522.651 28.5541C519.484 24.8114 514.907 23 509.088 23V25ZM521.124 29.8459C523.885 33.1085 525.288 37.1704 525.288 42.1H527.288C527.288 36.7629 525.757 32.2248 522.651 28.5541L521.124 29.8459ZM525.288 42.1C525.288 43.5064 525.16 44.8033 524.909 45.994L526.866 46.406C527.149 45.0633 527.288 43.6269 527.288 42.1H525.288ZM524.901 46.0356C524.703 47.2267 524.515 48.0121 524.351 48.4489L526.224 49.1511C526.46 48.5212 526.672 47.5733 526.874 46.3644L524.901 46.0356ZM525.288 47.8H484.688V49.8H525.288V47.8ZM485.662 49.0249L486.262 46.4249L484.313 45.9751L483.713 48.5751L485.662 49.0249ZM485.288 47.2H525.488V45.2H485.288V47.2ZM525.263 45.2256L522.663 45.8256L523.112 47.7744L525.712 47.1744L525.263 45.2256ZM523.858 47.0425C524.072 46.1853 524.214 45.2963 524.285 44.3767L522.29 44.2233C522.228 45.037 522.103 45.8147 521.917 46.5575L523.858 47.0425ZM524.276 44.4521C524.416 43.5398 524.488 42.6555 524.488 41.8H522.488C522.488 42.5445 522.425 43.3269 522.299 44.1479L524.276 44.4521ZM524.488 41.8C524.488 36.9959 523.088 33.0589 520.203 30.1017L518.772 31.4983C521.22 34.0078 522.488 37.4041 522.488 41.8H524.488ZM520.22 30.1195C517.393 27.0748 513.504 25.6 508.688 25.6V27.6C513.071 27.6 516.382 28.9252 518.755 31.4804L520.22 30.1195ZM508.688 25.6C505.589 25.6 502.57 26.3409 499.64 27.8056L500.535 29.5944C503.205 28.2591 505.92 27.6 508.688 27.6V25.6ZM499.64 27.8056C496.724 29.2637 494.094 31.2734 491.751 33.8234L493.224 35.1766C495.414 32.7932 497.851 30.9363 500.535 29.5944L499.64 27.8056ZM491.751 33.8234C489.397 36.3855 487.534 39.3908 486.159 42.8286L488.016 43.5714C489.308 40.3425 491.045 37.5478 493.224 35.1766L491.751 33.8234ZM486.162 42.8221C484.776 46.2177 484.088 49.8805 484.088 53.8H486.088C486.088 50.1195 486.733 46.7156 488.013 43.5779L486.162 42.8221ZM484.088 53.8C484.088 57.3973 484.78 60.6506 486.189 63.5384L487.986 62.6616C486.728 60.0828 486.088 57.1361 486.088 53.8H484.088ZM486.193 63.5472C487.61 66.3816 489.674 68.6237 492.37 70.2555L493.405 68.5445C491.035 67.1097 489.231 65.1517 487.982 62.6528L486.193 63.5472ZM492.386 70.2654C495.103 71.8384 498.352 72.6 502.088 72.6V70.6C498.623 70.6 495.738 69.8949 493.389 68.5346L492.386 70.2654ZM502.088 72.6C505.75 72.6 509.187 71.9082 512.386 70.5171L511.589 68.6829C508.655 69.9585 505.492 70.6 502.088 70.6V72.6ZM512.395 70.513C515.615 69.0746 518.407 67.2854 520.761 65.139L519.414 63.661C517.235 65.6479 514.627 67.3254 511.58 68.687L512.395 70.513ZM519.279 64.9882L520.879 67.1882L522.496 66.0118L520.896 63.8118L519.279 64.9882ZM521.017 65.8579C519.051 67.6341 516.348 69.3163 512.875 70.889L513.7 72.711C517.293 71.0837 520.191 69.2993 522.358 67.3421L521.017 65.8579ZM512.868 70.892C509.544 72.4265 505.888 73.2 501.888 73.2V75.2C506.153 75.2 510.098 74.3735 513.707 72.708L512.868 70.892ZM546.248 73L545.268 72.8031L545.028 74H546.248V73ZM555.848 25.2V24.2H555.029L554.868 25.0031L555.848 25.2ZM558.248 25.2L559.233 25.3777L559.445 24.2H558.248V25.2ZM555.648 39.6L554.664 39.4223L554.452 40.6H555.648V39.6ZM556.048 39.6V40.6H556.562L556.861 40.1832L556.048 39.6ZM570.048 26.3L569.568 25.4229L569.559 25.4279L570.048 26.3ZM584.348 24.7L584.057 25.6567L584.068 25.66L584.348 24.7ZM588.648 26.8L589.48 27.3547L590.01 26.5609L589.242 25.9949L588.648 26.8ZM587.048 29.2L586.455 30.0051L587.299 30.6268L587.88 29.7547L587.048 29.2ZM566.248 31.9L565.607 31.1328L565.601 31.1381L566.248 31.9ZM554.648 45L553.829 44.4265L553.709 44.5983L553.668 44.8039L554.648 45ZM549.048 73V74H549.868L550.029 73.1961L549.048 73ZM547.229 73.1969L556.829 25.3969L554.868 25.0031L545.268 72.8031L547.229 73.1969ZM555.848 26.2H558.248V24.2H555.848V26.2ZM557.264 25.0223L554.664 39.4223L556.633 39.7777L559.233 25.3777L557.264 25.0223ZM555.648 40.6H556.048V38.6H555.648V40.6ZM556.861 40.1832C558.695 37.6286 560.759 35.2032 563.056 32.9071L561.641 31.4929C559.271 33.8634 557.135 36.3714 555.236 39.0168L556.861 40.1832ZM563.056 32.9071C565.396 30.5665 567.891 28.6571 570.538 27.1721L569.559 25.4279C566.74 27.0095 564.101 29.0335 561.641 31.4929L563.056 32.9071ZM570.529 27.1771C573.188 25.721 575.957 25 578.848 25V23C575.607 23 572.509 23.8124 569.568 25.4229L570.529 27.1771ZM578.848 25C580.914 25 582.644 25.2264 584.057 25.6567L584.64 23.7433C582.987 23.2402 581.05 23 578.848 23V25ZM584.068 25.66C585.562 26.0958 586.889 26.7454 588.055 27.6051L589.242 25.9949C587.875 24.9879 586.334 24.2376 584.628 23.74L584.068 25.66ZM587.816 26.2453L586.216 28.6453L587.88 29.7547L589.48 27.3547L587.816 26.2453ZM587.642 28.3949C586.285 27.3954 584.868 26.6991 583.391 26.3299L582.906 28.2701C584.096 28.5676 585.278 29.138 586.455 30.0051L587.642 28.3949ZM583.391 26.3299C581.961 25.9723 580.343 25.8 578.548 25.8V27.8C580.22 27.8 581.669 27.961 582.906 28.2701L583.391 26.3299ZM578.548 25.8C574.121 25.8 569.802 27.6257 565.607 31.1328L566.89 32.6672C570.828 29.3742 574.709 27.8 578.548 27.8V25.8ZM565.601 31.1381C561.522 34.6047 557.6 39.0393 553.829 44.4265L555.468 45.5735C559.163 40.294 562.974 35.9953 566.896 32.6619L565.601 31.1381ZM553.668 44.8039L548.068 72.8039L550.029 73.1961L555.629 45.1961L553.668 44.8039ZM549.048 72H546.248V74H549.048V72ZM611.209 71.8L610.715 72.6695L610.723 72.6737L610.731 72.6779L611.209 71.8ZM604.509 64.8L603.615 65.2472L603.619 65.2551L604.509 64.8ZM604.309 42.1L603.381 41.7286L603.377 41.7376L604.309 42.1ZM610.209 32.6L609.476 31.9202L609.475 31.921L610.209 32.6ZM618.809 26.3L619.226 27.2091L619.234 27.2052L618.809 26.3ZM641.809 29.2L642.573 28.5541L642.573 28.5541L641.809 29.2ZM645.809 46.2L644.831 45.994L644.826 46.0147L644.823 46.0356L645.809 46.2ZM645.209 48.8V49.8H645.902L646.146 49.1511L645.209 48.8ZM604.609 48.8L603.635 48.5751L603.352 49.8H604.609V48.8ZM605.209 46.2V45.2H604.414L604.235 45.9751L605.209 46.2ZM645.409 46.2L645.634 47.1744L645.409 45.2V46.2ZM642.809 46.8L641.839 46.5575L641.443 48.1415L643.034 47.7744L642.809 46.8ZM643.209 44.3L642.221 44.1479L642.215 44.1855L642.212 44.2233L643.209 44.3ZM639.409 30.8L638.677 31.4804L638.685 31.4895L638.694 31.4983L639.409 30.8ZM612.409 34.5L611.673 33.8234L611.673 33.8234L612.409 34.5ZM607.009 43.2L607.935 43.5779L607.938 43.5714L607.009 43.2ZM607.009 63.1L606.111 63.5384L606.115 63.5472L607.009 63.1ZM612.809 69.4L612.292 70.2555L612.3 70.2605L612.308 70.2654L612.809 69.4ZM631.909 69.6L632.308 70.5171L632.317 70.513L631.909 69.6ZM640.009 64.4L640.818 63.8118L640.161 62.9084L639.336 63.661L640.009 64.4ZM641.609 66.6L642.28 67.3421L642.947 66.7392L642.418 66.0118L641.609 66.6ZM633.209 71.8L632.797 70.889L632.79 70.892L633.209 71.8ZM621.809 73.2C617.804 73.2 614.444 72.4251 611.688 70.9221L610.731 72.6779C613.842 74.3749 617.548 75.2 621.809 75.2V73.2ZM611.703 70.9305C608.94 69.3602 606.844 67.1708 605.4 64.3449L603.619 65.2551C605.241 68.4292 607.613 70.9065 610.715 72.6695L611.703 70.9305ZM605.404 64.3528C603.953 61.4507 603.209 58.0096 603.209 54H601.209C601.209 58.257 601.999 62.016 603.615 65.2472L605.404 64.3528ZM603.209 54C603.209 49.7756 603.891 45.9337 605.241 42.4624L603.377 41.7376C601.927 45.4663 601.209 49.5577 601.209 54H603.209ZM605.238 42.4714C606.663 38.9084 608.567 35.8484 610.943 33.279L609.475 31.921C606.919 34.685 604.889 37.9583 603.381 41.7286L605.238 42.4714ZM610.943 33.2798C613.392 30.6372 616.153 28.6177 619.226 27.2091L618.393 25.3909C615.066 26.9156 612.093 29.0961 609.476 31.9202L610.943 33.2798ZM619.234 27.2052C622.371 25.7329 625.626 25 629.009 25V23C625.326 23 621.781 23.8004 618.384 25.3948L619.234 27.2052ZM629.009 25C634.39 25 638.346 26.6553 641.046 29.8459L642.573 28.5541C639.406 24.8114 634.829 23 629.009 23V25ZM641.046 29.8459C643.807 33.1085 645.209 37.1704 645.209 42.1H647.209C647.209 36.7629 645.679 32.2248 642.573 28.5541L641.046 29.8459ZM645.209 42.1C645.209 43.5064 645.081 44.8033 644.831 45.994L646.788 46.406C647.071 45.0633 647.209 43.6269 647.209 42.1H645.209ZM644.823 46.0356C644.624 47.2267 644.437 48.0121 644.273 48.4489L646.146 49.1511C646.382 48.5212 646.594 47.5733 646.796 46.3644L644.823 46.0356ZM645.209 47.8H604.609V49.8H645.209V47.8ZM605.584 49.0249L606.184 46.4249L604.235 45.9751L603.635 48.5751L605.584 49.0249ZM605.209 47.2H645.409V45.2H605.209V47.2ZM645.185 45.2256L642.585 45.8256L643.034 47.7744L645.634 47.1744L645.185 45.2256ZM643.78 47.0425C643.994 46.1853 644.136 45.2963 644.206 44.3767L642.212 44.2233C642.15 45.037 642.025 45.8147 641.839 46.5575L643.78 47.0425ZM644.198 44.4521C644.338 43.5398 644.409 42.6555 644.409 41.8H642.409C642.409 42.5445 642.347 43.3269 642.221 44.1479L644.198 44.4521ZM644.409 41.8C644.409 36.9959 643.01 33.0589 640.125 30.1017L638.694 31.4983C641.142 34.0078 642.409 37.4041 642.409 41.8H644.409ZM640.142 30.1195C637.315 27.0748 633.426 25.6 628.609 25.6V27.6C632.993 27.6 636.304 28.9252 638.677 31.4804L640.142 30.1195ZM628.609 25.6C625.51 25.6 622.491 26.3409 619.562 27.8056L620.457 29.5944C623.127 28.2591 625.842 27.6 628.609 27.6V25.6ZM619.562 27.8056C616.646 29.2637 614.016 31.2734 611.673 33.8234L613.146 35.1766C615.336 32.7932 617.773 30.9363 620.457 29.5944L619.562 27.8056ZM611.673 33.8234C609.319 36.3855 607.456 39.3908 606.081 42.8286L607.938 43.5714C609.229 40.3425 610.967 37.5478 613.146 35.1766L611.673 33.8234ZM606.084 42.8221C604.698 46.2177 604.009 49.8805 604.009 53.8H606.009C606.009 50.1195 606.655 46.7156 607.935 43.5779L606.084 42.8221ZM604.009 53.8C604.009 57.3973 604.702 60.6506 606.111 63.5384L607.908 62.6616C606.65 60.0828 606.009 57.1361 606.009 53.8H604.009ZM606.115 63.5472C607.532 66.3816 609.595 68.6237 612.292 70.2555L613.327 68.5445C610.957 67.1097 609.153 65.1517 607.904 62.6528L606.115 63.5472ZM612.308 70.2654C615.025 71.8384 618.274 72.6 622.009 72.6V70.6C618.545 70.6 615.66 69.8949 613.31 68.5346L612.308 70.2654ZM622.009 72.6C625.672 72.6 629.109 71.9082 632.308 70.5171L631.511 68.6829C628.577 69.9585 625.413 70.6 622.009 70.6V72.6ZM632.317 70.513C635.537 69.0746 638.329 67.2854 640.683 65.139L639.336 63.661C637.156 65.6479 634.549 67.3254 631.501 68.687L632.317 70.513ZM639.201 64.9882L640.801 67.1882L642.418 66.0118L640.818 63.8118L639.201 64.9882ZM640.939 65.8579C638.973 67.6341 636.27 69.3163 632.797 70.889L633.622 72.711C637.215 71.0837 640.113 69.2993 642.28 67.3421L640.939 65.8579ZM632.79 70.892C629.466 72.4265 625.81 73.2 621.809 73.2V75.2C626.075 75.2 630.02 74.3735 633.628 72.708L632.79 70.892Z" fill="white"/>
</svg>
