<svg width="42" height="44" viewBox="0 0 42 44" fill="none" xmlns="http://www.w3.org/2000/svg">
<path d="M6.93 34.42C5.6 34.42 4.43333 34.0933 3.43 33.44C2.45 32.7633 1.72667 31.9933 1.26 31.13L2.03 30.57C2.59 31.5033 3.27833 32.2267 4.095 32.74C4.91167 33.2533 5.90333 33.51 7.07 33.51C8.96 33.51 10.4533 32.9267 11.55 31.76C12.6467 30.57 13.4167 28.82 13.86 26.51L16.8 11.81H6.65L6.86 10.9H18.06L14.91 26.615C14.56 28.3417 14.0467 29.7883 13.37 30.955C12.7167 32.1217 11.8533 32.9967 10.78 33.58C9.73 34.14 8.44667 34.42 6.93 34.42ZM23.4363 34L28.0563 10.9H33.9363C35.3363 10.9 36.538 11.0867 37.5413 11.46C38.5447 11.8333 39.3147 12.405 39.8513 13.175C40.388 13.945 40.6563 14.9367 40.6563 16.15C40.6563 17.41 40.4347 18.5183 39.9913 19.475C39.548 20.4083 38.9063 21.19 38.0663 21.82C37.2263 22.45 36.2113 22.9283 35.0213 23.255C33.8313 23.5583 32.4897 23.71 30.9963 23.71H26.5163L24.4863 34H23.4363ZM26.7263 22.8H30.7863C33.703 22.8 35.8963 22.2517 37.3663 21.155C38.8597 20.035 39.6063 18.39 39.6063 16.22C39.6063 14.6333 39.0697 13.5017 37.9963 12.825C36.9463 12.1483 35.383 11.81 33.3063 11.81H28.8963L26.7263 22.8Z" fill="white"/>
</svg>
