<svg xmlns="http://www.w3.org/2000/svg" width="58" height="217" fill="none" viewBox="0 0 58 217">
  <path fill="#fff" d="M23.862 34h.733V12.862h-.718l-5.684 3.648v.805l5.61-3.603h.06V34Z"/>
  <circle cx="23" cy="23" r="22.85" stroke="#fff" stroke-width=".3"/>
  <path fill="#fff" d="M28.423 91H41.87v-.689H29.507v-.058l6.987-7.31c3.545-3.691 4.541-5.39 4.541-7.617v-.03c0-3.266-2.724-5.741-6.284-5.741-3.618 0-6.27 2.46-6.372 5.903h.732c.088-3.032 2.447-5.23 5.64-5.23 3.15 0 5.552 2.212 5.552 5.084v.029c0 2.036-.923 3.574-4.307 7.119l-7.573 7.94v.6Z"/>
  <circle cx="35" cy="80" r="22.85" stroke="#fff" stroke-width=".3"/>
  <path fill="#fff" d="M34.97 148.293c4.029 0 6.988-2.534 6.988-5.991v-.03c0-3.002-2.139-5.068-5.435-5.273v-.059c2.798-.527 4.541-2.431 4.541-5.024v-.029c0-3.033-2.65-5.318-6.298-5.318-3.618 0-6.006 2.242-6.27 5.113l-.015.161h.718l.015-.147c.249-2.461 2.358-4.453 5.552-4.453 3.208 0 5.566 2.007 5.566 4.673v.029c0 2.769-2.373 4.702-5.786 4.702H32.23v.674h2.33c4.174 0 6.665 1.846 6.665 4.951v.03c0 3.047-2.666 5.317-6.255 5.317-3.604 0-5.816-2.08-6.255-4.761l-.015-.087h-.718l.015.102c.425 3.076 2.93 5.42 6.973 5.42Z"/>
  <circle cx="35" cy="137" r="22.85" stroke="#fff" stroke-width=".3"/>
  <path fill="#fff" d="M26.53 205h.718v-5.552h3.472v-.688h-3.472v-15h-.981c-7.925 10.444-9.053 12.011-10.972 15v.688H26.53V205Zm-10.341-6.24v-.059c1.743-2.724 2.534-3.852 10.268-14.048h.073v14.107H16.19Z"/>
  <circle cx="23" cy="194" r="22.85" stroke="#fff" stroke-width=".3"/>
</svg>
