<svg width="84" height="13" viewBox="0 0 84 13" fill="none" xmlns="http://www.w3.org/2000/svg">
<path d="M0.609438 12.1171V0.309065H4.17344C5.04944 0.309065 5.81144 0.423065 6.45944 0.651065C7.11944 0.867065 7.62944 1.22707 7.98944 1.73107C8.36144 2.23506 8.54744 2.91906 8.54744 3.78306C8.54744 4.61106 8.36144 5.29507 7.98944 5.83507C7.62944 6.36307 7.11944 6.76507 6.45944 7.04107C5.79944 7.30507 5.03744 7.43707 4.17344 7.43707H2.10344V12.1171H0.609438ZM2.10344 6.21307H3.99344C5.02544 6.21307 5.78744 6.01507 6.27944 5.61906C6.78344 5.22306 7.03544 4.61106 7.03544 3.78306C7.03544 2.93106 6.78344 2.34306 6.27944 2.01906C5.77544 1.68306 5.01344 1.51506 3.99344 1.51506H2.10344V6.21307ZM11.3664 12.1171V0.309065H15.0384C15.8424 0.309065 16.5504 0.417065 17.1624 0.633065C17.7864 0.837065 18.2724 1.18506 18.6204 1.67706C18.9804 2.15706 19.1604 2.80506 19.1604 3.62106C19.1604 4.41307 18.9804 5.06707 18.6204 5.58307C18.2724 6.09907 17.7864 6.48907 17.1624 6.75307C16.5504 7.00507 15.8424 7.13107 15.0384 7.13107H12.8604V12.1171H11.3664ZM12.8604 5.90706H14.8224C15.7464 5.90706 16.4484 5.72106 16.9284 5.34907C17.4204 4.96507 17.6664 4.38906 17.6664 3.62106C17.6664 2.85307 17.4204 2.31307 16.9284 2.00106C16.4484 1.67706 15.7464 1.51506 14.8224 1.51506H12.8604V5.90706ZM14.7324 6.71707L15.9204 5.92507L19.5204 12.1171H17.8104L14.7324 6.71707ZM25.7594 12.3331C24.8714 12.3331 24.0854 12.0871 23.4014 11.5951C22.7174 11.1031 22.1834 10.4011 21.7994 9.48907C21.4154 8.56507 21.2234 7.45507 21.2234 6.15906C21.2234 4.88707 21.4154 3.80107 21.7994 2.90106C22.1834 1.98907 22.7174 1.29307 23.4014 0.813065C24.0854 0.333065 24.8714 0.0930647 25.7594 0.0930647C26.6474 0.0930647 27.4334 0.333065 28.1174 0.813065C28.8014 1.29307 29.3354 1.98907 29.7194 2.90106C30.1034 3.80107 30.2954 4.88707 30.2954 6.15906C30.2954 7.45507 30.1034 8.56507 29.7194 9.48907C29.3354 10.4011 28.8014 11.1031 28.1174 11.5951C27.4334 12.0871 26.6474 12.3331 25.7594 12.3331ZM25.7594 11.0191C26.3594 11.0191 26.8814 10.8271 27.3254 10.4431C27.7814 10.0471 28.1294 9.48907 28.3694 8.76907C28.6214 8.03707 28.7474 7.16707 28.7474 6.15906C28.7474 5.16306 28.6214 4.31106 28.3694 3.60307C28.1294 2.89507 27.7814 2.35507 27.3254 1.98307C26.8814 1.59906 26.3594 1.40706 25.7594 1.40706C25.1594 1.40706 24.6314 1.59906 24.1754 1.98307C23.7314 2.35507 23.3834 2.89507 23.1314 3.60307C22.8914 4.31106 22.7714 5.16306 22.7714 6.15906C22.7714 7.16707 22.8914 8.03707 23.1314 8.76907C23.3834 9.48907 23.7314 10.0471 24.1754 10.4431C24.6314 10.8271 25.1594 11.0191 25.7594 11.0191ZM36.1203 12.3331C35.4603 12.3331 34.8123 12.1771 34.1763 11.8651C33.5403 11.5531 33.0183 11.0551 32.6103 10.3711L33.5463 9.45307C33.8823 9.98107 34.2723 10.3771 34.7163 10.6411C35.1723 10.8931 35.6283 11.0191 36.0843 11.0191C36.9243 11.0191 37.5423 10.7971 37.9383 10.3531C38.3343 9.89707 38.5323 9.18307 38.5323 8.21107V1.55107H33.5823V0.291065H40.0263V8.33707C40.0263 9.06907 39.9063 9.74107 39.6663 10.3531C39.4263 10.9531 39.0183 11.4331 38.4423 11.7931C37.8783 12.1531 37.1043 12.3331 36.1203 12.3331ZM43.9973 12.1171V0.309065H51.3053V1.56906H45.5093V5.27706H50.4053V6.55507H45.5093V10.8391H51.4853V12.1171H43.9973ZM59.0563 12.3331C58.3243 12.3331 57.6463 12.1951 57.0223 11.9191C56.3983 11.6431 55.8523 11.2471 55.3843 10.7311C54.9163 10.2031 54.5503 9.56107 54.2863 8.80507C54.0343 8.03707 53.9083 7.17307 53.9083 6.21307C53.9083 4.95307 54.1363 3.86707 54.5923 2.95507C55.0483 2.03107 55.6723 1.32306 56.4643 0.831065C57.2563 0.339065 58.1683 0.0930647 59.2003 0.0930647C59.9083 0.0930647 60.5383 0.243065 61.0903 0.543065C61.6423 0.831065 62.0863 1.16107 62.4223 1.53307L61.5763 2.48706C61.2763 2.15106 60.9283 1.88706 60.5323 1.69506C60.1363 1.50306 59.6923 1.40706 59.2003 1.40706C58.4443 1.40706 57.7843 1.60506 57.2203 2.00106C56.6683 2.38506 56.2363 2.93106 55.9243 3.63907C55.6123 4.34706 55.4563 5.19306 55.4563 6.17707C55.4563 7.17307 55.6123 8.03107 55.9243 8.75107C56.2363 9.47107 56.6683 10.0291 57.2203 10.4251C57.7843 10.8211 58.4443 11.0191 59.2003 11.0191C59.7403 11.0191 60.2263 10.9051 60.6583 10.6771C61.0903 10.4491 61.4923 10.1251 61.8643 9.70507L62.7103 10.6231C62.2543 11.1631 61.7263 11.5831 61.1263 11.8831C60.5263 12.1831 59.8363 12.3331 59.0563 12.3331ZM68.1753 12.1171V1.56906H64.2873V0.309065H73.5753V1.56906H69.6873V12.1171H68.1753ZM79.8142 12.3331C78.9502 12.3331 78.1522 12.1771 77.4202 11.8651C76.7002 11.5411 76.0702 11.1151 75.5302 10.5871L76.4302 9.54307C76.8742 9.98707 77.3902 10.3471 77.9782 10.6231C78.5782 10.8871 79.2142 11.0191 79.8862 11.0191C80.7022 11.0191 81.3322 10.8451 81.7762 10.4971C82.2322 10.1491 82.4602 9.69907 82.4602 9.14707C82.4602 8.72707 82.3642 8.39107 82.1722 8.13907C81.9922 7.88707 81.7402 7.67707 81.4162 7.50907C81.1042 7.34107 80.7442 7.17307 80.3362 7.00507L78.6442 6.26707C78.2482 6.09907 77.8522 5.88907 77.4562 5.63707C77.0722 5.38507 76.7482 5.06707 76.4842 4.68307C76.2202 4.28707 76.0882 3.80107 76.0882 3.22507C76.0882 2.62506 76.2502 2.09107 76.5742 1.62307C76.9102 1.14307 77.3722 0.771065 77.9602 0.507065C78.5482 0.231065 79.2142 0.0930647 79.9582 0.0930647C80.7022 0.0930647 81.3862 0.231065 82.0102 0.507065C82.6342 0.771065 83.1622 1.11907 83.5942 1.55107L82.8022 2.52306C82.4182 2.17506 81.9922 1.90506 81.5242 1.71307C81.0562 1.50907 80.5162 1.40706 79.9042 1.40706C79.2202 1.40706 78.6682 1.56307 78.2482 1.87507C77.8282 2.17507 77.6182 2.59506 77.6182 3.13507C77.6182 3.50707 77.7202 3.81307 77.9242 4.05307C78.1402 4.29306 78.4102 4.49106 78.7342 4.64707C79.0582 4.80307 79.3882 4.95307 79.7242 5.09707L81.3802 5.81707C81.8722 6.00907 82.3162 6.24307 82.7122 6.51907C83.1082 6.78307 83.4202 7.11307 83.6482 7.50907C83.8762 7.90507 83.9902 8.39107 83.9902 8.96707C83.9902 9.59107 83.8222 10.1611 83.4862 10.6771C83.1502 11.1811 82.6702 11.5831 82.0462 11.8831C81.4222 12.1831 80.6782 12.3331 79.8142 12.3331Z" fill="white" fill-opacity="0.5"/>
</svg>
