<svg width="113" height="18" viewBox="0 0 113 18" fill="none" xmlns="http://www.w3.org/2000/svg">
<path d="M0.672188 17.1171L3.84019 1.27706H7.87219C8.83219 1.27706 9.65619 1.40506 10.3442 1.66106C11.0322 1.91706 11.5602 2.30906 11.9282 2.83706C12.2962 3.36506 12.4802 4.04506 12.4802 4.87706C12.4802 5.74106 12.3282 6.50106 12.0242 7.15706C11.7202 7.79706 11.2802 8.33306 10.7042 8.76506C10.1282 9.19707 9.43219 9.52507 8.61619 9.74907C7.80019 9.95707 6.88019 10.0611 5.85619 10.0611H2.78419L1.39219 17.1171H0.672188ZM2.92819 9.43706H5.71219C7.71219 9.43706 9.21619 9.06106 10.2242 8.30907C11.2482 7.54106 11.7602 6.41306 11.7602 4.92507C11.7602 3.83706 11.3922 3.06106 10.6562 2.59706C9.93619 2.13307 8.86419 1.90107 7.44019 1.90107H4.41619L2.92819 9.43706ZM14.5828 17.1171L17.7508 1.27706H21.5908C22.5348 1.27706 23.3428 1.39706 24.0148 1.63706C24.7028 1.86106 25.2308 2.22906 25.5988 2.74106C25.9668 3.23706 26.1508 3.88507 26.1508 4.68507C26.1508 5.45306 25.9988 6.14906 25.6948 6.77306C25.4068 7.38107 24.9908 7.90107 24.4468 8.33306C23.9188 8.76506 23.2868 9.10107 22.5508 9.34107C21.8308 9.56507 21.0468 9.67707 20.1988 9.67707H16.7908L15.3028 17.1171H14.5828ZM16.9348 9.05306H19.8628C21.6388 9.05306 23.0068 8.66906 23.9668 7.90107C24.9428 7.13307 25.4308 6.07706 25.4308 4.73306C25.4308 3.69306 25.0708 2.96506 24.3508 2.54906C23.6468 2.11706 22.5828 1.90107 21.1588 1.90107H18.3268L16.9348 9.05306ZM20.1508 9.62907L20.8228 9.34107L24.0388 17.1171H23.2228L20.1508 9.62907ZM33.9174 17.4051C32.8614 17.4051 31.9654 17.1491 31.2294 16.6371C30.4934 16.1091 29.9334 15.3891 29.5494 14.4771C29.1654 13.5491 28.9734 12.4931 28.9734 11.3091C28.9734 10.3651 29.0774 9.41306 29.2854 8.45306C29.4934 7.47706 29.7974 6.54906 30.1974 5.66906C30.5974 4.77306 31.0854 3.97306 31.6614 3.26906C32.2534 2.56506 32.9334 2.01306 33.7014 1.61306C34.4694 1.19706 35.3254 0.989064 36.2694 0.989064C37.3254 0.989064 38.2214 1.25306 38.9574 1.78106C39.6934 2.29306 40.2534 3.01306 40.6374 3.94106C41.0214 4.85307 41.2134 5.90107 41.2134 7.08507C41.2134 8.02906 41.1094 8.98906 40.9014 9.96507C40.6934 10.9251 40.3894 11.8531 39.9894 12.7491C39.5894 13.6291 39.0934 14.4211 38.5014 15.1251C37.9254 15.8291 37.2534 16.3891 36.4854 16.8051C35.7174 17.2051 34.8614 17.4051 33.9174 17.4051ZM33.9654 16.7811C34.8134 16.7811 35.5814 16.5891 36.2694 16.2051C36.9574 15.8051 37.5654 15.2771 38.0934 14.6211C38.6214 13.9491 39.0614 13.1971 39.4134 12.3651C39.7654 11.5331 40.0294 10.6691 40.2054 9.77306C40.3974 8.87706 40.4934 8.01306 40.4934 7.18106C40.4934 6.09306 40.3334 5.13306 40.0134 4.30106C39.7094 3.45306 39.2374 2.79706 38.5974 2.33306C37.9734 1.85306 37.1814 1.61306 36.2214 1.61306C35.3734 1.61306 34.6054 1.81306 33.9174 2.21306C33.2294 2.59706 32.6214 3.12507 32.0934 3.79707C31.5654 4.45307 31.1254 5.19707 30.7734 6.02907C30.4214 6.86106 30.1494 7.72506 29.9574 8.62107C29.7814 9.51707 29.6934 10.3811 29.6934 11.2131C29.6934 12.3011 29.8454 13.2691 30.1494 14.1171C30.4694 14.9491 30.9414 15.6051 31.5654 16.0851C32.2054 16.5491 33.0054 16.7811 33.9654 16.7811ZM46.9161 17.4051C46.0041 17.4051 45.2041 17.1811 44.5161 16.7331C43.8441 16.2691 43.3481 15.7411 43.0281 15.1491L43.5561 14.7651C43.9401 15.4051 44.4121 15.9011 44.9721 16.2531C45.5321 16.6051 46.2121 16.7811 47.0121 16.7811C48.3081 16.7811 49.3321 16.3811 50.0841 15.5811C50.8361 14.7651 51.3641 13.5651 51.6681 11.9811L53.6841 1.90107H46.7241L46.8681 1.27706H54.5481L52.3881 12.0531C52.1481 13.2371 51.7961 14.2291 51.3321 15.0291C50.8841 15.8291 50.2921 16.4291 49.5561 16.8291C48.8361 17.2131 47.9561 17.4051 46.9161 17.4051ZM58.4267 17.1171L61.5947 1.27706H70.8587L70.7147 1.90107H62.1707L60.8747 8.38106H68.0267L67.8827 9.00506H60.7787L59.2427 16.4931H68.0267L67.8827 17.1171H58.4267ZM78.2413 17.4051C77.0573 17.4051 76.0733 17.1331 75.2893 16.5891C74.5053 16.0451 73.9213 15.3091 73.5373 14.3811C73.1533 13.4371 72.9613 12.3811 72.9613 11.2131C72.9613 10.2851 73.0733 9.34106 73.2973 8.38106C73.5373 7.42106 73.8733 6.50106 74.3053 5.62106C74.7533 4.74106 75.2973 3.95706 75.9373 3.26906C76.5933 2.56506 77.3373 2.01306 78.1693 1.61306C79.0013 1.19706 79.9213 0.989064 80.9293 0.989064C81.8253 0.989064 82.5693 1.20506 83.1613 1.63706C83.7533 2.06906 84.2253 2.58906 84.5773 3.19706L84.0013 3.58107C83.6973 3.00506 83.2893 2.53306 82.7773 2.16506C82.2653 1.79706 81.6333 1.61306 80.8813 1.61306C79.9533 1.61306 79.1133 1.80506 78.3613 2.18906C77.6093 2.57306 76.9373 3.10106 76.3453 3.77306C75.7693 4.42906 75.2813 5.16506 74.8813 5.98107C74.4813 6.79707 74.1773 7.64507 73.9693 8.52507C73.7773 9.40507 73.6813 10.2531 73.6813 11.0691C73.6813 12.1411 73.8413 13.1091 74.1613 13.9731C74.4813 14.8371 74.9773 15.5251 75.6493 16.0371C76.3373 16.5331 77.2173 16.7811 78.2893 16.7811C79.0413 16.7811 79.7293 16.6451 80.3533 16.3731C80.9773 16.0851 81.5853 15.6931 82.1773 15.1971L82.6093 15.6771C82.1613 16.0451 81.7133 16.3571 81.2653 16.6131C80.8173 16.8691 80.3453 17.0611 79.8493 17.1891C79.3533 17.3331 78.8173 17.4051 78.2413 17.4051ZM90.6639 17.1171L93.6879 1.94906H88.0719L88.2159 1.27706H100.168L100.024 1.94906H94.4079L91.3839 17.1171H90.6639ZM105.871 17.4051C104.751 17.4051 103.767 17.1731 102.919 16.7091C102.087 16.2451 101.407 15.5971 100.879 14.7651L101.455 14.3811C101.967 15.1491 102.591 15.7411 103.327 16.1571C104.063 16.5731 104.943 16.7811 105.967 16.7811C106.767 16.7811 107.487 16.6211 108.127 16.3011C108.783 15.9811 109.295 15.5331 109.663 14.9571C110.047 14.3651 110.239 13.6771 110.239 12.8931C110.239 12.1731 110.047 11.5651 109.663 11.0691C109.295 10.5571 108.799 10.1251 108.175 9.77306L106.063 8.52507C105.423 8.14106 104.847 7.66106 104.335 7.08507C103.823 6.50906 103.567 5.80506 103.567 4.97306C103.567 4.26906 103.751 3.61307 104.119 3.00507C104.487 2.39706 104.999 1.90906 105.655 1.54106C106.327 1.17306 107.103 0.989064 107.983 0.989064C108.943 0.989064 109.783 1.19706 110.503 1.61306C111.239 2.02907 111.807 2.52506 112.207 3.10106L111.679 3.53306C111.279 3.00506 110.751 2.55706 110.095 2.18906C109.455 1.80506 108.703 1.61306 107.839 1.61306C107.119 1.61306 106.495 1.77306 105.967 2.09306C105.439 2.41306 105.023 2.82907 104.719 3.34107C104.431 3.83706 104.287 4.34906 104.287 4.87706C104.287 5.64506 104.503 6.26107 104.935 6.72506C105.367 7.18906 105.855 7.58107 106.399 7.90107L108.463 9.10106C108.959 9.38907 109.391 9.70907 109.759 10.0611C110.143 10.4131 110.439 10.8131 110.647 11.2611C110.855 11.7091 110.959 12.2211 110.959 12.7971C110.959 13.7251 110.735 14.5331 110.287 15.2211C109.839 15.9091 109.231 16.4451 108.463 16.8291C107.695 17.2131 106.831 17.4051 105.871 17.4051Z" fill="white"/>
</svg>
