<svg xmlns="http://www.w3.org/2000/svg" xmlns:xlink="http://www.w3.org/1999/xlink" width="778" height="368" fill="none" viewBox="0 0 778 368">
  <path fill="#fff" d="M416.744 339.352c2.891 0 4.58-1.68 4.58-4.532v-9.912h-2.519v9.893c0 1.523-.723 2.344-2.08 2.344-1.25 0-1.914-.811-1.983-1.895l-.01-.068h-2.461l.01.107c.098 2.412 1.729 4.063 4.463 4.063Zm12.256-.137c3.193 0 5.137-2.09 5.137-5.547v-.02c0-3.437-1.953-5.527-5.137-5.527-3.174 0-5.137 2.1-5.137 5.527v.02c0 3.457 1.934 5.547 5.137 5.547Zm0-1.973c-1.689 0-2.656-1.318-2.656-3.564v-.02c0-2.246.967-3.574 2.656-3.574 1.68 0 2.646 1.328 2.646 3.574v.02c0 2.246-.957 3.564-2.646 3.564Zm13.516 1.934c2.675 0 4.384-2.119 4.384-5.498v-.02c0-3.398-1.679-5.508-4.384-5.508-1.465 0-2.686.723-3.243 1.875h-.166v-5.83h-2.431V339h2.431v-1.67h.166c.586 1.162 1.748 1.846 3.243 1.846Zm-.762-2.051c-1.65 0-2.676-1.309-2.676-3.447v-.02c0-2.138 1.026-3.457 2.676-3.457 1.66 0 2.666 1.309 2.666 3.457v.02c0 2.148-1.006 3.447-2.666 3.447Zm12.158 2.09c2.705 0 4.277-1.455 4.629-3.643l.02-.078-2.295.01-.02.039c-.303 1.123-1.074 1.699-2.334 1.699-1.65 0-2.637-1.328-2.637-3.594v-.019c0-2.236.977-3.545 2.637-3.545 1.328 0 2.119.742 2.344 1.777l.01.03h2.295v-.039c-.274-2.207-1.915-3.731-4.659-3.731-3.213 0-5.097 2.061-5.097 5.508v.019c0 3.487 1.894 5.567 5.107 5.567Zm7.061-.215h2.431v-6.221c0-1.601.899-2.617 2.344-2.617 1.475 0 2.148.84 2.148 2.5V339h2.432v-6.904c0-2.539-1.299-3.975-3.682-3.975-1.542 0-2.568.693-3.076 1.836h-.166v-5.762h-2.431V339Zm15.136.176c1.407 0 2.539-.606 3.125-1.641h.166V339h2.403v-7.295c0-2.256-1.543-3.584-4.287-3.584-2.539 0-4.258 1.191-4.493 2.988l-.009.088h2.295l.009-.039c.244-.703.967-1.103 2.08-1.103 1.309 0 2.002.586 2.002 1.65v.918l-2.744.166c-2.597.156-4.052 1.27-4.052 3.174v.019c0 1.944 1.474 3.194 3.505 3.194Zm-1.103-3.311v-.019c0-.879.635-1.377 1.992-1.465l2.402-.156v.859c0 1.27-1.084 2.227-2.548 2.227-1.075 0-1.846-.538-1.846-1.446Zm10.967-9.326a1.44 1.44 0 0 0 1.445-1.435c0-.792-.654-1.436-1.445-1.436-.801 0-1.455.644-1.455 1.436 0 .8.654 1.435 1.455 1.435ZM484.752 339h2.432v-10.674h-2.432V339Zm5.42 0h2.432v-6.221c0-1.601.898-2.617 2.343-2.617 1.475 0 2.149.84 2.149 2.5V339h2.431v-6.904c0-2.539-1.298-3.975-3.681-3.975-1.543 0-2.569.693-3.076 1.836h-.166v-1.631h-2.432V339Z"/>
  <path fill="#fff" fill-opacity=".2" d="M746.098 344h8.789v-70.459h-8.741l-18.75 13.477v9.277l17.92-12.988h.782V344Z"/>
  <path fill="#fff" fill-opacity=".5" d="M635.914 25h.867l1.086-3.273h2.172l.273-.868h-2.164l1.016-3.086h2.094l.281-.859h-2.086l1.063-3.203h-.875l-1.063 3.203h-2.812l1.054-3.203h-.867l-1.062 3.203h-2.032l-.281.86h2.031l-1.007 3.085h-1.954l-.273.868h1.937L632.234 25h.86l1.086-3.273H637L635.914 25Zm-1.453-4.125 1.008-3.11h2.828l-1.016 3.11h-2.82Zm17.016-3.61h1.078v-.14c0-2.047-1.774-3.633-4.227-3.633-3.351 0-5.867 3.024-5.867 7.078 0 2.844 1.711 4.664 4.359 4.664 2.368 0 4.18-1.226 4.75-3.195h-1.125c-.445 1.32-1.843 2.203-3.507 2.203-2.094 0-3.368-1.43-3.368-3.789 0-3.351 2.063-5.969 4.68-5.969 1.875 0 3.148 1.118 3.227 2.664v.118Zm6.898 7.97c3.414 0 5.961-2.993 5.961-7.024 0-2.773-1.844-4.719-4.469-4.719-3.414 0-5.984 3.016-5.984 7.024 0 2.765 1.859 4.718 4.492 4.718Zm1.414-10.75c2.063 0 3.43 1.523 3.43 3.812 0 3.398-2.047 5.945-4.766 5.945-2.078 0-3.453-1.523-3.453-3.812 0-3.36 2.078-5.946 4.789-5.946ZM666.547 25l2.023-9.531h.094L673.203 25h1.039l2.399-11.273h-1.079l-2.023 9.515h-.094l-4.531-9.515h-1.047L665.469 25h1.078Zm11.672 0 1.078-5.117h5.156l.203-.953H679.5l.906-4.235h5.61l.203-.968h-6.696L677.125 25h1.094Zm9.008 0 2.398-11.273h-1.086L686.141 25h1.086Zm5.281-11.273L690.117 25h4.289c3.453 0 6.078-2.781 6.078-6.531 0-2.93-1.757-4.742-4.75-4.742h-3.226Zm.89.953h2.25c2.336 0 3.735 1.445 3.735 3.843 0 3.172-2.102 5.524-4.938 5.524h-3.039l1.992-9.367Zm15.266 9.351h-5.734l.922-4.328h5.437l.211-.953h-5.445l.867-4.055h5.726l.211-.968h-6.82L701.641 25h6.82l.203-.969Zm3.398.969 2.024-9.531h.094L718.719 25h1.039l2.398-11.273h-1.078l-2.023 9.515h-.094l-4.531-9.515h-1.047L710.984 25h1.078Zm14.665 0 2.187-10.305h3.774l.195-.968h-8.617l-.204.968h3.766L725.641 25h1.086Zm6.968 0 2.399-11.273h-1.086L732.609 25h1.086Zm10.453 0h1.047l-1.82-11.273h-1L735.727 25h1.164l1.984-3.46h4.75l.523 3.46Zm-1.601-9.86h.094l.859 5.485h-4.109l3.156-5.484Zm11.609 8.891h-5.633l2.196-10.304h-1.086L747.234 25h6.719l.203-.969Z"/>
  <path fill="url(#a)" d="M0 10C0 4.477 4.477 0 10 0h378.5v368H0V10Z"/>
  <path fill="#0029FF" d="M0 10C0 4.477 4.477 0 10 0h378.5v368H0V10Z"/>
  <defs>
    <pattern id="a" width="1" height="1" patternContentUnits="objectBoundingBox">
      <use xlink:href="#b" transform="matrix(.00098 0 0 .00103 -.228 0)"/>
    </pattern>
  </defs>
</svg>
