<svg xmlns="http://www.w3.org/2000/svg" xmlns:xlink="http://www.w3.org/1999/xlink" width="777" height="368" fill="none" viewBox="0 0 777 368">
  <path fill="#fff" d="M245.297 339.352c3.252 0 5.586-1.885 5.957-4.707v-.069h-2.471l-.01.049c-.361 1.553-1.689 2.549-3.476 2.549-2.402 0-3.897-2.002-3.897-5.215v-.02c0-3.203 1.495-5.205 3.887-5.205 1.777 0 3.125 1.104 3.486 2.774l.01.039h2.471v-.078c-.332-2.881-2.764-4.912-5.967-4.912-3.994 0-6.465 2.822-6.465 7.392v.02c0 4.551 2.481 7.383 6.475 7.383Zm13.125-.137c3.193 0 5.137-2.09 5.137-5.547v-.02c0-3.437-1.954-5.527-5.137-5.527-3.174 0-5.137 2.1-5.137 5.527v.02c0 3.457 1.934 5.547 5.137 5.547Zm0-1.973c-1.69 0-2.656-1.318-2.656-3.564v-.02c0-2.246.966-3.574 2.656-3.574 1.68 0 2.646 1.328 2.646 3.574v.02c0 2.246-.957 3.564-2.646 3.564ZM266 339h2.432v-6.494c0-1.328.879-2.344 2.08-2.344 1.191 0 1.924.733 1.924 1.914V339h2.431v-6.67c0-1.221.821-2.168 2.09-2.168 1.299 0 1.934.703 1.934 2.09V339h2.431v-7.344c0-2.217-1.289-3.535-3.437-3.535-1.485 0-2.715.762-3.233 1.924h-.166c-.459-1.182-1.513-1.924-2.959-1.924-1.396 0-2.47.674-2.929 1.865h-.166v-1.66H266V339Zm19.453-12.461a1.44 1.44 0 0 0 1.445-1.435c0-.792-.654-1.436-1.445-1.436-.801 0-1.455.644-1.455 1.436 0 .8.654 1.435 1.455 1.435ZM284.232 339h2.432v-10.674h-2.432V339Zm5.42 0h2.432v-6.221c0-1.601.898-2.617 2.344-2.617 1.474 0 2.148.84 2.148 2.5V339h2.432v-6.904c0-2.539-1.299-3.975-3.682-3.975-1.543 0-2.568.693-3.076 1.836h-.166v-1.631h-2.432V339Zm16.817 3.75c3.115 0 5.088-1.553 5.088-4.014v-10.41h-2.432v1.758h-.127c-.605-1.211-1.758-1.934-3.232-1.934-2.754 0-4.434 2.129-4.434 5.215v.02c0 3.027 1.68 5.117 4.385 5.117 1.474 0 2.637-.625 3.252-1.768h.166v2.041c0 1.368-.967 2.139-2.627 2.139-1.358 0-2.168-.478-2.334-1.162l-.01-.029h-2.432l-.009.029c.244 1.797 1.933 2.998 4.746 2.998Zm0-6.182c-1.69 0-2.647-1.298-2.647-3.183v-.02c0-1.885.957-3.193 2.647-3.193 1.679 0 2.705 1.308 2.705 3.193v.02c0 1.885-1.016 3.183-2.705 3.183Zm17.431 2.647c2.627 0 4.532-1.358 4.532-3.389v-.019c0-1.553-.987-2.442-3.077-2.911l-1.728-.38c-1.152-.264-1.602-.645-1.602-1.27v-.01c0-.8.782-1.328 1.866-1.328 1.142 0 1.845.547 2.021 1.221l.01.029h2.285v-.019c-.156-1.729-1.709-3.018-4.307-3.018-2.519 0-4.277 1.328-4.277 3.252v.01c0 1.572.967 2.529 2.998 2.978l1.729.391c1.171.264 1.64.674 1.64 1.299v.019c0 .801-.84 1.348-2.051 1.348-1.21 0-1.923-.518-2.177-1.26l-.01-.019h-2.412v.019c.205 1.807 1.846 3.057 4.56 3.057Zm11.592 0c3.194 0 5.137-2.09 5.137-5.547v-.02c0-3.437-1.953-5.527-5.137-5.527-3.174 0-5.137 2.1-5.137 5.527v.02c0 3.457 1.934 5.547 5.137 5.547Zm0-1.973c-1.689 0-2.656-1.318-2.656-3.564v-.02c0-2.246.967-3.574 2.656-3.574 1.68 0 2.647 1.328 2.647 3.574v.02c0 2.246-.957 3.564-2.647 3.564Zm12.188 1.973c3.193 0 5.136-2.09 5.136-5.547v-.02c0-3.437-1.953-5.527-5.136-5.527-3.174 0-5.137 2.1-5.137 5.527v.02c0 3.457 1.934 5.547 5.137 5.547Zm0-1.973c-1.69 0-2.657-1.318-2.657-3.564v-.02c0-2.246.967-3.574 2.657-3.574 1.679 0 2.646 1.328 2.646 3.574v.02c0 2.246-.957 3.564-2.646 3.564Zm7.578 1.758h2.431v-6.221c0-1.601.899-2.617 2.344-2.617 1.475 0 2.149.84 2.149 2.5V339h2.431v-6.904c0-2.539-1.299-3.975-3.681-3.975-1.543 0-2.569.693-3.077 1.836h-.166v-1.631h-2.431V339Z"/>
  <path fill="#fff" fill-opacity=".2" d="M21.361 344h45.606v-7.91H33.568v-.781l16.016-16.553c12.744-13.135 16.21-18.994 16.21-27.051v-.098c0-11.377-9.423-19.726-21.728-19.726-13.476 0-23.144 8.984-23.193 21.484l.098.049 8.398.049.049-.098c0-8.301 5.615-13.818 14.063-13.818 8.3 0 13.33 5.566 13.33 12.988v.098c0 6.152-2.637 9.814-11.621 19.531l-23.83 25.781V344Z"/>
  <path fill="#FFA5EA" d="M388 0h388.5v368H388V0Z"/>
  <path fill="url(#a)" d="M557 209.5h50v-50h-50v50Z"/>
  <defs>
    <pattern id="a" width="1" height="1" patternContentUnits="objectBoundingBox">
      <use xlink:href="#b" transform="scale(.01563)"/>
    </pattern>
  </defs>
</svg>
