<svg width="252" height="30" viewBox="0 0 252 30" fill="none" xmlns="http://www.w3.org/2000/svg">
<path d="M4.96594 29L10.0059 3.72H0.645938L0.885938 2.6H20.8059L20.5659 3.72H11.2059L6.16594 29H4.96594ZM22.1503 29L27.9103 0.119998H29.0303L26.5503 12.44L26.1503 14.28H26.3103C27.217 13.4267 28.1503 12.6267 29.1103 11.88C30.097 11.1333 31.137 10.5333 32.2303 10.08C33.3503 9.62667 34.577 9.4 35.9103 9.4C37.6703 9.4 38.9236 9.84 39.6703 10.72C40.417 11.6 40.7903 12.7067 40.7903 14.04C40.7903 14.68 40.7503 15.2667 40.6703 15.8C40.617 16.3067 40.5236 16.84 40.3903 17.4L38.0703 29H36.9503L39.2703 17.48C39.4036 16.8667 39.497 16.3067 39.5503 15.8C39.6303 15.2933 39.6703 14.76 39.6703 14.2C39.6703 13 39.337 12.08 38.6703 11.44C38.0036 10.7733 37.0303 10.44 35.7503 10.44C34.0703 10.44 32.417 10.9467 30.7903 11.96C29.1903 12.9467 27.5636 14.3067 25.9103 16.04L23.2703 29H22.1503ZM58.0947 29.48C56.8414 29.48 55.8014 29.1467 54.9747 28.48C54.148 27.7867 53.7347 26.7067 53.7347 25.24C53.7347 24.9467 53.748 24.64 53.7747 24.32C53.828 24 53.8947 23.6667 53.9747 23.32L56.6147 10.92H49.0147L49.2547 9.88H57.8947L55.0147 23.64C54.9614 23.9067 54.9214 24.16 54.8947 24.4C54.868 24.64 54.8547 24.8667 54.8547 25.08C54.8547 26.28 55.1747 27.1467 55.8147 27.68C56.4814 28.1867 57.308 28.44 58.2947 28.44C59.0147 28.44 59.708 28.3333 60.3747 28.12C61.068 27.88 61.788 27.5867 62.5347 27.24L62.9347 28.12C62.1347 28.52 61.3614 28.84 60.6147 29.08C59.868 29.3467 59.028 29.48 58.0947 29.48ZM57.7347 5C57.308 5 56.9747 4.88 56.7347 4.64C56.4947 4.37333 56.3747 4.04 56.3747 3.64C56.3747 3.29333 56.4547 2.97333 56.6147 2.68C56.8014 2.38667 57.028 2.16 57.2947 2C57.5614 1.81333 57.8414 1.72 58.1347 1.72C58.588 1.72 58.9214 1.85333 59.1347 2.12C59.3747 2.36 59.4947 2.68 59.4947 3.08C59.4947 3.58667 59.308 4.04 58.9347 4.44C58.588 4.81333 58.188 5 57.7347 5ZM78.9591 29.48C77.9457 29.48 76.9057 29.3333 75.8391 29.04C74.7991 28.7733 73.8257 28.3733 72.9191 27.84C72.0391 27.3067 71.3191 26.68 70.7591 25.96L71.5591 25.24C72.4391 26.3067 73.5591 27.1067 74.9191 27.64C76.2791 28.1733 77.7191 28.44 79.2391 28.44C80.9724 28.44 82.4257 28.1067 83.5991 27.44C84.7991 26.7733 85.3991 25.6933 85.3991 24.2C85.3991 23.3733 85.1324 22.6933 84.5991 22.16C84.0657 21.6267 83.3324 21.1733 82.3991 20.8C81.4924 20.4 80.4524 20 79.2791 19.6C77.2524 18.9067 75.8124 18.1467 74.9591 17.32C74.1324 16.4667 73.7191 15.4267 73.7191 14.2C73.7191 13.1067 73.9991 12.2133 74.5591 11.52C75.1457 10.8 75.9191 10.2667 76.8791 9.92C77.8391 9.57333 78.9191 9.4 80.1191 9.4C81.9324 9.4 83.5191 9.73333 84.8791 10.4C86.2391 11.04 87.2924 11.7467 88.0391 12.52L87.3191 13.32C86.5191 12.6 85.5324 11.9467 84.3591 11.36C83.1857 10.7467 81.7457 10.44 80.0391 10.44C78.4124 10.44 77.1324 10.7733 76.1991 11.44C75.2924 12.1067 74.8391 13 74.8391 14.12C74.8391 15.32 75.3324 16.24 76.3191 16.88C77.3057 17.52 78.5857 18.1067 80.1591 18.64C81.3857 19.04 82.4791 19.4667 83.4391 19.92C84.3991 20.3733 85.1457 20.9333 85.6791 21.6C86.2391 22.24 86.5191 23.08 86.5191 24.12C86.5191 25.4267 86.1724 26.48 85.4791 27.28C84.8124 28.0533 83.9057 28.6133 82.7591 28.96C81.6124 29.3067 80.3457 29.48 78.9591 29.48ZM130.048 29.48C128.794 29.48 127.754 29.1467 126.928 28.48C126.101 27.7867 125.688 26.7067 125.688 25.24C125.688 24.9467 125.701 24.64 125.728 24.32C125.781 24 125.848 23.6667 125.928 23.32L128.568 10.92H120.968L121.208 9.88H129.848L126.968 23.64C126.914 23.9067 126.874 24.16 126.848 24.4C126.821 24.64 126.808 24.8667 126.808 25.08C126.808 26.28 127.128 27.1467 127.768 27.68C128.434 28.1867 129.261 28.44 130.248 28.44C130.968 28.44 131.661 28.3333 132.328 28.12C133.021 27.88 133.741 27.5867 134.488 27.24L134.888 28.12C134.088 28.52 133.314 28.84 132.568 29.08C131.821 29.3467 130.981 29.48 130.048 29.48ZM129.688 5C129.261 5 128.928 4.88 128.688 4.64C128.448 4.37333 128.328 4.04 128.328 3.64C128.328 3.29333 128.408 2.97333 128.568 2.68C128.754 2.38667 128.981 2.16 129.248 2C129.514 1.81333 129.794 1.72 130.088 1.72C130.541 1.72 130.874 1.85333 131.088 2.12C131.328 2.36 131.448 2.68 131.448 3.08C131.448 3.58667 131.261 4.04 130.888 4.44C130.541 4.81333 130.141 5 129.688 5ZM150.912 29.48C149.899 29.48 148.859 29.3333 147.792 29.04C146.752 28.7733 145.779 28.3733 144.872 27.84C143.992 27.3067 143.272 26.68 142.712 25.96L143.512 25.24C144.392 26.3067 145.512 27.1067 146.872 27.64C148.232 28.1733 149.672 28.44 151.192 28.44C152.926 28.44 154.379 28.1067 155.552 27.44C156.752 26.7733 157.352 25.6933 157.352 24.2C157.352 23.3733 157.086 22.6933 156.552 22.16C156.019 21.6267 155.286 21.1733 154.352 20.8C153.446 20.4 152.406 20 151.232 19.6C149.206 18.9067 147.766 18.1467 146.912 17.32C146.086 16.4667 145.672 15.4267 145.672 14.2C145.672 13.1067 145.952 12.2133 146.512 11.52C147.099 10.8 147.872 10.2667 148.832 9.92C149.792 9.57333 150.872 9.4 152.072 9.4C153.886 9.4 155.472 9.73333 156.832 10.4C158.192 11.04 159.246 11.7467 159.992 12.52L159.272 13.32C158.472 12.6 157.486 11.9467 156.312 11.36C155.139 10.7467 153.699 10.44 151.992 10.44C150.366 10.44 149.086 10.7733 148.152 11.44C147.246 12.1067 146.792 13 146.792 14.12C146.792 15.32 147.286 16.24 148.272 16.88C149.259 17.52 150.539 18.1067 152.112 18.64C153.339 19.04 154.432 19.4667 155.392 19.92C156.352 20.3733 157.099 20.9333 157.632 21.6C158.192 22.24 158.472 23.08 158.472 24.12C158.472 25.4267 158.126 26.48 157.432 27.28C156.766 28.0533 155.859 28.6133 154.712 28.96C153.566 29.3067 152.299 29.48 150.912 29.48ZM188.601 29L192.441 9.88H193.401L193.001 12.6H193.081C194.014 11.48 194.921 10.6667 195.801 10.16C196.681 9.65333 197.561 9.4 198.441 9.4C199.374 9.4 200.094 9.66667 200.601 10.2C201.134 10.7067 201.401 11.5867 201.401 12.84L200.921 13.4C202.121 11.88 203.241 10.84 204.281 10.28C205.321 9.69333 206.254 9.4 207.081 9.4C208.014 9.4 208.734 9.65333 209.241 10.16C209.774 10.6667 210.041 11.5067 210.041 12.68C210.041 13 210.014 13.3333 209.961 13.68C209.934 14.0267 209.868 14.4667 209.761 15L207.001 29H205.881L208.681 14.92C208.761 14.52 208.814 14.16 208.841 13.84C208.894 13.4933 208.921 13.1867 208.921 12.92C208.921 12.04 208.748 11.4133 208.401 11.04C208.054 10.64 207.548 10.44 206.881 10.44C205.894 10.44 204.948 10.7867 204.041 11.48C203.134 12.1467 202.201 13.16 201.241 14.52L198.361 29H197.241L200.041 14.92C200.121 14.52 200.174 14.16 200.201 13.84C200.254 13.4933 200.281 13.1867 200.281 12.92C200.281 12.04 200.108 11.4133 199.761 11.04C199.414 10.64 198.894 10.44 198.201 10.44C197.214 10.44 196.281 10.7867 195.401 11.48C194.548 12.1467 193.614 13.16 192.601 14.52L189.721 29H188.601ZM222.825 29.48C221.172 29.48 219.759 29.16 218.585 28.52C217.412 27.8533 216.519 26.92 215.905 25.72C215.292 24.4933 214.985 23.0533 214.985 21.4C214.985 19.6667 215.265 18.08 215.825 16.64C216.412 15.1733 217.199 13.9067 218.185 12.84C219.199 11.7467 220.345 10.9067 221.625 10.32C222.932 9.70667 224.292 9.4 225.705 9.4C227.945 9.4 229.652 10.0933 230.825 11.48C231.999 12.8667 232.585 14.5867 232.585 16.64C232.585 17.2267 232.532 17.7733 232.425 18.28C232.345 18.76 232.265 19.1067 232.185 19.32H215.945L216.185 18.28H232.265L231.225 18.52C231.305 18.2 231.359 17.8667 231.385 17.52C231.439 17.1733 231.465 16.84 231.465 16.52C231.465 14.68 230.932 13.2133 229.865 12.12C228.825 11 227.385 10.44 225.545 10.44C224.372 10.44 223.225 10.72 222.105 11.28C220.985 11.84 219.972 12.6133 219.065 13.6C218.159 14.5867 217.439 15.7467 216.905 17.08C216.372 18.3867 216.105 19.8 216.105 21.32C216.105 22.7067 216.372 23.9467 216.905 25.04C217.439 26.1067 218.212 26.9467 219.225 27.56C220.239 28.1467 221.465 28.44 222.905 28.44C224.319 28.44 225.639 28.1733 226.865 27.64C228.119 27.08 229.199 26.3867 230.105 25.56L230.745 26.44C229.919 27.1867 228.799 27.88 227.385 28.52C225.999 29.16 224.479 29.48 222.825 29.48ZM246.73 20.44L249.69 4.68L250.17 2.12H251.45L250.97 4.68L247.69 20.44H246.73ZM245.45 29.48C244.943 29.48 244.53 29.32 244.21 29C243.916 28.6533 243.77 28.2 243.77 27.64C243.77 26.9467 244.023 26.32 244.53 25.76C245.036 25.2 245.61 24.92 246.25 24.92C246.783 24.92 247.196 25.0933 247.49 25.44C247.783 25.76 247.93 26.2 247.93 26.76C247.93 27.4267 247.676 28.0533 247.17 28.64C246.663 29.2 246.09 29.48 245.45 29.48Z" fill="white"/>
</svg>
